{
.appVersion = "3140";
.formatVersion = 3;
DisplayStrings = (
"/a.ss01/a.ss01.alt1/a.ss01.alt2/a.ss01.alt3/a.ss01.alt4/a.ss01.alt5/a.ss01.alt6",
"0",
"0/zero.alt1/zero.alt2/zero.alt3/zero.alt4/zero.alt5/zero.alt6"
);
customParameters = (
{
name = glyphOrder;
value = (
A,
A.alt1,
A.alt2,
A.alt3,
A.alt4,
A.alt5,
A.alt6,
B,
B.alt1,
B.alt2,
B.alt3,
B.alt4,
B.alt5,
B.alt6,
C,
C.alt1,
C.alt2,
C.alt3,
C.alt4,
C.alt5,
C.alt6,
D,
D.alt1,
D.alt2,
D.alt3,
D.alt4,
D.alt5,
D.alt6,
E,
E.alt1,
E.alt2,
E.alt3,
E.alt4,
E.alt5,
E.alt6,
F,
F.alt1,
F.alt2,
F.alt3,
F.alt4,
F.alt5,
F.alt6,
G,
G.alt1,
G.alt2,
G.alt3,
G.alt4,
G.alt5,
G.alt6,
H,
H.alt1,
H.alt2,
H.alt3,
H.alt4,
H.alt5,
H.alt6,
I,
I.alt1,
I.alt2,
I.alt3,
I.alt4,
I.alt5,
I.alt6,
J,
J.alt1,
J.alt2,
J.alt3,
J.alt4,
J.alt5,
J.alt6,
K,
K.alt1,
K.alt2,
K.alt3,
K.alt4,
K.alt5,
K.alt6,
L,
L.alt1,
L.alt2,
L.alt3,
L.alt4,
L.alt5,
L.alt6,
M,
M.alt1,
M.alt2,
M.alt3,
M.alt4,
M.alt5,
M.alt6,
N,
N.alt1,
N.alt2,
N.alt3,
N.alt4,
N.alt5,
N.alt6,
O,
O.alt1,
O.alt2,
O.alt3,
O.alt4,
O.alt5,
O.alt6,
P,
P.alt1,
P.alt2,
P.alt3,
P.alt4,
P.alt5,
P.alt6,
Q,
Q.alt1,
Q.alt2,
Q.alt3,
Q.alt4,
Q.alt5,
Q.alt6,
R,
R.alt1,
R.alt2,
R.alt3,
R.alt4,
R.alt5,
R.alt6,
S,
S.alt1,
S.alt2,
S.alt3,
S.alt4,
S.alt5,
S.alt6,
T,
T.alt1,
T.alt2,
T.alt3,
T.alt4,
T.alt5,
T.alt6,
U,
U.alt1,
U.alt2,
U.alt3,
U.alt4,
U.alt5,
U.alt6,
V,
V.alt1,
V.alt2,
V.alt3,
V.alt4,
V.alt5,
V.alt6,
W,
W.alt1,
W.alt2,
W.alt3,
W.alt4,
W.alt5,
W.alt6,
X,
X.alt1,
X.alt2,
X.alt3,
X.alt4,
X.alt5,
X.alt6,
Y,
Y.alt1,
Y.alt2,
Y.alt3,
Y.alt4,
Y.alt5,
Y.alt6,
Z,
Z.alt1,
Z.alt2,
Z.alt3,
Z.alt4,
Z.alt5,
Z.alt6,
a,
a.alt1,
a.alt2,
a.alt3,
a.alt4,
a.alt5,
a.alt6,
b,
b.alt1,
b.alt2,
b.alt3,
b.alt4,
b.alt5,
b.alt6,
c,
c.alt1,
c.alt2,
c.alt3,
c.alt4,
c.alt5,
c.alt6,
d,
d.alt1,
d.alt2,
d.alt3,
d.alt4,
d.alt5,
d.alt6,
e,
e.alt1,
e.alt2,
e.alt3,
e.alt4,
e.alt5,
e.alt6,
f,
f.alt1,
f.alt2,
f.alt3,
f.alt4,
f.alt5,
f.alt6,
g,
g.alt1,
g.alt2,
g.alt3,
g.alt4,
g.alt5,
g.alt6,
h,
h.alt1,
h.alt2,
h.alt3,
h.alt4,
h.alt5,

glyphs = (
{
color = 6;
glyphname = A;
lastChange = "2023-01-02 14:53:39 +0000";
layers = (
{
background = {
shapes = (
{
closed = 1;
nodes = (
(185,230,o),
(293,438,o),
(392,657,c),
(449,511,o),
(556,226,o),
(647,2,cs),
(654,-15,o),
(673,-19,o),
(684,-19,cs),
(703,-19,o),
(722,-4,o),
(722,26,cs),
(722,37,o),
(713,55,o),
(707,69,cs),
(637,243,o),
(454,708,o),
(434,760,cs),
(427,778,o),
(411,789,o),
(394,789,cs),
(381,789,o),
(366,782,o),
(360,769,cs),
(244,524,o),
(123,290,o),
(32,58,cs),
(22,32,o),
(22,28,o),
(22,25,cs),
(22,1,o),
(44,-15,o),
(65,-15,cs),
(81,-15,o),
(95,-6,o),
(102,14,cs)
);
},
{
closed = 1;
nodes = (
(140,312,o),
(140,289,cs),
(140,266,o),
(171,243,o),
(191,245,cs),
(302,259,o),
(428,259,o),
(543,259,cs),
(581,259,o),
(639,262,o),
(639,302,cs),
(639,325,o),
(620,348,o),
(594,344,cs),
(565,339,o),
(517,336,o),
(462,338,cs),
(340,343,o),
(235,335,o),
(192,326,cs),
(170,321,o)
);
}
);
};
layerId = m01;
shapes = (
{
closed = 1;
nodes = (
(185,230,o),
(293,438,o),
(392,657,c),
(449,511,o),
(556,226,o),
(647,2,cs),
(654,-15,o),
(673,-19,o),
(684,-19,cs),
(703,-19,o),
(722,-4,o),
(722,26,cs),
(722,37,o),
(713,55,o),
(707,69,cs),
(637,243,o),
(454,708,o),
(434,760,cs),
(427,778,o),
(411,789,o),
(394,789,cs),
(381,789,o),
(366,782,o),
(360,769,cs),
(244,524,o),
(123,290,o),
(32,58,cs),
(22,32,o),
(22,28,o),
(22,25,cs),
(22,1,o),
(44,-15,o),
(65,-15,cs),
(81,-15,o),
(95,-6,o),
(102,14,cs)
);
},
{
closed = 1;
nodes = (
(140,312,o),
(140,289,cs),
(140,266,o),
(171,243,o),
(191,245,cs),
(302,259,o),
(428,259,o),
(543,259,cs),
(581,259,o),
(639,262,o),
(639,302,cs),
(639,325,o),
(620,348,o),
(594,344,cs),
(565,339,o),
(517,336,o),
(462,338,cs),
(340,343,o),
(235,335,o),
(192,326,cs),
(170,321,o)
);
}
);
width = 752;
},
{
associatedMasterId = m01;
background = {
shapes = (
{
closed = 1;
nodes = (
(2695,75,o),
(2716,126,o),
(2737,176,c),
(2736,173,o),
(2734,170,o),
(2733,167,c),
(2816,364,o),
(2910,558,o),
(3003,751,c),
(2929,761,l),
(3029,512,o),
(3114,258,o),
(3220,12,c),
(3259,-38,o),
(3324,9,o),
(3279,79,c),
(3280,76,o),
(3281,73,o),
(3283,70,c),
(3205,253,o),
(3138,441,o),
(3068,628,c),
(3048,679,o),
(3028,731,o),
(3007,783,c),
(2998,815,o),
(2950,823,o),
(2933,792,c),
(2815,547,o),
(2696,300,o),
(2597,46,c),
(2583,-4,o),
(2661,-27,o),
(2675,24,c)
);
},
{
closed = 1;
nodes = (
(2754,256,o),
(2756,256,o),
(2759,257,c),
(2756,256,o),
(2752,256,o),
(2748,255,c),
(2853,269,o),
(2960,266,o),
(3065,268,c),
(3105,274,o),
(3157,258,o),
(3187,288,c),
(3209,313,o),
(3187,356,o),
(3154,354,c),
(3101,354,o),
(3102,272,o),
(3155,273,c),
(3151,274,o),
(3148,274,o),
(3144,274,c),
(3144,274,o),
(3144,274,o),
(3144,274,c),
(3138,278,o),
(3133,281,o),
(3127,285,c),
(3127,285,o),
(3127,285,o),
(3127,284,c),
(3123,290,o),
(3120,296,o),
(3116,302,c),
(3117,302,o),
(3117,302,o),
(3117,302,c),
(3130,319,o),
(3143,336,o),
(3156,353,c),
(3062,338,o),
(2759,369,o),
(2705,315,c),
(2687,285,o),
(2717,246,o),
(2751,256,c)
);
},
{
closed = 1;
nodes = (
(4598,573,o),
(4532,96,o),
(4784,8,c),
(5088,-73,o),
(5196,469,o),
(4901,541,c),
(4890,462,l),
(4950,466,o),
(4939,549,o),
(4881,544,c),
(4824,542,o),
(4831,460,o),
(4887,463,c),
(4884,463,o),
(4880,464,o),
(4876,464,c),
(4877,464,o),
(4878,464,o),
(4879,464,c),
(4869,468,l),
(4870,468,o),
(4870,468,o),
(4870,467,c),
(4891,543,l),
(4870,542,o),
(4853,529,o),
(4850,508,c),
(4845,473,o),
(4879,462,o),
(4905,454,c),
(4896,458,l),
(4946,434,o),
(4956,422,o),
(4981,371,c),
(4980,374,o),
(4978,377,o),
(4977,381,c),
(4986,360,o),
(4992,338,o),
(4995,316,c),
(4994,319,o),
(4994,323,o),
(4993,326,c),
(4997,300,o),
(4996,274,o),
(4993,248,c),
(4993,252,o),
(4994,255,o),
(4994,259,c),
(4991,233,o),
(4984,208,o),
(4974,184,c),
(4975,187,o),
(4977,190,o),
(4978,193,c),
(4951,135,o),
(4933,113,o),
(4879,87,c),
(4882,88,o),
(4886,89,o),
(4889,91,c),
(4873,84,o),
(4857,80,o),
(4841,78,c),
(4844,78,o),
(4848,79,o),
(4852,79,c),
(4845,78,o),
(4839,78,o),
(4832,79,c),
(4836,78,o),
(4839,78,o),
(4843,77,c),
(4827,79,o),
(4811,83,o),
(4797,90,c),
(4800,88,o),
(4803,87,o),
(4806,86,c),
(4759,109,o),
(4749,122,o),
(4725,171,c),
(4726,168,o),
(4728,165,o),
(4729,162,c),
(4719,185,o),
(4713,209,o),
(4710,233,c),
(4711,222,l),
(4708,251,o),
(4708,279,o),
(4711,307,c),
(4711,304,o),
(4710,300,o),
(4710,296,c),
(4714,323,o),
(4720,348,o),
(4730,373,c),
(4729,369,o),
(4728,366,o),
(4726,363,c),
(4752,417,o),
(4765,434,o),
(4813,457,c),
(4803,453,l),
(4817,459,o),
(4831,463,o),
(4845,465,c),
(4841,464,o),
(4838,464,o),
(4834,463,c),
(4859,469,o),
(4890,454,o),
(4910,475,c),
(4936,500,o),
(4917,544,o),
(4881,544,c)
);
},
{
closed = 1;
nodes = (
(5448,559,o),
(5304,574,o),
(5222,503,c),
(5128,411,o),
(5202,288,o),
(5309,251,c),
(5348,234,o),
(5380,206,o),
(5391,193,c),
(5399,183,o),
(5405,172,o),
(5410,160,c),
(5409,163,o),
(5408,166,o),
(5406,169,c),
(5410,161,o),
(5412,152,o),
(5414,142,c),
(5413,146,o),
(5413,149,o),
(5412,153,c),
(5414,144,o),
(5414,136,o),
(5412,127,c),
(5413,131,o),
(5413,135,o),
(5414,138,c),
(5413,131,o),
(5411,124,o),
(5408,117,c),
(5409,121,o),
(5411,124,o),
(5412,127,c),
(5410,122,o),
(5407,117,o),
(5404,112,c),
(5400,106,o),
(5409,118,o),
(5406,114,c),
(5392,99,o),
(5396,102,o),
(5373,91,c),
(5376,92,o),
(5380,94,o),
(5383,95,c),
(5372,91,o),
(5361,88,o),
(5349,86,c),
(5360,88,l),
(5345,86,o),
(5330,86,o),
(5314,88,c),
(5318,87,o),
(5321,87,o),
(5325,86,c),
(5305,89,o),
(5285,95,o),
(5266,103,c),
(5269,101,o),
(5272,100,o),
(5275,98,c),
(5250,109,o),
(5226,124,o),
(5204,140,c),
(5205,139,o),
(5207,138,o),
(5208,137,c),
(5204,141,o),
(5200,144,o),
(5196,147,c),
(5180,126,o),
(5163,105,o),
(5147,84,c),
(5150,82,o),
(5152,79,o),
(5141,88,c),
(5186,46,o),
(5242,124,o),
(5188,153,c),
(5149,177,o),
(5105,121,o),
(5139,90,c),
(5180,56,o),
(5226,26,o),
(5278,13,c),
(5487,-41,o),
(5576,183,o),
(5395,296,c),
(5347,326,o),
(5293,340,o),
(5266,377,c),
(5267,375,o),
(5271,368,o),
(5269,374,c),
(5268,377,o),
(5266,379,o),
(5265,382,c),
(5267,378,o),
(5268,375,o),
(5269,372,c),
(5265,383,o),
(5262,394,o),
(5260,405,c),
(5260,402,o),
(5261,398,o),
(5261,394,c),
(5260,403,o),
(5260,411,o),
(5261,420,c),
(5261,416,o),
(5260,413,o),
(5260,409,c),
(5261,417,o),
(5263,425,o),
(5266,432,c),
(5264,429,o),
(5263,425,o),
(5262,422,c),
(5264,428,o),
(5267,432,o),
(5270,437,c),
(5273,441,o),
(5263,429,o),
(5268,435,c),
(5283,450,o),
(5279,448,o),
(5303,459,c),
(5300,458,o),
(5297,457,o),
(5293,455,c),
(5307,461,o),
(5320,464,o),
(5335,467,c),
(5324,465,l),
(5341,467,o),
(5357,467,o),
(5374,465,c),
(5371,466,o),
(5367,466,o),
(5363,466,c),
(5378,464,o),
(5392,460,o),
(5406,455,c),
(5403,456,o),
(5400,457,o),
(5397,459,c),
(5424,445,o),
(5425,445,o),
(5442,425,c),
(5462,389,o),
(5536,413,o),
(5510,468,c)
);
},
{
closed = 1;
nodes = (
(3725,824,o),
(3574,842,o),
(3519,748,c),
(3465,661,o),
(3488,554,o),
(3476,457,c),
(3476,460,o),
(3477,464,o),
(3477,468,c),
(3470,233,o),
(3462,-2,o),
(3457,-237,c),
(3470,-224,o),
(3484,-210,o),
(3497,-197,c),
(3496,-197,l),
(3500,-197,o),
(3504,-198,o),
(3507,-198,c),
(3507,-198,o),
(3507,-198,o),
(3506,-198,c),
(3509,-199,o),
(3513,-201,o),
(3516,-202,c),
(3516,-202,o),
(3515,-202,o),
(3515,-201,c),
(3520,-206,o),
(3525,-211,o),
(3530,-216,c),
(3491,-157,o),
(3416,-235,o),
(3475,-272,c),
(3501,-288,o),
(3538,-269,o),
(3538,-237,c),
(3540,-10,o),
(3557,218,o),
(3555,445,c),
(3554,442,o),
(3554,438,o),
(3553,435,c),
(3565,503,o),
(3557,572,o),
(3566,641,c),
(3566,637,o),
(3565,633,o),
(3565,630,c),
(3568,651,o),
(3572,672,o),
(3580,692,c),
(3579,689,o),
(3578,686,o),
(3576,682,c),
(3581,693,o),
(3587,703,o),
(3593,713,c),
(3596,717,o),
(3588,706,o),
(3591,710,c),
(3595,714,o),
(3599,719,o),
(3603,723,c),
(3604,724,o),
(3608,727,o),
(3603,723,c),
(3596,718,o),
(3607,725,o),
(3609,725,c),
(3606,724,o),
(3603,722,o),
(3599,721,c),
(3610,726,o),
(3622,729,o),
(3633,730,c),
(3630,730,o),
(3626,729,o),
(3623,729,c),
(3637,731,o),
(3651,731,o),
(3665,729,c),
(3662,729,o),
(3658,730,o),
(3655,730,c),
(3669,728,o),
(3683,724,o),
(3697,719,c),
(3694,720,o),
(3691,722,o),
(3687,723,c),
(3699,718,o),
(3710,712,o),
(3719,705,c),
(3718,706,o),
(3716,707,o),
(3715,708,c),
(3753,652,o),
(3829,690,o),
(3790,749,c)
);
},
{
closed = 1;
nodes = (
(3501,436,o),
(3597,434,o),
(3693,440,c),
(3714,441,o),
(3734,458,o),
(3733,481,c),
(3732,501,o),
(3715,522,o),
(3693,521,c),
(3597,515,o),
(3501,517,o),
(3406,506,c),
(3353,507,o),
(3353,424,o),
(3406,425,c)
);
},
{
closed = 1;
nodes = (
(4339,478,o),
(4313,292,o),
(4344,111,c),
(4392,-135,o),
(4642,85,o),
(4578,137,c),
(4522,182,o),
(4489,82,o),
(4449,76,c),
(4453,78,o),
(4456,79,o),
(4459,81,c),
(4453,78,o),
(4448,77,o),
(4442,76,c),
(4445,76,o),
(4449,77,o),
(4453,77,c),
(4449,77,o),
(4444,77,o),
(4440,77,c),
(4444,77,o),
(4448,76,o),
(4451,76,c),
(4448,76,o),
(4444,77,o),
(4441,78,c),
(4444,77,o),
(4447,76,o),
(4451,74,c),
(4447,76,o),
(4445,77,o),
(4442,79,c),
(4444,78,o),
(4451,72,o),
(4445,77,c),
(4444,78,o),
(4442,80,o),
(4441,81,c),
(4435,87,o),
(4447,73,o),
(4442,79,c),
(4438,86,o),
(4434,93,o),
(4431,100,c),
(4432,97,o),
(4434,94,o),
(4435,91,c),
(4425,115,o),
(4420,140,o),
(4417,166,c),
(4417,162,o),
(4418,159,o),
(4418,155,c),
(4401,305,o),
(4418,456,o),
(4436,605,c),
(4436,602,o),
(4435,598,o),
(4435,595,c),
(4436,619,o),
(4449,645,o),
(4437,669,c),
(4421,699,o),
(4370,693,o),
(4363,659,c)
);
},
{
closed = 1;
nodes = (
(4364,424,o),
(4452,435,o),
(4540,438,c),
(4561,439,o),
(4581,456,o),
(4580,479,c),
(4579,500,o),
(4563,520,o),
(4540,519,c),
(4458,517,o),
(4377,506,o),
(4296,516,c),
(4299,516,o),
(4303,515,o),
(4306,515,c),
(4252,534,o),
(4221,456,o),
(4277,438,c)
);
},
{
closed = 1;
nodes = (
(5650,683,o),
(5724,631,o),
(5758,681,c),
(5792,724,o),
(5760,794,o),
(5702,778,c),
(5627,763,o),
(5654,618,o),
(5733,665,c),
(5801,699,o),
(5764,780,o),
(5695,774,c),
(5640,764,o),
(5655,693,o),
(5707,691,c),
(5704,692,o),
(5701,694,o),
(5697,695,c),
(5700,694,o),
(5702,693,o),
(5704,691,c),
(5701,693,o),
(5698,696,o),
(5696,698,c),
(5697,697,o),
(5698,696,o),
(5698,695,c),
(5696,698,o),
(5694,701,o),
(5692,703,c),
(5693,703,o),
(5693,702,o),
(5693,701,c),
(5692,704,o),
(5691,707,o),
(5689,711,c),
(5690,710,o),
(5690,709,o),
(5690,708,c),
(5689,712,o),
(5689,716,o),
(5688,719,c),
(5689,718,o),
(5688,718,o),
(5688,717,c),
(5689,720,o),
(5689,724,o),
(5690,728,c),
(5690,727,o),
(5689,726,o),
(5689,725,c),
(5691,728,o),
(5692,732,o),
(5693,735,c),
(5693,734,o),
(5692,732,o),
(5691,731,c),
(5693,734,o),
(5695,737,o),
(5697,739,c),
(5696,737,o),
(5694,736,o),
(5692,734,c),
(5695,736,o),
(5697,738,o),
(5700,740,c),
(5697,738,o),
(5693,736,o),
(5689,734,c),
(5699,738,l),
(5696,737,o),
(5694,736,o),
(5692,736,c),
(5707,729,o),
(5722,723,o),
(5737,717,c),
(5737,718,l),
(5738,714,o),
(5740,711,o),
(5741,708,c),
(5739,713,o),
(5738,717,o),
(5737,722,c),
(5737,719,o),
(5738,715,o),
(5738,711,c),
(5738,715,o),
(5738,718,o),
(5738,721,c),
(5738,718,o),
(5737,714,o),
(5737,710,c),
(5737,713,o),
(5738,715,o),
(5739,717,c),
(5737,714,o),
(5736,711,o),
(5735,707,c),
(5735,709,o),
(5736,711,o),
(5737,712,c),
(5735,709,o),
(5733,707,o),
(5731,704,c),
(5732,705,o),
(5733,706,o),
(5735,707,c),
(5732,705,o),
(5729,703,o),
(5726,701,c),
(5728,702,o),
(5729,703,o),
(5731,704,c),
(5727,702,o),
(5724,701,o),
(5721,699,c),
(5723,700,o),
(5724,701,o),
(5726,701,c),
(5722,700,o),
(5719,700,o),
(5715,699,c),
(5717,699,o),
(5718,699,o),
(5719,699,c),
(5716,700,o),
(5712,700,o),
(5708,701,c),
(5710,701,o),
(5711,700,o),
(5713,700,c),
(5710,701,o),
(5706,702,o),
(5703,704,c),
(5704,703,o),
(5705,703,o),
(5706,702,c),
(5703,704,o),
(5701,706,o),
(5698,708,c),
(5699,708,o),
(5699,707,o),
(5700,706,c),
(5698,709,o),
(5696,711,o),
(5694,714,c),
(5695,713,o),
(5695,712,o),
(5696,711,c),
(5694,714,o),
(5693,717,o),
(5692,721,c),
(5692,719,o),
(5692,718,o),
(5693,717,c),
(5692,720,o),
(5692,724,o),
(5691,727,c),
(5691,725,o),
(5691,723,o),
(5691,721,c),
(5692,725,o),
(5692,729,o),
(5693,732,c),
(5692,729,o),
(5691,726,o),
(5690,723,c),
(5691,726,o),
(5693,729,o),
(5694,732,c),
(5692,729,o),
(5690,725,o),
(5688,722,c),
(5700,729,o),
(5711,735,o),
(5723,742,c),
(5722,742,o),
(5721,742,o),
(5720,742,c),
(5724,742,o),
(5727,741,o),
(5731,741,c),
(5729,741,o),
(5726,742,o),
(5724,742,c),
(5734,738,l),
(5732,739,o),
(5731,740,o),
(5729,741,c),
(5732,739,o),
(5735,737,o),
(5738,735,c),
(5736,736,o),
(5735,737,o),
(5734,738,c),
(5737,735,o),
(5739,732,o),
(5741,730,c),
(5740,731,o),
(5739,733,o),
(5738,735,c),
(5739,731,o),
(5741,728,o),
(5742,725,c),
(5741,728,o),
(5740,730,o),
(5740,733,c),
(5740,730,o),
(5741,726,o),
(5741,722,c),
(5751,782,o),
(5664,796,o),
(5660,735,c)
);
},
{
closed = 1;
nodes = (
(5650,316,o),
(5674,119,o),
(5646,-73,c),
(5647,-70,o),
(5647,-66,o),
(5648,-62,c),
(5642,-101,o),
(5636,-142,o),
(5621,-178,c),
(5622,-175,o),
(5623,-172,o),
(5625,-168,c),
(5622,-177,o),
(5614,-188,o),
(5610,-195,c),
(5610,-195,o),
(5618,-186,o),
(5614,-190,c),
(5611,-193,o),
(5609,-195,o),
(5607,-197,c),
(5603,-200,o),
(5616,-191,o),
(5612,-193,c),
(5610,-195,o),
(5607,-196,o),
(5604,-197,c),
(5608,-196,o),
(5611,-195,o),
(5614,-193,c),
(5611,-195,o),
(5608,-195,o),
(5604,-196,c),
(5615,-194,l),
(5612,-195,o),
(5609,-195,o),
(5606,-194,c),
(5610,-195,o),
(5613,-195,o),
(5617,-196,c),
(5612,-195,o),
(5608,-194,o),
(5603,-192,c),
(5607,-193,o),
(5610,-195,o),
(5613,-196,c),
(5594,-187,o),
(5587,-179,o),
(5565,-152,c),
(5562,-149,o),
(5563,-149,o),
(5566,-154,c),
(5541,-102,o),
(5465,-138,o),
(5492,-189,c),
(5580,-322,o),
(5692,-294,o),
(5717,-138,c),
(5756,66,o),
(5735,274,o),
(5752,480,c),
(5751,476,o),
(5751,473,o),
(5750,469,c),
(5776,527,o),
(5701,569,o),
(5675,508,c)
);
},
{
closed = 1;
nodes = (
(5962,709,o),
(5735,124,o),
(6028,-1,c),
(6276,-58,o),
(6303,293,o),
(6315,464,c),
(6316,476,o),
(6316,489,o),
(6316,501,c),
(6318,535,o),
(6271,555,o),
(6247,529,c),
(6240,521,o),
(6236,512,o),
(6235,501,c),
(6227,412,o),
(6217,323,o),
(6216,233,c),
(6206,84,o),
(6265,-115,o),
(6426,59,c),
(6463,96,o),
(6405,153,o),
(6369,116,c),
(6358,103,o),
(6346,91,o),
(6333,81,c),
(6333,81,o),
(6341,87,o),
(6337,84,c),
(6330,79,o),
(6324,75,o),
(6316,72,c),
(6320,73,o),
(6323,75,o),
(6326,76,c),
(6322,74,o),
(6317,73,o),
(6312,72,c),
(6316,73,o),
(6319,73,o),
(6323,73,c),
(6319,73,o),
(6316,73,o),
(6312,73,c),
(6316,73,o),
(6319,72,o),
(6323,72,c),
(6320,72,o),
(6317,73,o),
(6314,74,c),
(6318,73,o),
(6321,72,o),
(6324,70,c),
(6322,71,o),
(6320,73,o),
(6317,74,c),
(6332,65,o),
(6321,71,o),
(6318,75,c),
(6314,79,o),
(6325,65,o),
(6320,72,c),
(6317,77,o),
(6314,83,o),
(6312,88,c),
(6313,85,o),
(6314,82,o),
(6316,79,c),
(6308,97,o),
(6304,118,o),
(6301,138,c),
(6302,134,o),
(6302,130,o),
(6303,127,c),
(6289,251,o),
(6305,377,o),
(6316,501,c),
(6235,501,l),
(6234,448,o),
(6231,395,o),
(6224,343,c),
(6224,346,o),
(6225,350,o),
(6225,354,c),
(6216,286,o),
(6201,219,o),
(6174,156,c),
(6176,159,o),
(6177,163,o),
(6178,166,c),
(6170,146,o),
(6160,126,o),
(6150,107,c),
(6147,103,o),
(6148,104,o),
(6152,109,c),
(6150,106,o),
(6124,83,o),
(6138,95,c),
(6129,88,o),
(6118,82,o),
(6108,78,c),
(6111,79,o),
(6114,80,o),
(6117,82,c),
(6106,77,o),
(6094,74,o),
(6082,72,c),
(6093,74,l),
(6082,72,o),
(6070,72,o),
(6059,74,c),
(6063,73,o),
(6066,73,o),
(6070,72,c),
(6059,74,o),
(6049,77,o),
(6040,81,c),
(6043,79,o),
(6046,78,o),
(6049,77,c),
(6025,88,o),
(6024,89,o),
(6006,109,c),
(6014,101,o),
(6010,105,o),
(6008,107,c),
(6001,116,o),
(5996,126,o),
(5992,136,c),
(5993,133,o),
(5994,130,o),
(5996,127,c),
(5986,150,o),
(5980,175,o),
(5976,201,c),
(5977,197,o),
(5977,193,o),
(5978,190,c),
(5974,218,o),
(5974,246,o),
(5978,274,c),
(5977,271,o),
(5977,267,o),
(5976,263,c),
(5980,291,o),
(5988,318,o),
(5998,344,c),
(5997,340,o),
(5996,337,o),
(5994,334,c),
(6003,354,o),
(6013,373,o),
(6026,390,c),
(6030,396,o),
(6026,390,o),
(6024,388,c),
(6051,420,o),
(6060,427,o),
(6095,444,c),
(6085,440,l),
(6099,446,o),
(6112,450,o),
(6127,452,c),
(6116,450,l),
(6130,452,o),
(6145,452,o),
(6160,451,c),
(6149,452,l),
(6167,450,o),
(6184,445,o),
(6200,438,c),
(6197,439,o),
(6194,441,o),
(6190,442,c),
(6219,434,o),
(6241,401,o),
(6273,409,c),
(6307,417,o),
(6312,465,o),
(6282,483,c)
);
},
{
closed = 1;
nodes = (
(6471,638,o),
(6403,-98,o),
(6822,-13,c),
(6955,16,o),
(7031,155,o),
(7009,284,c),
(7003,379,o),
(6957,487,o),
(6858,514,c),
(6792,523,o),
(6790,437,o),
(6853,430,c),
(6850,431,o),
(6847,432,o),
(6843,434,c),
(6882,414,o),
(6890,402,o),
(6912,357,c),
(6910,361,o),
(6909,364,o),
(6908,367,c),
(6918,342,o),
(6925,316,o),
(6928,289,c),
(6928,293,o),
(6927,296,o),
(6927,300,c),
(6929,267,o),
(6933,234,o),
(6929,202,c),
(6930,205,o),
(6930,209,o),
(6931,212,c),
(6928,193,o),
(6923,175,o),
(6916,157,c),
(6917,160,o),
(6918,164,o),
(6920,167,c),
(6902,129,o),
(6895,121,o),
(6864,94,c),
(6865,95,o),
(6872,100,o),
(6868,96,c),
(6854,86,o),
(6839,78,o),
(6824,71,c),
(6827,73,o),
(6830,74,o),
(6833,75,c),
(6816,68,o),
(6799,64,o),
(6781,61,c),
(6792,63,l),
(6774,60,o),
(6756,60,o),
(6738,63,c),
(6748,61,l),
(6730,64,o),
(6713,69,o),
(6696,76,c),
(6699,74,o),
(6703,73,o),
(6706,72,c),
(6690,78,o),
(6675,87,o),
(6662,97,c),
(6658,100,o),
(6659,99,o),
(6664,95,c),
(6663,96,o),
(6659,100,o),
(6658,100,c),
(6662,95,o),
(6662,94,o),
(6661,96,c),
(6649,111,o),
(6640,128,o),
(6632,145,c),
(6634,142,o),
(6635,139,o),
(6636,136,c),
(6627,158,o),
(6621,182,o),
(6618,206,c),
(6619,195,l),
(6616,223,o),
(6616,251,o),
(6620,278,c),
(6619,275,o),
(6619,271,o),
(6618,268,c),
(6622,295,o),
(6629,321,o),
(6640,346,c),
(6638,343,o),
(6637,340,o),
(6635,337,c),
(6644,356,o),
(6654,374,o),
(6666,391,c),
(6670,396,o),
(6664,388,o),
(6664,388,c),
(6673,401,o),
(6685,413,o),
(6698,423,c),
(6696,422,o),
(6690,417,o),
(6696,421,c),
(6706,428,o),
(6718,435,o),
(6730,440,c),
(6726,439,o),
(6723,437,o),
(6720,436,c),
(6734,442,o),
(6748,446,o),
(6762,448,c),
(6751,446,l),
(6767,448,o),
(6782,448,o),
(6798,446,c),
(6787,448,l),
(6804,445,o),
(6820,441,o),
(6836,435,c),
(6886,421,o),
(6908,499,o),
(6858,514,c)
);
},
{
closed = 1;
nodes = (
(6649,607,o),
(6700,574,o),
(6733,612,c),
(6765,655,o),
(6716,729,o),
(6665,698,c),
(6639,683,o),
(6628,646,o),
(6650,623,c),
(6671,600,o),
(6722,612,o),
(6732,659,c),
(6740,703,o),
(6675,722,o),
(6655,682,c),
(6657,685,o),
(6659,687,o),
(6662,690,c),
(6659,687,o),
(6657,684,o),
(6654,682,c),
(6657,684,o),
(6659,686,o),
(6662,688,c),
(6662,688,o),
(6661,687,o),
(6660,687,c),
(6670,691,l),
(6670,691,o),
(6669,691,o),
(6669,691,c),
(6680,692,l),
(6680,692,o),
(6680,692,o),
(6680,692,c),
(6683,692,o),
(6687,691,o),
(6690,691,c),
(6690,691,o),
(6690,691,o),
(6690,691,c),
(6693,690,o),
(6696,688,o),
(6700,687,c),
(6700,687,o),
(6700,687,o),
(6700,687,c),
(6702,685,o),
(6705,683,o),
(6708,681,c),
(6708,681,o),
(6708,681,o),
(6708,681,c),
(6714,673,l),
(6714,673,o),
(6714,673,o),
(6714,673,c),
(6715,670,o),
(6716,666,o),
(6718,663,c),
(6718,663,o),
(6718,664,o),
(6718,664,c),
(6718,660,o),
(6719,657,o),
(6719,653,c),
(6719,653,o),
(6719,654,o),
(6719,654,c),
(6719,650,o),
(6718,647,o),
(6718,643,c),
(6718,644,o),
(6718,644,o),
(6718,645,c),
(6717,642,o),
(6716,639,o),
(6714,635,c),
(6715,637,o),
(6715,638,o),
(6716,639,c),
(6714,636,o),
(6712,633,o),
(6710,631,c),
(6711,632,o),
(6712,633,o),
(6713,633,c),
(6710,631,o),
(6707,629,o),
(6705,627,c),
(6705,628,o),
(6706,628,o),
(6707,629,c),
(6704,627,o),
(6700,626,o),
(6697,624,c),
(6698,625,o),
(6699,625,o),
(6699,625,c),
(6696,625,o),
(6692,624,o),
(6689,624,c),
(6690,624,o),
(6691,624,o),
(6692,624,c),
(6681,625,l),
(6682,625,o),
(6682,625,o),
(6683,624,c),
(6674,628,l),
(6674,628,o),
(6675,628,o),
(6675,627,c),
(6673,629,o),
(6670,632,o),
(6667,634,c),
(6668,633,o),
(6669,632,o),
(6669,632,c),
(6663,640,l),
(6664,639,o),
(6664,638,o),
(6665,637,c),
(6663,640,o),
(6662,643,o),
(6661,646,c),
(6662,644,o),
(6662,642,o),
(6663,639,c),
(6662,643,o),
(6662,647,o),
(6661,650,c),
(6662,647,o),
(6662,643,o),
(6661,640,c),
(6662,643,o),
(6662,647,o),
(6663,650,c),
(6662,650,o),
(6662,649,o),
(6662,648,c),
(6675,658,o),
(6688,668,o),
(6701,677,c),
(6699,677,o),
(6698,677,o),
(6696,677,c),
(6709,667,o),
(6722,657,o),
(6735,648,c),
(6742,718,o),
(6644,725,o),
(6653,653,c)
);
},
{
closed = 1;
nodes = (
(6853,577,o),
(6958,569,o),
(6965,647,c),
(6966,688,o),
(6916,720,o),
(6883,694,c),
(6846,668,o),
(6879,608,o),
(6921,623,c),
(6917,623,o),
(6914,622,o),
(6910,622,c),
(6911,622,o),
(6912,622,o),
(6913,622,c),
(6909,622,o),
(6905,623,o),
(6902,623,c),
(6903,623,o),
(6904,623,o),
(6904,623,c),
(6901,624,o),
(6898,626,o),
(6895,627,c),
(6896,626,o),
(6897,626,o),
(6898,625,c),
(6895,627,o),
(6892,629,o),
(6890,631,c),
(6890,631,o),
(6891,630,o),
(6892,629,c),
(6886,637,l),
(6887,636,o),
(6887,635,o),
(6888,633,c),
(6887,636,o),
(6885,640,o),
(6884,643,c),
(6885,641,o),
(6885,640,o),
(6885,638,c),
(6885,642,o),
(6884,645,o),
(6884,649,c),
(6884,648,o),
(6884,646,o),
(6884,645,c),
(6884,649,o),
(6885,652,o),
(6885,656,c),
(6885,655,o),
(6885,653,o),
(6884,652,c),
(6886,655,o),
(6887,659,o),
(6888,662,c),
(6888,661,o),
(6887,660,o),
(6887,659,c),
(6893,667,l),
(6893,667,o),
(6892,666,o),
(6891,665,c),
(6894,668,o),
(6897,670,o),
(6899,672,c),
(6898,671,o),
(6897,670,o),
(6896,670,c),
(6899,671,o),
(6902,673,o),
(6906,674,c),
(6904,673,o),
(6902,673,o),
(6901,673,c),
(6911,674,l),
(6910,674,o),
(6910,674,o),
(6909,674,c),
(6949,633,l),
(6962,704,o),
(6881,733,o),
(6867,662,c)
);
},
{
closed = 1;
nodes = (
(3935,497,o),
(3857,101,o),
(3984,6,c),
(4041,-28,o),
(4103,20,o),
(4141,61,c),
(4180,116,o),
(4110,164,o),
(4058,94,c),
(4052,88,o),
(4047,84,o),
(4028,75,c),
(4031,76,o),
(4035,77,o),
(4038,79,c),
(4033,77,o),
(4027,75,o),
(4021,74,c),
(4025,75,o),
(4029,75,o),
(4032,76,c),
(4028,75,o),
(4025,75,o),
(4021,76,c),
(4024,75,o),
(4028,75,o),
(4032,74,c),
(4028,75,o),
(4025,75,o),
(4021,77,c),
(4025,75,o),
(4028,74,o),
(4031,73,c),
(4026,74,o),
(4016,85,o),
(4029,72,c),
(4026,75,o),
(4024,77,o),
(4021,80,c),
(4017,85,o),
(4028,71,o),
(4023,77,c),
(4019,83,o),
(4016,90,o),
(4013,97,c),
(4014,93,o),
(4016,90,o),
(4017,87,c),
(4008,110,o),
(4003,134,o),
(3999,159,c),
(4000,155,o),
(4000,151,o),
(4001,148,c),
(3981,314,o),
(4007,481,o),
(4018,646,c),
(4019,699,o),
(3937,699,o),
(3937,646,c)
);
},
{
closed = 1;
nodes = (
(3946,430,o),
(4038,431,o),
(4129,432,c),
(4182,432,o),
(4182,514,o),
(4129,513,c),
(4038,512,o),
(3946,511,o),
(3854,514,c),
(3802,514,o),
(3802,433,o),
(3854,433,c)
);
}
);
};
layerId = "24E42343-34B9-466A-853D-1E1F473403F4";
name = "Original variations";
shapes = (
{
closed = 1;
nodes = (
(197,241,o),
(310,485,o),
(415,732,c),
(341,741,l),
(435,497,o),
(498,241,o),
(614,5,cs),
(620,-8,o),
(635,-14,o),
(649,-14,cs),
(656,-14,o),
(663,-13,o),
(669,-9,cs),
(682,0,o),
(687,12,o),
(687,26,cs),
(687,64,o),
(644,114,o),
(637,149,c),
(641,139,ls),
(650,115,o),
(655,106,o),
(655,107,cs),
(655,115,o),
(517,487,o),
(469,626,c),
(450,663,o),
(429,794,o),
(380,794,cs),
(370,794,o),
(358,788,o),
(345,773,c),
(263,580,o),
(177,390,o),
(85,202,cs),
(59,149,o),
(33,96,o),
(6,43,cs),
(2,36,o),
(0,29,o),
(0,23,cs),
(0,0,o),
(22,-18,o),
(44,-18,cs),
(56,-18,o),
(68,-12,o),
(76,2,cs)
);
},
{
closed = 1;
nodes = (
(276,252,o),
(364,256,o),
(452,256,cs),
(476,256,o),
(500,256,o),
(524,255,cs),
(551,255,o),
(564,275,o),
(564,295,cs),
(564,316,o),
(551,336,o),
(524,336,cs),
(500,337,o),
(476,337,o),
(452,337,cs),
(364,337,o),
(276,333,o),
(188,324,c),
(166,324,o),
(147,306,o),
(147,284,cs),
(148,264,o),
(165,241,o),
(188,243,cs)
);
},
{
closed = 1;
nodes = (
(1172,187,o),
(1262,376,o),
(1344,569,cs),
(1368,625,o),
(1391,682,o),
(1414,739,c),
(1415,743,o),
(1416,746,o),
(1416,750,cs),
(1416,771,o),
(1397,791,o),
(1375,790,c),
(1340,784,o),
(1329,763,o),
(1329,738,cs),
(1329,701,o),
(1354,654,o),
(1366,624,cs),
(1387,576,o),
(1407,527,o),
(1427,478,cs),
(1491,327,o),
(1554,175,o),
(1618,23,c),
(1623,3,o),
(1639,-6,o),
(1655,-6,cs),
(1676,-6,o),
(1698,9,o),
(1698,32,cs),
(1698,36,o),
(1697,40,o),
(1696,44,c),
(1601,276,o),
(1499,506,o),
(1408,739,c),
(1408,736,o),
(1409,724,o),
(1409,728,cs),
(1409,737,l),
(1408,734,o),
(1407,725,o),
(1407,725,c),
(1407,726,l),
(1409,733,ls),
(1410,737,o),
(1406,726,o),
(1405,723,c),
(1407,726,o),
(1406,725,o),
(1401,719,c),
(1404,721,l),
(1336,760,l),
(1282,628,l),
(1283,632,o),
(1285,635,o),
(1286,638,cs),
(1201,436,o),
(1107,237,o),
(1004,43,cs),
(1000,36,o),
(998,29,o),
(998,23,cs),
(998,0,o),
(1020,-18,o),
(1042,-18,cs),
(1054,-18,o),
(1066,-12,o),
(1074,2,cs)
);
},
{
closed = 1;
nodes = (
(1541,268,l),
(1568,268,o),
(1581,288,o),
(1581,309,cs),
(1581,329,o),
(1568,349,o),
(1541,349,c),
(1204,331,l),
(1178,331,o),
(1165,311,o),
(1165,290,cs),
(1165,270,o),
(1178,250,o),
(1204,250,c)
);
},
{
closed = 1;
nodes = (
(2185,247,o),
(2291,495,o),
(2394,743,c),
(2316,743,l),
(2382,545,o),
(2463,351,o),
(2558,164,cs),
(2584,112,o),
(2611,61,o),
(2640,10,cs),
(2647,-2,o),
(2661,-10,o),
(2675,-10,cs),
(2682,-10,o),
(2689,-8,o),
(2695,-4,cs),
(2708,4,o),
(2715,17,o),
(2715,31,cs),
(2715,38,o),
(2714,45,o),
(2710,51,cs),
(2634,187,o),
(2565,327,o),
(2504,470,c),
(2506,467,o),
(2507,464,o),
(2509,460,cs),
(2476,538,o),
(2445,617,o),
(2417,697,c),
(2403,729,o),
(2396,795,o),
(2356,795,cs),
(2350,795,o),
(2342,793,o),
(2334,789,cs),
(2324,784,o),
(2320,775,o),
(2316,765,cs),
(2287,696,o),
(2259,627,o),
(2230,558,c),
(2231,562,o),
(2232,565,o),
(2234,568,c),
(2159,392,o),
(2083,217,o),
(2005,42,c),
(2001,35,o),
(1999,28,o),
(1999,22,cs),
(1999,-1,o),
(2021,-18,o),
(2043,-18,cs),
(2055,-18,o),
(2067,-12,o),
(2075,2,c)
);
},
{
closed = 1;
nodes = (
(2255,259,o),
(2288,260,o),
(2322,260,cs),
(2387,260,o),
(2453,256,o),
(2518,249,c),
(2544,249,o),
(2557,269,o),
(2557,290,cs),
(2557,310,o),
(2544,330,o),
(2518,330,cs),
(2489,330,o),
(2389,343,o),
(2305,343,cs),
(2234,343,o),
(2174,334,o),
(2180,298,c),
(2181,277,o),
(2198,256,o),
(2221,257,cs)
);
},
{
closed = 1;
nodes = (
(3186,250,o),
(3291,495,o),
(3386,744,c),
(3307,744,l),
(3380,539,o),
(3467,339,o),
(3568,146,cs),
(3596,92,o),
(3625,39,o),
(3656,-13,cs),
(3663,-26,o),
(3677,-34,o),
(3692,-34,cs),
(3698,-34,o),
(3705,-32,o),
(3711,-28,cs),
(3724,-20,o),
(3731,-6,o),
(3731,8,cs),
(3731,14,o),
(3730,21,o),
(3726,27,cs),
(3633,188,o),
(3550,354,o),
(3478,525,c),
(3480,522,o),
(3481,519,o),
(3482,516,cs),
(3448,598,o),
(3415,681,o),
(3386,766,c),
(3381,785,o),
(3364,795,o),
(3347,795,cs),
(3330,795,o),
(3313,785,o),
(3307,766,cs),
(3268,661,o),
(3226,557,o),
(3183,455,cs),
(3184,458,o),
(3185,461,o),
(3187,464,c),
(3128,325,o),
(3066,187,o),
(3001,51,cs),
(2997,44,o),
(2995,37,o),
(2995,31,cs),
(2995,8,o),
(3017,-10,o),
(3039,-10,cs),
(3051,-10,o),
(3063,-4,o),
(3071,10,c)
);
},
{
closed = 1;
nodes = (
(3241,242,ls),
(3319,242,o),
(3397,244,o),
(3475,247,c),
(3514,254,o),
(3590,234,o),
(3594,292,c),
(3593,313,o),
(3577,334,o),
(3554,333,cs),
(3460,327,o),
(3367,323,o),
(3273,323,cs),
(3193,323,ls),
(3167,323,o),
(3154,303,o),
(3154,283,cs),
(3154,262,o),
(3167,242,o),
(3193,242,cs)
);
},
{
closed = 1;
nodes = (
(4193,253,o),
(4301,494,o),
(4401,738,c),
(4323,738,l),
(4389,478,o),
(4501,233,o),
(4613,-10,cs),
(4620,-24,o),
(4634,-30,o),
(4648,-30,cs),
(4665,-30,o),
(4683,-20,o),
(4687,-1,c),
(4662,112,o),
(4589,216,o),
(4550,327,c),
(4552,323,o),
(4553,320,o),
(4555,317,c),
(4507,429,o),
(4464,543,o),
(4428,660,c),
(4408,700,o),
(4417,785,o),
(4362,789,c),
(4313,789,o),
(4299,683,o),
(4275,645,cs),
(4277,649,o),
(4278,652,o),
(4279,655,cs),
(4194,453,o),
(4103,253,o),
(4007,56,cs),
(4003,49,o),
(4001,42,o),
(4001,36,cs),
(4001,13,o),
(4023,-5,o),
(4045,-5,cs),
(4057,-5,o),
(4069,1,o),
(4077,15,cs)
);
},
{
closed = 1;
nodes = (
(4201,261,o),
(4218,263,o),
(4234,265,c),
(4231,265,o),
(4227,264,o),
(4223,264,c),
(4276,271,o),
(4329,275,o),
(4383,275,cs),
(4432,275,o),
(4482,272,o),
(4531,266,cs),
(4552,265,o),
(4572,286,o),
(4571,307,cs),
(4572,329,o),
(4553,346,o),
(4531,347,cs),
(4497,351,o),
(4430,356,o),
(4360,356,cs),
(4267,356,o),
(4169,347,o),
(4139,317,c),
(4135,311,o),
(4134,304,o),
(4134,298,cs),
(4134,276,o),
(4152,256,o),
(4174,256,cs),
(4178,256,o),
(4181,257,o),
(4185,258,cs)
);
},
{
closed = 1;
nodes = (
(5194,229,o),
(5314,470,o),
(5421,717,c),
(5347,726,l),
(5419,485,o),
(5506,247,o),
(5607,16,c),
(5614,3,o),
(5628,-3,o),
(5641,-3,cs),
(5659,-3,o),
(5677,7,o),
(5681,26,c),
(5685,61,o),
(5658,91,o),
(5648,124,c),
(5650,120,o),
(5651,117,o),
(5652,114,cs),
(5584,275,o),
(5523,439,o),
(5469,606,cs),
(5454,653,o),
(5439,700,o),
(5425,748,cs),
(5420,767,o),
(5402,777,o),
(5384,777,cs),
(5371,777,o),
(5358,771,o),
(5351,758,c),
(5267,565,o),
(5176,377,o),
(5078,192,cs),
(5050,140,o),
(5021,88,o),
(4992,36,cs),
(4988,29,o),
(4986,22,o),
(4986,16,cs),
(4986,-7,o),
(5008,-25,o),
(5030,-25,cs),
(5042,-25,o),
(5054,-19,o),
(5062,-5,cs)
);
},
{
closed = 1;
nodes = (
(5260,252,o),
(5319,254,o),
(5379,254,cs),
(5424,254,o),
(5469,253,o),
(5514,251,c),
(5535,252,o),
(5565,245,o),
(5591,245,cs),
(5618,245,o),
(5640,253,o),
(5643,286,c),
(5642,309,o),
(5625,324,o),
(5602,326,cs),
(5525,332,o),
(5447,335,o),
(5369,335,cs),
(5342,335,o),
(5316,335,o),
(5289,334,c),
(5280,332,o),
(5269,332,o),
(5258,332,cs),
(5215,332,o),
(5165,336,o),
(5160,289,c),
(5161,268,o),
(5178,247,o),
(5201,249,cs)
);
},
{
closed = 1;
nodes = (
(8251,255,o),
(8354,494,o),
(8438,738,c),
(8360,738,l),
(8428,480,o),
(8524,230,o),
(8645,-8,cs),
(8653,-22,o),
(8665,-28,o),
(8677,-28,cs),
(8699,-28,o),
(8721,-10,o),
(8721,13,cs),
(8721,19,o),
(8719,26,o),
(8715,33,cs),
(8675,111,o),
(8638,192,o),
(8603,273,c),
(8605,270,o),
(8606,267,o),
(8607,263,c),
(8539,425,o),
(8483,591,o),
(8438,760,cs),
(8434,776,o),
(8417,790,o),
(8399,790,cs),
(8380,789,o),
(8366,777,o),
(8360,760,cs),
(8329,667,o),
(8293,575,o),
(8255,485,c),
(8257,488,o),
(8258,491,o),
(8259,494,cs),
(8198,350,o),
(8130,208,o),
(8050,73,cs),
(8046,66,o),
(8044,59,o),
(8044,53,cs),
(8044,30,o),
(8066,12,o),
(8088,12,cs),
(8100,12,o),
(8112,18,o),
(8120,32,cs)
);
},
{
closed = 1;
nodes = (
(8284,252,o),
(8390,258,o),
(8495,259,c),
(8514,262,o),
(8541,257,o),
(8566,257,cs),
(8596,257,o),
(8622,264,o),
(8625,299,c),
(8624,321,o),
(8607,339,o),
(8584,339,cs),
(8563,339,o),
(8542,340,o),
(8521,340,cs),
(8437,340,o),
(8353,336,o),
(8269,330,c),
(8230,323,o),
(8184,332,o),
(8151,310,c),
(8143,303,o),
(8140,293,o),
(8140,283,cs),
(8140,261,o),
(8156,239,o),
(8180,241,cs)
);
},
{
closed = 1;
nodes = (
(6289,251,o),
(6403,492,o),
(6516,733,c),
(6442,742,l),
(6519,543,o),
(6616,352,o),
(6708,158,c),
(6733,120,o),
(6772,-15,o),
(6807,-23,cs),
(6811,-24,o),
(6814,-25,o),
(6818,-25,cs),
(6840,-25,o),
(6858,-5,o),
(6858,17,cs),
(6858,23,o),
(6857,30,o),
(6853,36,c),
(6816,120,o),
(6777,202,o),
(6737,284,cs),
(6675,412,o),
(6613,540,o),
(6557,672,c),
(6558,668,o),
(6560,665,o),
(6561,662,c),
(6543,696,o),
(6524,795,o),
(6482,795,cs),
(6471,795,o),
(6460,789,o),
(6446,774,c),
(6402,680,o),
(6358,586,o),
(6313,492,cs),
(6106,51,ls),
(6102,44,o),
(6100,38,o),
(6100,31,cs),
(6100,9,o),
(6122,-9,o),
(6144,-9,cs),
(6156,-9,o),
(6168,-3,o),
(6176,11,c)
);
},
{
closed = 1;
nodes = (
(6384,259,o),
(6494,265,o),
(6604,268,c),
(6610,269,o),
(6618,269,o),
(6625,269,cs),
(6641,269,o),
(6658,268,o),
(6675,268,cs),
(6707,268,o),
(6736,274,o),
(6739,310,c),
(6738,332,o),
(6721,351,o),
(6698,351,cs),
(6588,350,o),
(6478,346,o),
(6368,338,c),
(6328,331,o),
(6280,342,o),
(6246,319,c),
(6238,312,o),
(6234,302,o),
(6234,292,cs),
(6234,270,o),
(6250,249,o),
(6274,250,cs)
);
},
{
closed = 1;
nodes = (
(7319,577,o),
(7234,396,o),
(7147,215,cs),
(7123,165,o),
(7098,114,o),
(7073,63,cs),
(7070,57,o),
(7068,50,o),
(7068,43,cs),
(7068,39,o),
(7068,36,o),
(7069,32,cs),
(7073,13,o),
(7091,3,o),
(7109,3,cs),
(7122,3,o),
(7136,9,o),
(7143,23,cs),
(7231,202,o),
(7317,383,o),
(7401,565,cs),
(7424,616,o),
(7448,667,o),
(7471,718,cs),
(7474,726,o),
(7476,733,o),
(7476,740,cs),
(7476,743,o),
(7476,747,o),
(7475,750,cs),
(7471,768,o),
(7452,779,o),
(7434,779,cs),
(7421,779,o),
(7407,773,o),
(7401,759,cs)
);
},
{
closed = 1;
nodes = (
(7462,537,o),
(7529,355,o),
(7596,173,cs),
(7616,122,o),
(7635,71,o),
(7654,19,cs),
(7658,9,o),
(7663,1,o),
(7673,-5,cs),
(7679,-9,o),
(7686,-10,o),
(7692,-10,cs),
(7713,-10,o),
(7734,8,o),
(7734,29,cs),
(7734,33,o),
(7733,37,o),
(7732,41,cs),
(7664,222,o),
(7597,404,o),
(7531,587,cs),
(7513,638,o),
(7494,690,o),
(7476,742,cs),
(7473,752,o),
(7467,761,o),
(7458,766,cs),
(7452,770,o),
(7445,772,o),
(7439,772,cs),
(7417,772,o),
(7396,753,o),
(7396,731,cs),
(7396,728,o),
(7397,724,o),
(7398,720,cs)
);
},
{
closed = 1;
nodes = (
(7362,278,o),
(7455,284,o),
(7548,284,cs),
(7566,284,o),
(7585,284,o),
(7604,283,c),
(7626,286,o),
(7659,278,o),
(7687,278,cs),
(7714,278,o),
(7737,286,o),
(7740,319,cs),
(7746,357,o),
(7670,367,o),
(7584,367,cs),
(7494,367,o),
(7395,356,o),
(7365,357,c),
(7325,349,o),
(7276,357,o),
(7241,335,c),
(7233,327,o),
(7230,318,o),
(7230,308,cs),
(7230,286,o),
(7246,265,o),
(7270,266,c)
);
}
);
width = 5681;
},
{
associatedMasterId = m01;
background = {
shapes = (
{
closed = 1;
nodes = (
(120,75,o),
(141,126,o),
(162,176,c),
(161,173,o),
(159,170,o),
(158,167,c),
(241,364,o),
(335,558,o),
(428,751,c),
(354,761,l),
(454,512,o),
(539,258,o),
(645,12,c),
(684,-38,o),
(749,9,o),
(704,79,c),
(705,76,o),
(706,73,o),
(708,70,c),
(630,253,o),
(563,441,o),
(493,628,c),
(473,679,o),
(453,731,o),
(432,783,c),
(423,815,o),
(375,823,o),
(358,792,c),
(240,547,o),
(121,300,o),
(22,46,c),
(8,-4,o),
(86,-27,o),
(100,24,c)
);
},
{
closed = 1;
nodes = (
(179,256,o),
(181,256,o),
(184,257,c),
(181,256,o),
(177,256,o),
(173,255,c),
(278,269,o),
(385,266,o),
(490,268,c),
(530,274,o),
(582,258,o),
(612,288,c),
(634,313,o),
(612,356,o),
(579,354,c),
(526,354,o),
(527,272,o),
(580,273,c),
(576,274,o),
(573,274,o),
(569,274,c),
(569,274,o),
(569,274,o),
(569,274,c),
(563,278,o),
(558,281,o),
(552,285,c),
(552,285,o),
(552,285,o),
(552,284,c),
(548,290,o),
(545,296,o),
(541,302,c),
(542,302,o),
(542,302,o),
(542,302,c),
(555,319,o),
(568,336,o),
(581,353,c),
(487,338,o),
(184,369,o),
(130,315,c),
(112,285,o),
(142,246,o),
(176,256,c)
);
}
);
};
layerId = "97E97078-FEEF-445D-9F68-6F076091049D";
name = Original;
shapes = (
{
closed = 1;
nodes = (
(120,75,o),
(141,126,o),
(162,176,c),
(161,173,o),
(159,170,o),
(158,167,c),
(241,364,o),
(335,558,o),
(428,751,c),
(354,761,l),
(454,512,o),
(539,258,o),
(645,12,c),
(684,-38,o),
(749,9,o),
(704,79,c),
(705,76,o),
(706,73,o),
(708,70,c),
(630,253,o),
(563,441,o),
(493,628,c),
(473,679,o),
(453,731,o),
(432,783,c),
(423,815,o),
(375,823,o),
(358,792,c),
(240,547,o),
(121,300,o),
(22,46,c),
(8,-4,o),
(86,-27,o),
(100,24,c)
);
},
{
closed = 1;
nodes = (
(179,256,o),
(181,256,o),
(184,257,c),
(181,256,o),
(177,256,o),
(173,255,c),
(278,269,o),
(385,266,o),
(490,268,c),
(530,274,o),
(582,258,o),
(612,288,c),
(634,313,o),
(612,356,o),
(579,354,c),
(526,354,o),
(527,272,o),
(580,273,c),
(576,274,o),
(573,274,o),
(569,274,c),
(569,274,o),
(569,274,o),
(569,274,c),
(563,278,o),
(558,281,o),
(552,285,c),
(552,285,o),
(552,285,o),
(552,284,c),
(548,290,o),
(545,296,o),
(541,302,c),
(542,302,o),
(542,302,o),
(542,302,c),
(555,319,o),
(568,336,o),
(581,353,c),
(487,338,o),
(184,369,o),
(130,315,c),
(112,285,o),
(142,246,o),
(176,256,c)
);
}
);
width = 739;
}
);
unicode = 65;
},
{
color = 6;
glyphname = A.alt1;
lastChange = "2023-01-02 14:53:39 +0000";
layers = (
{
background = {
shapes = (
{
closed = 1;
nodes = (
(178,166,o),
(237,333,o),
(306,497,c),
(305,494,o),
(303,490,o),
(302,487,c),
(337,570,o),
(374,652,o),
(418,730,c),
(394,733,o),
(369,737,o),
(344,740,c),
(392,545,o),
(465,357,o),
(538,170,c),
(558,117,o),
(579,64,o),
(598,11,c),
(602,1,o),
(607,-8,o),
(617,-13,c),
(646,-32,o),
(688,-1,o),
(676,32,c),
(607,221,o),
(528,407,o),
(468,599,c),
(451,653,o),
(436,707,o),
(422,761,c),
(414,795,o),
(365,801,o),
(348,771,c),
(250,594,o),
(183,402,o),
(105,216,c),
(106,220,o),
(108,223,o),
(109,226,c),
(84,166,o),
(57,107,o),
(27,49,c),
(1,3,o),
(71,-38,o),
(97,8,c)
);
},
{
closed = 1;
nodes = (
(196,242,o),
(198,242,o),
(200,243,c),
(189,241,l),
(286,254,o),
(384,249,o),
(482,249,c),
(523,254,o),
(602,232,o),
(606,292,c),
(605,313,o),
(588,333,o),
(566,332,c),
(435,326,o),
(303,340,o),
(173,320,c),
(123,307,o),
(143,228,o),
(195,242,c)
);
}
);
};
layerId = m01;
shapes = (
{
closed = 1;
nodes = (
(271,437,o),
(371,640,c),
(404,511,o),
(558,123,o),
(598,11,cs),
(607,-10,o),
(620,-19,o),
(637,-19,cs),
(658,-19,o),
(678,-1,o),
(678,20,cs),
(678,24,o),
(677,28,o),
(676,32,cs),
(644,119,o),
(517,442,o),
(468,599,cs),
(451,653,o),
(436,707,o),
(422,761,cs),
(418,780,o),
(400,790,o),
(383,790,cs),
(364,790,o),
(355,783,o),
(344,764,cs),
(260,616,o),
(181,399,o),
(108,224,cs),
(70,136,o),
(37,68,o),
(27,49,cs),
(11,20,o),
(32,-12,o),
(64,-12,cs),
(77,-12,o),
(90,-6,o),
(97,8,cs),
(202,218,o)
);
},
{
closed = 1;
nodes = (
(143,302,o),
(143,288,cs),
(143,265,o),
(152,243,o),
(200,248,cs),
(306,258,o),
(422,257,o),
(553,254,cs),
(581,253,o),
(606,260,o),
(606,292,cs),
(606,313,o),
(588,333,o),
(566,332,cs),
(435,326,o),
(303,339,o),
(173,320,cs),
(152,317,o)
);
}
);
width = 709;
},
{
associatedMasterId = m01;
layerId = "64B2861B-2177-488F-87C7-4C9B84A705BC";
name = "29 Nov 22 at 09:52";
shapes = (
{
closed = 1;
nodes = (
(177,166,o),
(236,333,o),
(305,497,c),
(304,494,o),
(302,490,o),
(301,487,c),
(336,570,o),
(373,652,o),
(417,730,c),
(393,733,o),
(368,737,o),
(343,740,c),
(391,545,o),
(464,357,o),
(537,170,c),
(557,117,o),
(578,64,o),
(597,11,c),
(601,1,o),
(606,-8,o),
(616,-13,c),
(645,-32,o),
(687,-1,o),
(675,32,c),
(606,221,o),
(527,407,o),
(467,599,c),
(450,653,o),
(435,707,o),
(421,761,c),
(413,795,o),
(364,801,o),
(347,771,c),
(249,594,o),
(182,402,o),
(104,216,c),
(105,220,o),
(107,223,o),
(108,226,c),
(83,166,o),
(56,107,o),
(26,49,c),
(0,3,o),
(70,-38,o),
(96,8,c)
);
},
{
closed = 1;
nodes = (
(195,242,o),
(197,242,o),
(199,243,c),
(188,241,l),
(285,254,o),
(383,249,o),
(481,249,c),
(522,254,o),
(601,232,o),
(605,292,c),
(604,313,o),
(587,333,o),
(565,332,c),
(434,326,o),
(302,340,o),
(172,320,c),
(122,307,o),
(142,228,o),
(194,242,c)
);
}
);
width = 697;
}
);
metricLeft = A;
metricRight = A;
},
{
color = 6;
glyphname = A.alt2;
lastChange = "2023-01-02 14:53:39 +0000";
layers = (
{
background = {
shapes = (
{
closed = 1;
nodes = (
(218,231,o),
(331,475,o),
(436,722,c),
(362,731,l),
(456,487,o),
(519,231,o),
(635,-5,cs),
(641,-18,o),
(656,-24,o),
(670,-24,cs),
(677,-24,o),
(684,-23,o),
(690,-19,cs),
(703,-10,o),
(708,2,o),
(708,16,cs),
(708,54,o),
(665,104,o),
(658,139,c),
(662,129,ls),
(595,288,o),
(546,453,o),
(490,616,c),
(471,653,o),
(450,784,o),
(401,784,cs),
(391,784,o),
(379,778,o),
(366,763,c),
(284,570,o),
(198,380,o),
(106,192,cs),
(80,139,o),
(54,86,o),
(27,33,cs),
(23,26,o),
(21,19,o),
(21,13,cs),
(21,-10,o),
(43,-28,o),
(65,-28,cs),
(77,-28,o),
(89,-22,o),
(97,-8,cs)
);
},
{
closed = 1;
nodes = (
(297,242,o),
(385,246,o),
(473,246,cs),
(497,246,o),
(521,246,o),
(545,245,cs),
(572,245,o),
(585,265,o),
(585,285,cs),
(585,306,o),
(572,326,o),
(545,326,cs),
(521,327,o),
(497,327,o),
(473,327,cs),
(385,327,o),
(297,323,o),
(209,314,c),
(187,314,o),
(168,296,o),
(168,274,cs),
(169,254,o),
(186,231,o),
(209,233,cs)
);
}
);
};
layerId = m01;
shapes = (
{
closed = 1;
nodes = (
(204,202,o),
(304,417,o),
(398,646,c),
(438,524,o),
(475,405,o),
(516,289,cs),
(551,188,o),
(590,90,o),
(635,-5,cs),
(641,-18,o),
(656,-24,o),
(670,-24,cs),
(696,-24,o),
(708,-5,o),
(708,16,cs),
(708,32,o),
(701,48,o),
(691,68,cs),
(662,123,o),
(629,208,o),
(597,297,cs),
(554,418,o),
(461,713,o),
(444,746,cs),
(432,769,o),
(419,784,o),
(401,784,cs),
(387,784,o),
(371,774,o),
(363,756,cs),
(256,503,o),
(123,221,o),
(27,33,cs),
(9,1,o),
(36,-28,o),
(65,-28,cs),
(77,-28,o),
(89,-22,o),
(97,-8,cs)
);
},
{
closed = 1;
nodes = (
(328,248,o),
(479,251,o),
(545,248,cs),
(572,248,o),
(585,265,o),
(585,285,cs),
(585,306,o),
(572,326,o),
(545,326,cs),
(470,329,o),
(317,325,o),
(209,314,cs),
(187,312,o),
(168,296,o),
(168,274,cs),
(169,254,o),
(186,234,o),
(209,236,cs)
);
}
);
width = 739;
},
{
associatedMasterId = m01;
layerId = "68680CCE-630A-4418-95FE-688EA47E9A76";
name = "29 Nov 22 at 09:53";
shapes = (
{
closed = 1;
nodes = (
(217,231,o),
(330,475,o),
(435,722,c),
(361,731,l),
(455,487,o),
(518,231,o),
(634,-5,cs),
(640,-18,o),
(655,-24,o),
(669,-24,cs),
(676,-24,o),
(683,-23,o),
(689,-19,cs),
(702,-10,o),
(707,2,o),
(707,16,cs),
(707,54,o),
(664,104,o),
(657,139,c),
(661,129,ls),
(594,288,o),
(545,453,o),
(489,616,c),
(470,653,o),
(449,784,o),
(400,784,cs),
(390,784,o),
(378,778,o),
(365,763,c),
(283,570,o),
(197,380,o),
(105,192,cs),
(79,139,o),
(53,86,o),
(26,33,cs),
(22,26,o),
(20,19,o),
(20,13,cs),
(20,-10,o),
(42,-28,o),
(64,-28,cs),
(76,-28,o),
(88,-22,o),
(96,-8,cs)
);
},
{
closed = 1;
nodes = (
(296,242,o),
(384,246,o),
(472,246,cs),
(496,246,o),
(520,246,o),
(544,245,cs),
(571,245,o),
(584,265,o),
(584,285,cs),
(584,306,o),
(571,326,o),
(544,326,cs),
(520,327,o),
(496,327,o),
(472,327,cs),
(384,327,o),
(296,323,o),
(208,314,c),
(186,314,o),
(167,296,o),
(167,274,cs),
(168,254,o),
(185,231,o),
(208,233,cs)
);
}
);
width = 727;
}
);
metricLeft = A;
metricRight = A;
},
{
color = 6;
glyphname = A.alt3;
lastChange = "2023-01-02 14:53:39 +0000";
layers = (
{
background = {
shapes = (
{
closed = 1;
nodes = (
(207,237,o),
(313,485,o),
(416,733,c),
(338,733,l),
(404,535,o),
(485,341,o),
(580,154,cs),
(606,102,o),
(633,51,o),
(662,0,cs),
(669,-12,o),
(683,-20,o),
(697,-20,cs),
(704,-20,o),
(711,-18,o),
(717,-14,cs),
(730,-6,o),
(737,7,o),
(737,21,cs),
(737,28,o),
(736,35,o),
(732,41,cs),
(656,177,o),
(587,317,o),
(526,460,c),
(528,457,o),
(529,454,o),
(531,450,cs),
(498,528,o),
(467,607,o),
(439,687,c),
(425,719,o),
(418,785,o),
(378,785,cs),
(372,785,o),
(364,783,o),
(356,779,cs),
(346,774,o),
(342,765,o),
(338,755,cs),
(309,686,o),
(281,617,o),
(252,548,c),
(253,552,o),
(254,555,o),
(256,558,c),
(181,382,o),
(105,207,o),
(27,32,c),
(23,25,o),
(21,18,o),
(21,12,cs),
(21,-11,o),
(43,-28,o),
(65,-28,cs),
(77,-28,o),
(89,-22,o),
(97,-8,c)
);
},
{
closed = 1;
nodes = (
(277,249,o),
(310,250,o),
(344,250,cs),
(409,250,o),
(475,246,o),
(540,239,c),
(566,239,o),
(579,259,o),
(579,280,cs),
(579,300,o),
(566,320,o),
(540,320,cs),
(511,320,o),
(411,333,o),
(327,333,cs),
(256,333,o),
(196,324,o),
(202,288,c),
(203,267,o),
(220,246,o),
(243,247,cs)
);
}
);
};
layerId = m01;
shapes = (
{
closed = 1;
nodes = (
(194,209,o),
(287,428,o),
(373,648,c),
(453,411,o),
(565,172,o),
(662,0,cs),
(669,-12,o),
(683,-20,o),
(697,-20,cs),
(704,-20,o),
(711,-18,o),
(717,-14,cs),
(730,-6,o),
(737,7,o),
(737,21,cs),
(737,28,o),
(735,35,o),
(732,41,cs),
(606,256,o),
(501,509,o),
(427,724,cs),
(417,754,o),
(406,785,o),
(378,785,cs),
(360,785,o),
(346,775,o),
(338,755,cs),
(309,686,o),
(105,207,o),
(27,32,cs),
(24,25,o),
(21,18,o),
(21,12,cs),
(21,-11,o),
(43,-28,o),
(65,-28,cs),
(77,-28,o),
(90,-23,o),
(97,-8,cs)
);
},
{
closed = 1;
nodes = (
(277,249,o),
(310,251,o),
(344,251,cs),
(409,251,o),
(471,247,o),
(540,239,cs),
(566,236,o),
(579,259,o),
(579,280,cs),
(579,300,o),
(566,310,o),
(540,314,cs),
(501,320,o),
(411,329,o),
(327,329,cs),
(256,329,o),
(202,320,o),
(202,288,cs),
(202,267,o),
(220,246,o),
(243,247,cs)
);
}
);
width = 768;
},
{
associatedMasterId = m01;
layerId = "D4DFBBCE-3D0E-425B-AC57-D94B8FE5E3AA";
name = "27 Dec 22 09:26";
shapes = (
{
closed = 1;
nodes = (
(207,237,o),
(313,485,o),
(416,733,c),
(338,733,l),
(404,535,o),
(485,341,o),
(580,154,cs),
(606,102,o),
(633,51,o),
(662,0,cs),
(669,-12,o),
(683,-20,o),
(697,-20,cs),
(704,-20,o),
(711,-18,o),
(717,-14,cs),
(730,-6,o),
(737,7,o),
(737,21,cs),
(737,28,o),
(736,35,o),
(732,41,cs),
(656,177,o),
(587,317,o),
(526,460,c),
(528,457,o),
(529,454,o),
(531,450,cs),
(498,528,o),
(467,607,o),
(439,687,c),
(425,719,o),
(418,785,o),
(378,785,cs),
(372,785,o),
(364,783,o),
(356,779,cs),
(346,774,o),
(342,765,o),
(338,755,cs),
(309,686,o),
(281,617,o),
(252,548,c),
(253,552,o),
(254,555,o),
(256,558,c),
(181,382,o),
(105,207,o),
(27,32,c),
(23,25,o),
(21,18,o),
(21,12,cs),
(21,-11,o),
(43,-28,o),
(65,-28,cs),
(77,-28,o),
(89,-22,o),
(97,-8,c)
);
},
{
closed = 1;
nodes = (
(277,249,o),
(310,250,o),
(344,250,cs),
(409,250,o),
(475,246,o),
(540,239,c),
(566,239,o),
(579,259,o),
(579,280,cs),
(579,300,o),
(566,320,o),
(540,320,cs),
(511,320,o),
(411,333,o),
(327,333,cs),
(256,333,o),
(196,324,o),
(202,288,c),
(203,267,o),
(220,246,o),
(243,247,cs)
);
}
);
width = 773;
}
);
metricLeft = A;
metricRight = A;
},
{
color = 6;
glyphname = A.alt4;
lastChange = "2023-01-02 14:53:40 +0000";
layers = (
{
background = {
shapes = (
{
closed = 1;
nodes = (
(213,250,o),
(318,495,o),
(413,744,c),
(334,744,l),
(407,539,o),
(494,339,o),
(595,146,cs),
(623,92,o),
(652,39,o),
(683,-13,cs),
(690,-26,o),
(704,-34,o),
(719,-34,cs),
(725,-34,o),
(732,-32,o),
(738,-28,cs),
(751,-20,o),
(758,-6,o),
(758,8,cs),
(758,14,o),
(757,21,o),
(753,27,cs),
(660,188,o),
(577,354,o),
(505,525,c),
(507,522,o),
(508,519,o),
(509,516,cs),
(475,598,o),
(442,681,o),
(413,766,c),
(408,785,o),
(391,795,o),
(374,795,cs),
(357,795,o),
(340,785,o),
(334,766,cs),
(295,661,o),
(253,557,o),
(210,455,cs),
(211,458,o),
(212,461,o),
(214,464,c),
(155,325,o),
(93,187,o),
(28,51,cs),
(24,44,o),
(22,37,o),
(22,31,cs),
(22,8,o),
(44,-10,o),
(66,-10,cs),
(78,-10,o),
(90,-4,o),
(98,10,c)
);
},
{
closed = 1;
nodes = (
(346,245,o),
(549,252,o),
(573,254,cs),
(598,256,o),
(621,264,o),
(621,294,cs),
(621,315,o),
(604,334,o),
(581,333,cs),
(487,327,o),
(394,323,o),
(220,323,cs),
(194,323,o),
(181,303,o),
(181,283,cs),
(181,262,o),
(194,245,o),
(220,245,cs)
);
}
);
};
layerId = m01;
shapes = (
{
closed = 1;
nodes = (
(197,216,o),
(287,429,o),
(372,652,c),
(454,427,o),
(575,170,o),
(675,1,cs),
(682,-12,o),
(696,-20,o),
(711,-20,cs),
(730,-20,o),
(750,-1,o),
(750,22,cs),
(750,28,o),
(749,35,o),
(745,41,cs),
(658,193,o),
(480,542,o),
(413,766,c),
(408,785,o),
(391,795,o),
(374,795,cs),
(357,795,o),
(341,785,o),
(334,766,cs),
(238,509,o),
(93,187,o),
(28,51,cs),
(24,44,o),
(22,37,o),
(22,31,cs),
(22,8,o),
(44,-10,o),
(66,-10,cs),
(78,-10,o),
(90,-4,o),
(98,10,c)
);
},
{
closed = 1;
nodes = (
(346,245,o),
(549,252,o),
(573,254,cs),
(598,256,o),
(621,264,o),
(621,294,cs),
(621,315,o),
(604,334,o),
(581,333,cs),
(487,327,o),
(394,323,o),
(220,323,cs),
(194,323,o),
(181,303,o),
(181,283,cs),
(181,262,o),
(194,245,o),
(220,245,cs)
);
}
);
width = 781;
},
{
associatedMasterId = m01;
layerId = "F9BD0155-E0EC-4C24-B835-A6B075F70FC5";
name = "28 Dec 22 09:50";
shapes = (
{
closed = 1;
nodes = (
(213,250,o),
(318,495,o),
(413,744,c),
(334,744,l),
(407,539,o),
(494,339,o),
(595,146,cs),
(623,92,o),
(652,39,o),
(683,-13,cs),
(690,-26,o),
(704,-34,o),
(719,-34,cs),
(725,-34,o),
(732,-32,o),
(738,-28,cs),
(751,-20,o),
(758,-6,o),
(758,8,cs),
(758,14,o),
(757,21,o),
(753,27,cs),
(660,188,o),
(577,354,o),
(505,525,c),
(507,522,o),
(508,519,o),
(509,516,cs),
(475,598,o),
(442,681,o),
(413,766,c),
(408,785,o),
(391,795,o),
(374,795,cs),
(357,795,o),
(340,785,o),
(334,766,cs),
(295,661,o),
(253,557,o),
(210,455,cs),
(211,458,o),
(212,461,o),
(214,464,c),
(155,325,o),
(93,187,o),
(28,51,cs),
(24,44,o),
(22,37,o),
(22,31,cs),
(22,8,o),
(44,-10,o),
(66,-10,cs),
(78,-10,o),
(90,-4,o),
(98,10,c)
);
},
{
closed = 1;
nodes = (
(268,242,ls),
(346,242,o),
(424,244,o),
(502,247,c),
(541,254,o),
(617,234,o),
(621,292,c),
(620,313,o),
(604,334,o),
(581,333,cs),
(487,327,o),
(394,324,o),
(300,323,cs),
(220,323,ls),
(194,323,o),
(181,303,o),
(181,283,cs),
(181,262,o),
(194,242,o),
(220,242,cs)
);
}
);
width = 794;
}
);
metricLeft = A;
metricRight = A;
},
{
color = 6;
glyphname = A.alt5;
lastChange = "2023-01-02 14:53:40 +0000";
layers = (
{
background = {
shapes = (
{
closed = 1;
nodes = (
(197,216,o),
(299,430,o),
(399,644,c),
(469,477,o),
(551,315,o),
(629,150,c),
(654,112,o),
(693,-23,o),
(728,-31,cs),
(732,-32,o),
(735,-33,o),
(739,-33,cs),
(761,-33,o),
(779,-13,o),
(779,9,cs),
(779,15,o),
(778,22,o),
(774,28,c),
(737,112,o),
(698,194,o),
(658,276,cs),
(596,404,o),
(534,532,o),
(478,664,c),
(479,660,o),
(481,657,o),
(482,654,c),
(464,688,o),
(445,787,o),
(403,787,cs),
(392,787,o),
(381,781,o),
(367,766,c),
(323,672,o),
(278,578,o),
(234,484,cs),
(27,43,ls),
(24,36,o),
(21,30,o),
(21,23,cs),
(21,1,o),
(43,-17,o),
(65,-17,cs),
(77,-17,o),
(89,-11,o),
(97,3,c)
);
},
{
closed = 1;
nodes = (
(338,253,o),
(462,260,o),
(606,260,cs),
(638,260,o),
(670,266,o),
(670,302,cs),
(670,324,o),
(652,343,o),
(629,343,cs),
(519,342,o),
(239,328,o),
(215,326,cs),
(184,323,o),
(165,316,o),
(165,284,cs),
(165,262,o),
(181,241,o),
(205,242,cs)
);
}
);
};
layerId = m01;
shapes = (
{
closed = 1;
nodes = (
(197,216,o),
(299,431,o),
(399,655,c),
(469,478,o),
(605,206,o),
(694,11,cs),
(702,-7,o),
(717,-15,o),
(733,-15,cs),
(755,-15,o),
(773,1,o),
(773,23,cs),
(773,29,o),
(771,35,o),
(768,42,cs),
(682,237,o),
(512,560,o),
(447,744,cs),
(438,769,o),
(421,787,o),
(403,787,cs),
(386,787,o),
(373,780,o),
(367,766,cs),
(323,672,o),
(278,578,o),
(27,43,cs),
(24,36,o),
(21,30,o),
(21,23,cs),
(21,1,o),
(43,-17,o),
(65,-17,cs),
(77,-17,o),
(90,-12,o),
(97,3,cs)
);
},
{
closed = 1;
nodes = (
(338,254,o),
(462,260,o),
(606,260,cs),
(638,260,o),
(670,267,o),
(670,299,cs),
(670,321,o),
(652,340,o),
(629,340,cs),
(519,339,o),
(239,325,o),
(215,323,cs),
(184,320,o),
(165,313,o),
(165,281,cs),
(165,259,o),
(181,242,o),
(205,243,cs)
);
}
);
width = 804;
},
{
associatedMasterId = m01;
background = {
shapes = (
{
closed = 1;
nodes = (
(214,253,o),
(322,494,o),
(422,738,c),
(344,738,l),
(410,478,o),
(522,233,o),
(634,-10,cs),
(641,-24,o),
(655,-30,o),
(669,-30,cs),
(686,-30,o),
(704,-20,o),
(708,-1,c),
(683,112,o),
(610,216,o),
(571,327,c),
(573,323,o),
(574,320,o),
(576,317,c),
(528,429,o),
(485,543,o),
(449,660,c),
(429,700,o),
(438,785,o),
(383,789,c),
(334,789,o),
(320,683,o),
(296,645,cs),
(298,649,o),
(299,652,o),
(300,655,cs),
(215,453,o),
(124,253,o),
(28,56,cs),
(24,49,o),
(22,42,o),
(22,36,cs),
(22,13,o),
(44,-5,o),
(66,-5,cs),
(78,-5,o),
(90,1,o),
(98,15,cs)
);
},
{
closed = 1;
nodes = (
(222,261,o),
(239,263,o),
(255,265,c),
(252,265,o),
(248,264,o),
(244,264,c),
(297,271,o),
(350,275,o),
(404,275,cs),
(453,275,o),
(503,272,o),
(552,266,cs),
(573,265,o),
(593,286,o),
(592,307,cs),
(593,329,o),
(574,346,o),
(552,347,cs),
(518,351,o),
(451,356,o),
(381,356,cs),
(288,356,o),
(190,347,o),
(160,317,c),
(156,311,o),
(155,304,o),
(155,298,cs),
(155,276,o),
(173,256,o),
(195,256,cs),
(199,256,o),
(202,257,o),
(206,258,cs)
);
}
);
};
layerId = "F480F8B0-0C35-4AC8-99ED-7F5A952E1C94";
name = "29 Dec 22 11:22";
shapes = (
{
closed = 1;
nodes = (
(223,261,o),
(337,502,o),
(450,743,c),
(376,752,l),
(453,553,o),
(550,362,o),
(642,168,c),
(667,130,o),
(706,-5,o),
(741,-13,cs),
(745,-14,o),
(748,-15,o),
(752,-15,cs),
(774,-15,o),
(792,5,o),
(792,27,cs),
(792,33,o),
(791,40,o),
(787,46,c),
(750,130,o),
(711,212,o),
(671,294,cs),
(609,422,o),
(547,550,o),
(491,682,c),
(492,678,o),
(494,675,o),
(495,672,c),
(477,706,o),
(458,805,o),
(416,805,cs),
(405,805,o),
(394,799,o),
(380,784,c),
(336,690,o),
(292,596,o),
(247,502,cs),
(40,61,ls),
(36,54,o),
(34,48,o),
(34,41,cs),
(34,19,o),
(56,1,o),
(78,1,cs),
(90,1,o),
(102,7,o),
(110,21,c)
);
},
{
closed = 1;
nodes = (
(318,269,o),
(428,275,o),
(538,278,c),
(544,279,o),
(552,279,o),
(559,279,cs),
(575,279,o),
(592,278,o),
(609,278,cs),
(641,278,o),
(670,284,o),
(673,320,c),
(672,342,o),
(655,361,o),
(632,361,cs),
(522,360,o),
(412,356,o),
(302,348,c),
(262,341,o),
(214,352,o),
(180,329,c),
(172,322,o),
(168,312,o),
(168,302,cs),
(168,280,o),
(184,259,o),
(208,260,cs)
);
}
);
width = 744;
}
);
metricLeft = A;
metricRight = A;
},
{
color = 6;
glyphname = A.alt6;
lastChange = "2023-01-02 14:53:40 +0000";
layers = (
{
background = {
shapes = (
{
closed = 1;
nodes = (
(224,229,o),
(344,470,o),
(451,717,c),
(377,726,l),
(449,485,o),
(536,247,o),
(637,16,c),
(644,3,o),
(658,-3,o),
(671,-3,cs),
(689,-3,o),
(707,7,o),
(711,26,c),
(715,61,o),
(688,91,o),
(678,124,c),
(680,120,o),
(681,117,o),
(682,114,cs),
(614,275,o),
(553,439,o),
(499,606,cs),
(484,653,o),
(469,700,o),
(455,748,cs),
(450,767,o),
(432,777,o),
(414,777,cs),
(401,777,o),
(388,771,o),
(381,758,c),
(297,565,o),
(206,377,o),
(108,192,cs),
(80,140,o),
(51,88,o),
(22,36,cs),
(18,29,o),
(16,22,o),
(16,16,cs),
(16,-7,o),
(38,-25,o),
(60,-25,cs),
(72,-25,o),
(84,-19,o),
(92,-5,cs)
);
},
{
closed = 1;
nodes = (
(290,252,o),
(349,254,o),
(409,254,cs),
(454,254,o),
(499,253,o),
(544,251,c),
(565,252,o),
(595,245,o),
(621,245,cs),
(648,245,o),
(670,253,o),
(673,286,c),
(672,309,o),
(655,324,o),
(632,326,cs),
(555,332,o),
(477,335,o),
(399,335,cs),
(372,335,o),
(346,335,o),
(319,334,c),
(310,332,o),
(299,332,o),
(288,332,cs),
(245,332,o),
(195,336,o),
(190,289,c),
(191,268,o),
(208,247,o),
(231,249,cs)
);
}
);
};
layerId = m01;
shapes = (
{
closed = 1;
nodes = (
(213,208,o),
(313,408,o),
(410,637,c),
(474,417,o),
(555,206,o),
(641,8,cs),
(648,-7,o),
(662,-11,o),
(675,-11,cs),
(693,-11,o),
(716,4,o),
(716,21,cs),
(716,34,o),
(714,43,o),
(709,55,cs),
(602,295,o),
(508,567,o),
(455,748,cs),
(450,767,o),
(432,777,o),
(414,777,cs),
(401,777,o),
(387,771,o),
(381,758,cs),
(268,498,o),
(168,297,o),
(28,45,cs),
(24,38,o),
(22,31,o),
(22,25,cs),
(22,2,o),
(44,-16,o),
(66,-16,cs),
(78,-16,o),
(90,-10,o),
(98,4,cs)
);
},
{
closed = 1;
nodes = (
(290,255,o),
(349,257,o),
(409,257,cs),
(455,257,o),
(575,254,o),
(621,249,cs),
(648,246,o),
(673,257,o),
(673,286,cs),
(673,309,o),
(655,324,o),
(632,326,cs),
(555,332,o),
(477,335,o),
(399,335,cs),
(372,335,o),
(284,333,o),
(240,330,cs),
(215,328,o),
(190,313,o),
(190,289,cs),
(190,268,o),
(208,250,o),
(231,252,cs)
);
}
);
width = 747;
},
{
associatedMasterId = m01;
layerId = "4FE4DD26-6056-446E-83BD-0CA4898C8A32";
name = "29 Dec 22 13:57";
shapes = (
{
closed = 1;
nodes = (
(229,229,o),
(349,470,o),
(456,717,c),
(382,726,l),
(454,485,o),
(541,247,o),
(642,16,c),
(649,3,o),
(663,-3,o),
(676,-3,cs),
(694,-3,o),
(712,7,o),
(716,26,c),
(720,61,o),
(693,91,o),
(683,124,c),
(685,120,o),
(686,117,o),
(687,114,cs),
(619,275,o),
(558,439,o),
(504,606,cs),
(489,653,o),
(474,700,o),
(460,748,cs),
(455,767,o),
(437,777,o),
(419,777,cs),
(406,777,o),
(393,771,o),
(386,758,c),
(302,565,o),
(211,377,o),
(113,192,cs),
(85,140,o),
(56,88,o),
(27,36,cs),
(23,29,o),
(21,22,o),
(21,16,cs),
(21,-7,o),
(43,-25,o),
(65,-25,cs),
(77,-25,o),
(89,-19,o),
(97,-5,cs)
);
},
{
closed = 1;
nodes = (
(295,252,o),
(354,254,o),
(414,254,cs),
(459,254,o),
(504,253,o),
(549,251,c),
(570,252,o),
(600,245,o),
(626,245,cs),
(653,245,o),
(675,253,o),
(678,286,c),
(677,309,o),
(660,324,o),
(637,326,cs),
(560,332,o),
(482,335,o),
(404,335,cs),
(377,335,o),
(351,335,o),
(324,334,c),
(315,332,o),
(304,332,o),
(293,332,cs),
(250,332,o),
(200,336,o),
(195,289,c),
(196,268,o),
(213,247,o),
(236,249,cs)
);
}
);
width = 752;
}
);
metricLeft = A;
metricRight = A;
},
{
color = 6;
glyphname = B;
lastChange = "2023-01-02 14:53:39 +0000";
layers = (
{
background = {
shapes = (
{
closed = 1;
nodes = (
(110,493,o),
(116,246,o),
(87,25,cs),
(84,-1,o),
(107,-14,o),
(128,-14,cs),
(148,-14,o),
(165,-1,o),
(168,25,cs),
(198,258,o),
(191,493,o),
(218,726,c),
(218,752,o),
(198,765,o),
(177,765,cs),
(157,765,o),
(137,752,o),
(137,726,c)
);
},
{
closed = 1;
nodes = (
(199,687,o),
(270,697,o),
(312,697,cs),
(361,697,o),
(420,689,o),
(460,660,cs),
(475,650,o),
(492,630,o),
(492,601,cs),
(492,519,o),
(390,471,o),
(295,455,c),
(285,456,o),
(277,456,o),
(268,456,cs),
(248,456,o),
(229,454,o),
(216,449,c),
(192,448,o),
(172,451,o),
(150,453,cs),
(129,454,o),
(123,434,o),
(124,413,cs),
(124,377,o),
(154,366,o),
(207,366,cs),
(233,366,o),
(261,369,o),
(287,373,c),
(338,370,o),
(390,362,o),
(435,344,cs),
(492,321,o),
(527,285,o),
(527,242,cs),
(527,181,o),
(469,136,o),
(403,109,cs),
(347,85,o),
(251,67,o),
(138,84,cs),
(103,89,o),
(87,62,o),
(87,41,cs),
(87,21,o),
(99,-1,o),
(127,0,cs),
(149,1,o),
(188,-3,o),
(229,-3,cs),
(343,-3,o),
(458,24,o),
(542,103,cs),
(587,145,o),
(607,193,o),
(607,240,cs),
(607,318,o),
(546,393,o),
(453,423,c),
(530,470,o),
(572,539,o),
(572,606,cs),
(572,745,o),
(418,778,o),
(304,778,cs),
(212,778,o),
(131,767,o),
(131,724,cs),
(131,705,o),
(142,678,o),
(173,683,cs)
);
}
);
};
layerId = m01;
shapes = (
{
closed = 1;
nodes = (
(110,493,o),
(116,246,o),
(87,25,cs),
(84,-1,o),
(107,-14,o),
(128,-14,cs),
(148,-14,o),
(165,-1,o),
(168,25,cs),
(198,258,o),
(191,493,o),
(218,726,c),
(218,752,o),
(198,765,o),
(177,765,cs),
(157,765,o),
(137,752,o),
(137,726,c)
);
},
{
closed = 1;
nodes = (
(199,690,o),
(270,700,o),
(312,700,cs),
(387,700,o),
(492,677,o),
(492,601,cs),
(492,488,o),
(315,447,o),
(216,447,cs),
(192,447,o),
(172,449,o),
(150,451,cs),
(129,452,o),
(123,434,o),
(124,413,cs),
(124,377,o),
(154,367,o),
(207,367,cs),
(233,367,o),
(261,370,o),
(300,376,c),
(384,375,o),
(526,337,o),
(526,242,cs),
(526,132,o),
(354,77,o),
(227,77,cs),
(199,77,o),
(169,79,o),
(138,84,c),
(127,5,l),
(149,3,o),
(188,-1,o),
(229,-1,cs),
(406,-1,o),
(607,84,o),
(607,240,cs),
(607,318,o),
(546,393,o),
(435,423,c),
(530,464,o),
(572,539,o),
(572,606,cs),
(572,745,o),
(418,778,o),
(304,778,cs),
(236,778,o),
(200,772,o),
(173,764,c),
(173,686,l)
);
}
);
width = 662;
},
{
associatedMasterId = m01;
background = {
shapes = (
{
closed = 1;
nodes = (
(4838,340,o),
(4841,180,o),
(4820,21,c),
(4818,-13,o),
(4865,-33,o),
(4889,-7,c),
(4935,153,o),
(4911,333,o),
(4932,499,c),
(4932,552,o),
(4852,552,o),
(4851,499,c)
);
},
{
closed = 1;
nodes = (
(4915,264,o),
(4915,269,o),
(4916,273,c),
(4914,262,l),
(4918,286,o),
(4924,309,o),
(4934,331,c),
(4932,328,o),
(4931,324,o),
(4930,321,c),
(4946,366,o),
(4993,420,o),
(5010,431,c),
(5024,441,o),
(5038,450,o),
(5054,457,c),
(5051,456,o),
(5048,455,o),
(5044,453,c),
(5057,459,o),
(5070,462,o),
(5084,464,c),
(5080,464,o),
(5077,463,o),
(5073,463,c),
(5084,464,o),
(5095,464,o),
(5106,463,c),
(5103,463,o),
(5099,464,o),
(5095,464,c),
(5107,463,o),
(5117,460,o),
(5128,456,c),
(5125,457,o),
(5121,458,o),
(5118,460,c),
(5129,455,o),
(5139,449,o),
(5148,442,c),
(5138,448,o),
(5144,446,o),
(5146,444,c),
(5157,435,o),
(5166,425,o),
(5175,415,c),
(5180,409,o),
(5169,422,o),
(5174,415,c),
(5173,418,o),
(5172,421,o),
(5170,424,c),
(5177,407,o),
(5181,388,o),
(5184,370,c),
(5183,373,o),
(5183,377,o),
(5182,380,c),
(5188,278,o),
(5179,174,o),
(5181,72,c),
(5182,75,o),
(5182,79,o),
(5183,83,c),
(5181,71,o),
(5178,61,o),
(5174,50,c),
(5176,53,o),
(5177,57,o),
(5178,60,c),
(5147,14,o),
(5218,-33,o),
(5246,15,c),
(5278,81,o),
(5257,155,o),
(5262,225,c),
(5265,302,o),
(5277,386,o),
(5243,458,c),
(5167,576,o),
(5013,565,o),
(4927,464,c),
(4875,408,o),
(4840,336,o),
(4833,259,c),
(4833,207,o),
(4914,207,o),
(4914,259,c)
);
},
{
closed = 1;
nodes = (
(1424,360,o),
(1434,192,o),
(1424,25,c),
(1423,-28,o),
(1505,-28,o),
(1505,25,c),
(1514,173,o),
(1506,322,o),
(1526,470,c),
(1524,459,l),
(1525,484,o),
(1540,511,o),
(1527,535,c),
(1512,565,o),
(1460,559,o),
(1453,525,c)
);
},
{
closed = 1;
nodes = (
(1516,299,o),
(1521,314,o),
(1527,328,c),
(1526,325,o),
(1525,322,o),
(1523,319,c),
(1557,391,o),
(1592,441,o),
(1657,472,c),
(1654,471,o),
(1651,470,o),
(1648,468,c),
(1658,472,o),
(1668,476,o),
(1679,477,c),
(1668,476,l),
(1676,477,o),
(1684,477,o),
(1693,476,c),
(1689,476,o),
(1685,477,o),
(1682,477,c),
(1690,476,o),
(1698,474,o),
(1705,471,c),
(1702,472,o),
(1699,473,o),
(1696,475,c),
(1701,472,o),
(1707,469,o),
(1713,465,c),
(1718,461,o),
(1710,466,o),
(1710,468,c),
(1729,450,o),
(1730,451,o),
(1740,429,c),
(1739,433,o),
(1738,436,o),
(1736,439,c),
(1743,424,o),
(1746,407,o),
(1748,391,c),
(1746,402,l),
(1761,276,o),
(1740,150,o),
(1737,25,c),
(1736,-28,o),
(1818,-28,o),
(1818,25,c),
(1819,84,o),
(1825,143,o),
(1829,202,c),
(1832,321,o),
(1861,496,o),
(1723,550,c),
(1581,589,o),
(1467,425,o),
(1435,305,c),
(1420,254,o),
(1500,232,o),
(1513,283,c)
);
},
{
closed = 1;
nodes = (
(1834,291,o),
(1835,296,o),
(1836,301,c),
(1835,298,o),
(1835,294,o),
(1834,290,c),
(1837,312,o),
(1844,334,o),
(1852,354,c),
(1851,351,o),
(1849,348,o),
(1848,345,c),
(1872,395,o),
(1887,419,o),
(1928,453,c),
(1927,452,o),
(1925,451,o),
(1924,450,c),
(1937,459,o),
(1950,468,o),
(1965,474,c),
(1962,472,o),
(1959,471,o),
(1955,470,c),
(1967,474,o),
(1978,477,o),
(1990,479,c),
(1987,479,o),
(1983,478,o),
(1979,478,c),
(1989,479,o),
(1999,479,o),
(2010,478,c),
(2006,478,o),
(2002,479,o),
(1999,479,c),
(2009,478,o),
(2019,475,o),
(2028,471,c),
(2025,472,o),
(2022,474,o),
(2018,475,c),
(2041,466,o),
(2051,454,o),
(2060,445,c),
(2055,452,o),
(2062,439,o),
(2062,438,c),
(2061,441,o),
(2060,444,o),
(2058,447,c),
(2069,421,o),
(2075,394,o),
(2079,366,c),
(2078,377,l),
(2089,287,o),
(2079,196,o),
(2069,106,c),
(2070,74,o),
(2049,33,o),
(2073,6,c),
(2098,-19,o),
(2143,0,o),
(2142,35,c),
(2149,98,o),
(2157,161,o),
(2161,224,c),
(2166,313,o),
(2167,408,o),
(2127,489,c),
(1987,672,o),
(1757,462,o),
(1753,286,c),
(1752,233,o),
(1834,233,o),
(1834,286,c)
);
},
{
closed = 1;
nodes = (
(3273,558,o),
(3086,576,o),
(3004,485,c),
(2968,441,o),
(2950,375,o),
(2985,326,c),
(3035,252,o),
(3131,239,o),
(3202,192,c),
(3204,191,o),
(3206,189,o),
(3208,188,c),
(3215,183,o),
(3199,195,o),
(3207,189,c),
(3224,172,o),
(3217,182,o),
(3230,157,c),
(3229,160,o),
(3227,163,o),
(3226,167,c),
(3229,159,o),
(3231,151,o),
(3233,142,c),
(3232,146,o),
(3232,150,o),
(3231,153,c),
(3232,145,o),
(3232,137,o),
(3231,129,c),
(3232,133,o),
(3232,137,o),
(3233,140,c),
(3232,132,o),
(3229,123,o),
(3226,115,c),
(3228,119,o),
(3229,122,o),
(3230,125,c),
(3227,117,o),
(3222,110,o),
(3217,102,c),
(3225,114,o),
(3218,104,o),
(3215,101,c),
(3201,87,o),
(3201,86,o),
(3175,74,c),
(3178,76,o),
(3182,77,o),
(3185,78,c),
(3171,73,o),
(3157,69,o),
(3142,67,c),
(3146,67,o),
(3149,68,o),
(3153,68,c),
(3135,66,o),
(3118,66,o),
(3100,68,c),
(3104,68,o),
(3108,67,o),
(3111,67,c),
(3091,70,o),
(3072,75,o),
(3053,83,c),
(3056,82,o),
(3059,80,o),
(3063,79,c),
(3040,88,o),
(3019,101,o),
(3000,115,c),
(3002,114,o),
(3003,113,o),
(3004,112,c),
(3001,115,o),
(2998,118,o),
(2994,120,c),
(2981,98,o),
(2968,75,o),
(2955,53,c),
(2989,34,o),
(3028,77,o),
(3008,110,c),
(2974,162,o),
(2894,113,o),
(2937,63,c),
(3026,-17,o),
(3179,-51,o),
(3271,43,c),
(3322,92,o),
(3327,177,o),
(3280,230,c),
(3235,287,o),
(3106,319,o),
(3074,348,c),
(3068,350,o),
(3042,382,o),
(3057,363,c),
(3053,369,o),
(3050,374,o),
(3047,381,c),
(3048,377,o),
(3050,374,o),
(3051,371,c),
(3049,377,o),
(3047,382,o),
(3046,388,c),
(3047,385,o),
(3047,381,o),
(3048,378,c),
(3047,384,o),
(3047,391,o),
(3048,398,c),
(3047,394,o),
(3047,390,o),
(3046,387,c),
(3048,397,o),
(3050,407,o),
(3054,416,c),
(3053,413,o),
(3052,410,o),
(3050,406,c),
(3067,438,o),
(3065,437,o),
(3095,453,c),
(3091,452,o),
(3088,450,o),
(3085,449,c),
(3098,455,o),
(3112,458,o),
(3126,460,c),
(3123,459,o),
(3119,459,o),
(3115,458,c),
(3139,461,o),
(3162,460,o),
(3186,457,c),
(3182,458,o),
(3179,458,o),
(3175,459,c),
(3188,457,o),
(3201,454,o),
(3213,449,c),
(3210,450,o),
(3207,451,o),
(3203,453,c),
(3210,450,o),
(3216,447,o),
(3222,443,c),
(3226,441,o),
(3235,432,o),
(3224,442,c),
(3229,440,o),
(3252,411,o),
(3239,428,c),
(3271,350,o),
(3348,380,o),
(3325,442,c)
);
},
{
closed = 1;
nodes = (
(2394,697,o),
(2150,261,o),
(2341,56,c),
(2406,-9,o),
(2517,-22,o),
(2586,44,c),
(2666,119,o),
(2684,236,o),
(2705,339,c),
(2704,336,o),
(2704,332,o),
(2703,328,c),
(2720,398,o),
(2749,552,o),
(2625,496,c),
(2575,462,o),
(2630,394,o),
(2677,431,c),
(2673,430,o),
(2670,429,o),
(2667,427,c),
(2669,428,o),
(2671,429,o),
(2673,429,c),
(2670,429,o),
(2666,428,o),
(2663,428,c),
(2664,428,o),
(2665,428,o),
(2667,428,c),
(2663,428,o),
(2660,429,o),
(2656,429,c),
(2657,429,o),
(2658,429,o),
(2658,428,c),
(2655,430,o),
(2652,431,o),
(2649,433,c),
(2656,430,o),
(2643,438,o),
(2645,436,c),
(2646,434,o),
(2638,446,o),
(2642,439,c),
(2640,442,o),
(2639,446,o),
(2638,449,c),
(2639,446,o),
(2640,442,o),
(2640,439,c),
(2640,443,o),
(2639,446,o),
(2639,450,c),
(2640,438,o),
(2639,426,o),
(2637,414,c),
(2638,417,o),
(2638,421,o),
(2639,424,c),
(2635,394,o),
(2626,364,o),
(2623,334,c),
(2624,337,o),
(2624,341,o),
(2625,345,c),
(2611,286,o),
(2600,226,o),
(2577,171,c),
(2578,174,o),
(2580,177,o),
(2581,180,c),
(2572,160,o),
(2562,140,o),
(2549,122,c),
(2546,118,o),
(2550,124,o),
(2551,125,c),
(2543,115,o),
(2533,105,o),
(2523,97,c),
(2523,97,o),
(2531,103,o),
(2526,99,c),
(2518,93,o),
(2509,88,o),
(2499,84,c),
(2503,86,o),
(2506,87,o),
(2509,88,c),
(2497,83,o),
(2484,80,o),
(2471,78,c),
(2475,79,o),
(2478,79,o),
(2482,80,c),
(2476,80,o),
(2469,81,o),
(2463,81,c),
(2467,81,o),
(2470,80,o),
(2474,80,c),
(2458,82,o),
(2442,86,o),
(2427,92,c),
(2431,91,o),
(2434,89,o),
(2437,88,c),
(2425,93,o),
(2414,100,o),
(2404,107,c),
(2404,107,o),
(2412,100,o),
(2408,104,c),
(2399,111,o),
(2392,119,o),
(2385,128,c),
(2385,127,o),
(2391,119,o),
(2387,124,c),
(2379,135,o),
(2373,147,o),
(2367,160,c),
(2369,157,o),
(2370,154,o),
(2371,150,c),
(2364,169,o),
(2359,188,o),
(2356,208,c),
(2357,197,l),
(2354,224,o),
(2354,251,o),
(2358,277,c),
(2356,266,l),
(2360,296,o),
(2368,326,o),
(2380,354,c),
(2378,351,o),
(2377,347,o),
(2376,344,c),
(2385,367,o),
(2397,388,o),
(2412,408,c),
(2409,403,o),
(2408,402,o),
(2408,402,c),
(2417,415,o),
(2432,430,o),
(2445,440,c),
(2436,432,o),
(2441,437,o),
(2443,439,c),
(2454,447,o),
(2466,454,o),
(2479,459,c),
(2476,458,o),
(2472,456,o),
(2469,455,c),
(2482,460,o),
(2496,464,o),
(2510,466,c),
(2506,465,o),
(2503,465,o),
(2499,465,c),
(2514,466,o),
(2528,466,o),
(2542,464,c),
(2538,465,o),
(2535,465,o),
(2531,466,c),
(2549,463,o),
(2565,458,o),
(2582,452,c),
(2578,453,o),
(2575,455,o),
(2572,456,c),
(2601,448,o),
(2624,414,o),
(2657,422,c),
(2691,431,o),
(2696,478,o),
(2666,496,c)
);
},
{
closed = 1;
nodes = (
(2627,370,o),
(2602,218,o),
(2626,70,c),
(2653,-78,o),
(2800,-21,o),
(2837,83,c),
(2838,117,o),
(2791,138,o),
(2768,111,c),
(2743,83,o),
(2733,70,o),
(2709,59,c),
(2712,60,o),
(2715,62,o),
(2719,63,c),
(2714,61,o),
(2710,60,o),
(2705,59,c),
(2708,59,o),
(2712,60,o),
(2715,60,c),
(2713,60,o),
(2710,60,o),
(2707,60,c),
(2710,60,o),
(2714,59,o),
(2718,59,c),
(2715,59,o),
(2712,60,o),
(2710,61,c),
(2713,60,o),
(2716,58,o),
(2719,57,c),
(2717,58,o),
(2715,59,o),
(2713,60,c),
(2709,63,o),
(2723,52,o),
(2718,57,c),
(2713,60,o),
(2710,69,o),
(2718,56,c),
(2714,61,o),
(2711,66,o),
(2709,71,c),
(2711,68,o),
(2712,65,o),
(2713,62,c),
(2706,78,o),
(2703,96,o),
(2700,114,c),
(2701,110,o),
(2701,107,o),
(2702,103,c),
(2690,208,o),
(2703,314,o),
(2716,418,c),
(2715,414,o),
(2715,411,o),
(2714,407,c),
(2715,446,o),
(2737,489,o),
(2724,526,c),
(2708,556,o),
(2657,551,o),
(2650,517,c)
);
},
{
closed = 1;
nodes = (
(3493,327,o),
(3518,162,o),
(3571,4,c),
(3582,-34,o),
(3638,-34,o),
(3649,4,c),
(3665,47,o),
(3682,89,o),
(3699,131,c),
(3698,128,o),
(3697,125,o),
(3695,121,c),
(3749,247,o),
(3808,371,o),
(3859,498,c),
(3835,494,o),
(3810,491,o),
(3785,488,c),
(3792,474,o),
(3798,460,o),
(3804,447,c),
(3803,450,o),
(3801,453,o),
(3800,456,c),
(3847,345,o),
(3872,227,o),
(3902,111,c),
(3919,70,o),
(3912,-6,o),
(3963,-18,c),
(3977,-20,o),
(3997,-13,o),
(4003,1,c),
(4050,106,o),
(4083,217,o),
(4127,323,c),
(4126,320,o),
(4125,317,o),
(4123,314,c),
(4146,367,o),
(4172,419,o),
(4204,466,c),
(4231,511,o),
(4161,552,o),
(4134,507,c),
(4042,371,o),
(4004,208,o),
(3940,58,c),
(3942,61,o),
(3943,65,o),
(3944,68,c),
(3941,59,o),
(3937,51,o),
(3933,42,c),
(3958,39,o),
(3983,36,o),
(4007,33,c),
(3974,101,o),
(3868,772,o),
(3762,472,c),
(3763,476,o),
(3765,479,o),
(3766,482,c),
(3702,330,o),
(3628,181,o),
(3571,26,c),
(3649,26,l),
(3596,183,o),
(3571,348,o),
(3529,509,c),
(3515,559,o),
(3436,538,o),
(3450,487,c)
);
},
{
closed = 1;
nodes = (
(4711,166,o),
(4699,621,o),
(4368,519,c),
(4201,452,o),
(4143,206,o),
(4259,69,c),
(4353,-47,o),
(4530,-21,o),
(4624,80,c),
(4663,132,o),
(4598,184,o),
(4540,114,c),
(4544,118,o),
(4545,119,o),
(4545,118,c),
(4529,105,o),
(4507,93,o),
(4487,84,c),
(4490,85,o),
(4494,87,o),
(4497,88,c),
(4479,81,o),
(4461,75,o),
(4442,73,c),
(4446,73,o),
(4449,74,o),
(4453,74,c),
(4436,72,o),
(4418,72,o),
(4401,74,c),
(4412,72,l),
(4397,75,o),
(4382,79,o),
(4368,84,c),
(4371,83,o),
(4374,82,o),
(4378,80,c),
(4344,96,o),
(4337,102,o),
(4313,129,c),
(4310,134,o),
(4316,126,o),
(4316,126,c),
(4306,139,o),
(4298,154,o),
(4291,169,c),
(4293,166,o),
(4294,162,o),
(4295,159,c),
(4288,177,o),
(4283,196,o),
(4280,215,c),
(4281,212,o),
(4281,208,o),
(4282,205,c),
(4278,229,o),
(4279,255,o),
(4282,279,c),
(4282,276,o),
(4281,272,o),
(4281,269,c),
(4285,297,o),
(4292,325,o),
(4303,351,c),
(4302,348,o),
(4300,344,o),
(4299,341,c),
(4304,354,o),
(4311,367,o),
(4318,378,c),
(4331,395,o),
(4366,433,o),
(4399,445,c),
(4396,444,o),
(4392,442,o),
(4389,441,c),
(4404,447,o),
(4420,451,o),
(4436,453,c),
(4425,452,l),
(4443,454,o),
(4462,456,o),
(4481,454,c),
(4470,455,l),
(4479,454,o),
(4488,452,o),
(4497,448,c),
(4494,450,o),
(4491,451,o),
(4488,452,c),
(4509,441,o),
(4502,446,o),
(4517,431,c),
(4519,429,o),
(4520,425,o),
(4514,435,c),
(4518,429,o),
(4522,422,o),
(4525,416,c),
(4524,419,o),
(4522,422,o),
(4521,425,c),
(4524,417,o),
(4527,408,o),
(4528,400,c),
(4528,403,o),
(4527,407,o),
(4527,410,c),
(4528,401,o),
(4528,391,o),
(4527,381,c),
(4527,385,o),
(4528,388,o),
(4528,392,c),
(4527,382,o),
(4524,373,o),
(4520,364,c),
(4522,367,o),
(4523,370,o),
(4524,374,c),
(4503,332,o),
(4489,324,o),
(4440,300,c),
(4443,301,o),
(4447,302,o),
(4450,304,c),
(4418,290,o),
(4385,283,o),
(4351,278,c),
(4362,280,l),
(4328,275,o),
(4294,274,o),
(4261,275,c),
(4208,275,o),
(4208,194,o),
(4261,194,c)
);
}
);
};
layerId = "5DCC9526-0CDB-4D46-AD68-9B34B77CA9D9";
name = "Original Variations";
shapes = (
{
closed = 1;
nodes = (
(81,68,o),
(81,101,o),
(81,134,cs),
(81,335,o),
(106,535,o),
(112,735,c),
(71,694,l),
(132,697,o),
(192,706,o),
(252,706,cs),
(274,706,o),
(295,705,o),
(316,702,c),
(305,704,l),
(326,701,o),
(347,696,o),
(366,688,cs),
(363,689,o),
(360,691,o),
(357,692,c),
(396,671,o),
(389,677,o),
(408,644,c),
(407,647,o),
(406,650,o),
(404,654,cs),
(409,642,o),
(412,630,o),
(414,618,c),
(412,629,l),
(413,620,o),
(414,611,o),
(414,602,cs),
(414,591,o),
(413,580,o),
(412,569,c),
(412,573,o),
(413,577,o),
(413,580,c),
(411,566,o),
(408,552,o),
(402,539,c),
(404,542,o),
(405,545,o),
(406,548,cs),
(402,537,o),
(395,526,o),
(388,517,c),
(392,523,o),
(393,524,o),
(393,524,c),
(391,521,ls),
(371,491,o),
(365,494,o),
(327,476,cs),
(330,477,o),
(334,478,o),
(337,480,c),
(304,466,o),
(201,451,o),
(235,454,cs),
(245,455,ls),
(303,461,o),
(128,448,o),
(70,447,c),
(70,366,l),
(95,368,o),
(121,370,o),
(146,370,cs),
(176,370,o),
(206,368,o),
(236,364,c),
(232,364,o),
(228,365,o),
(225,365,c),
(260,360,o),
(295,352,o),
(328,339,cs),
(325,340,o),
(322,341,o),
(318,343,cs),
(371,317,o),
(381,311,o),
(404,266,cs),
(402,270,o),
(401,273,o),
(399,276,c),
(405,263,o),
(408,250,o),
(410,236,c),
(410,240,o),
(409,243,o),
(409,247,c),
(410,238,o),
(410,230,o),
(410,222,cs),
(410,212,o),
(410,202,o),
(408,192,c),
(410,202,ls),
(413,217,o),
(404,172,o),
(400,157,cs),
(401,161,o),
(402,164,o),
(404,167,cs),
(383,136,o),
(369,122,o),
(322,100,c),
(325,102,o),
(329,103,o),
(332,105,c),
(304,93,o),
(275,87,o),
(246,83,c),
(249,83,o),
(253,84,o),
(257,84,c),
(227,80,o),
(197,79,o),
(167,79,cs),
(126,79,o),
(85,81,o),
(45,83,cs),
(23,84,o),
(3,64,o),
(4,43,cs),
(5,20,o),
(22,3,o),
(45,2,cs),
(85,0,o),
(125,-2,o),
(165,-2,cs),
(203,-2,o),
(240,0,o),
(278,6,cs),
(394,20,o),
(492,101,o),
(492,216,cs),
(492,230,o),
(491,245,o),
(488,260,cs),
(474,358,o),
(379,419,o),
(287,436,cs),
(245,443,o),
(190,452,o),
(138,452,cs),
(102,452,o),
(67,448,o),
(41,435,c),
(33,427,o),
(30,418,o),
(30,408,cs),
(30,386,o),
(46,365,o),
(70,366,cs),
(140,367,o),
(210,367,o),
(279,379,c),
(421,395,o),
(497,501,o),
(497,601,cs),
(497,696,o),
(429,785,o),
(282,786,cs),
(218,789,o),
(154,781,o),
(91,777,c),
(63,778,o),
(31,768,o),
(31,735,cs),
(25,535,o),
(0,335,o),
(0,134,cs),
(0,101,o),
(0,68,o),
(2,35,cs),
(2,9,o),
(22,-4,o),
(43,-4,cs),
(63,-4,o),
(83,9,o),
(83,35,cs)
);
},
{
closed = 1;
nodes = (
(918,36,ls),
(917,10,o),
(938,-3,o),
(958,-3,cs),
(979,-3,o),
(998,10,o),
(999,36,cs),
(1026,734,ls),
(1027,760,o),
(1006,773,o),
(986,773,cs),
(966,773,o),
(946,760,o),
(945,734,cs)
);
},
{
closed = 1;
nodes = (
(1054,689,o),
(1073,690,o),
(1091,690,cs),
(1117,690,o),
(1195,680,o),
(1169,685,cs),
(1158,687,ls),
(1130,692,o),
(1215,676,o),
(1241,665,c),
(1238,667,o),
(1235,668,o),
(1232,669,cs),
(1284,644,o),
(1294,636,o),
(1318,587,c),
(1317,590,o),
(1315,593,o),
(1314,597,c),
(1319,585,o),
(1321,572,o),
(1322,560,cs),
(1322,564,o),
(1321,567,o),
(1321,571,c),
(1322,564,o),
(1323,557,o),
(1323,550,cs),
(1323,542,o),
(1322,535,o),
(1321,528,c),
(1323,539,l),
(1321,527,o),
(1318,516,o),
(1314,506,cs),
(1315,509,o),
(1317,512,o),
(1318,515,c),
(1298,476,o),
(1290,471,o),
(1244,449,cs),
(1247,450,o),
(1251,451,o),
(1254,453,c),
(1229,442,o),
(1202,436,o),
(1175,432,c),
(1179,432,o),
(1182,433,o),
(1186,433,c),
(1169,431,o),
(1151,430,o),
(1133,430,cs),
(1115,430,o),
(1098,431,o),
(1080,433,c),
(1084,433,o),
(1088,432,o),
(1091,432,c),
(1088,432,o),
(1085,433,o),
(1081,434,c),
(1078,407,o),
(1074,380,o),
(1070,354,c),
(1088,357,o),
(1107,358,o),
(1125,358,cs),
(1142,358,o),
(1192,353,o),
(1175,355,cs),
(1165,356,l),
(1191,352,o),
(1217,346,o),
(1242,335,c),
(1239,337,o),
(1236,338,o),
(1233,339,cs),
(1291,311,o),
(1307,299,o),
(1332,248,c),
(1331,252,o),
(1329,255,o),
(1328,258,cs),
(1333,246,o),
(1336,234,o),
(1338,222,c),
(1337,232,l),
(1338,221,o),
(1338,209,o),
(1337,197,cs),
(1337,201,o),
(1338,204,o),
(1338,208,cs),
(1337,196,o),
(1334,185,o),
(1329,174,c),
(1333,184,l),
(1309,136,o),
(1293,126,o),
(1235,98,c),
(1245,102,ls),
(1274,114,o),
(1185,82,o),
(1154,76,c),
(1158,76,o),
(1161,77,o),
(1165,77,c),
(1141,74,o),
(1117,73,o),
(1094,73,cs),
(1024,73,o),
(955,83,o),
(886,87,cs),
(860,88,o),
(847,67,o),
(847,47,cs),
(847,27,o),
(860,6,o),
(886,6,c),
(953,1,o),
(1021,-8,o),
(1088,-8,cs),
(1132,-8,o),
(1175,-4,o),
(1217,7,cs),
(1316,29,o),
(1420,111,o),
(1420,215,cs),
(1420,233,o),
(1417,251,o),
(1410,270,cs),
(1373,377,o),
(1251,440,o),
(1137,440,cs),
(1104,440,o),
(1071,434,o),
(1042,423,c),
(1034,416,o),
(1031,405,o),
(1031,395,cs),
(1031,377,o),
(1041,359,o),
(1060,355,cs),
(1084,351,o),
(1110,349,o),
(1136,349,cs),
(1225,349,o),
(1318,375,o),
(1373,448,cs),
(1395,479,o),
(1404,513,o),
(1404,547,cs),
(1404,639,o),
(1333,729,o),
(1239,752,cs),
(1215,759,o),
(1145,773,o),
(1087,773,cs),
(1036,773,o),
(994,763,o),
(995,728,cs),
(996,708,o),
(1013,686,o),
(1036,688,cs)
);
},
{
closed = 1;
nodes = (
(1845,566,o),
(1837,388,o),
(1837,210,cs),
(1837,155,o),
(1837,101,o),
(1839,47,cs),
(1839,21,o),
(1860,8,o),
(1880,8,cs),
(1900,8,o),
(1921,21,o),
(1920,47,cs),
(1918,102,o),
(1918,156,o),
(1918,211,cs),
(1918,337,o),
(1922,463,o),
(1931,589,c),
(1928,620,o),
(1943,683,o),
(1943,728,cs),
(1943,747,o),
(1940,763,o),
(1932,771,cs),
(1924,779,o),
(1914,783,o),
(1904,783,cs),
(1883,783,o),
(1863,767,o),
(1863,743,c)
);
},
{
closed = 1;
nodes = (
(1952,702,o),
(1980,708,o),
(2008,712,c),
(2005,711,o),
(2001,711,o),
(1998,710,c),
(2022,713,o),
(2047,716,o),
(2072,716,cs),
(2090,716,o),
(2107,715,o),
(2125,712,cs),
(2114,714,l),
(2138,711,o),
(2162,705,o),
(2185,695,c),
(2182,697,o),
(2178,698,o),
(2175,699,c),
(2222,675,o),
(2222,677,o),
(2243,637,c),
(2242,641,o),
(2241,644,o),
(2239,647,c),
(2243,637,o),
(2246,627,o),
(2248,617,c),
(2247,620,o),
(2247,624,o),
(2246,628,c),
(2247,617,o),
(2247,605,o),
(2246,594,c),
(2246,598,o),
(2247,602,o),
(2247,605,cs),
(2246,592,o),
(2242,580,o),
(2237,568,c),
(2239,571,o),
(2240,574,o),
(2241,577,cs),
(2235,563,o),
(2227,550,o),
(2218,538,c),
(2222,544,o),
(2224,546,o),
(2224,546,c),
(2224,545,o),
(2221,541,o),
(2219,539,cs),
(2187,504,o),
(2173,495,o),
(2124,472,c),
(2127,474,o),
(2130,475,o),
(2134,477,cs),
(2100,462,o),
(2064,453,o),
(2027,448,c),
(2031,449,o),
(2035,449,o),
(2038,450,c),
(2013,447,o),
(1988,445,o),
(1962,445,cs),
(1933,445,o),
(1904,447,o),
(1876,451,cs),
(1886,450,ls),
(1883,450,o),
(1880,451,o),
(1877,451,c),
(1866,371,l),
(1918,375,o),
(1970,380,o),
(2023,380,cs),
(2050,380,o),
(2077,379,o),
(2104,375,c),
(2101,376,o),
(2097,376,o),
(2094,377,c),
(2123,373,o),
(2151,366,o),
(2178,355,cs),
(2175,356,o),
(2172,358,o),
(2169,359,cs),
(2185,352,o),
(2201,343,o),
(2216,332,cs),
(2210,336,o),
(2209,337,o),
(2210,337,c),
(2221,329,o),
(2232,317,o),
(2241,305,c),
(2240,307,o),
(2234,314,o),
(2239,309,c),
(2247,297,o),
(2255,284,o),
(2260,270,cs),
(2259,273,o),
(2258,276,o),
(2256,280,cs),
(2261,268,o),
(2265,256,o),
(2267,243,c),
(2265,254,l),
(2266,247,o),
(2267,239,o),
(2267,231,cs),
(2267,223,o),
(2266,216,o),
(2265,208,c),
(2267,219,l),
(2265,204,o),
(2261,190,o),
(2255,176,c),
(2259,186,l),
(2253,172,o),
(2245,158,o),
(2236,146,c),
(2235,143,o),
(2230,139,o),
(2239,149,c),
(2227,134,o),
(2213,120,o),
(2198,108,c),
(2208,117,o),
(2203,112,o),
(2200,110,cs),
(2181,96,o),
(2160,84,o),
(2138,75,cs),
(2141,76,o),
(2144,77,o),
(2148,79,cs),
(2124,69,o),
(2099,62,o),
(2074,58,c),
(2077,59,o),
(2081,59,o),
(2085,60,c),
(2060,57,o),
(2036,55,o),
(2011,55,cs),
(1960,55,o),
(1910,61,o),
(1860,67,cs),
(1850,68,o),
(1838,62,o),
(1831,55,cs),
(1823,47,o),
(1820,38,o),
(1820,28,cs),
(1820,7,o),
(1836,-14,o),
(1860,-14,c),
(1914,-20,o),
(1969,-27,o),
(2023,-26,cs),
(2234,-19,o),
(2349,108,o),
(2349,231,cs),
(2349,349,o),
(2243,464,o),
(2014,464,cs),
(1975,464,o),
(1934,461,o),
(1889,454,c),
(1853,459,o),
(1826,435,o),
(1826,410,cs),
(1826,396,o),
(1835,382,o),
(1856,373,c),
(1896,366,o),
(1934,362,o),
(1970,362,cs),
(2193,362,o),
(2329,496,o),
(2329,616,cs),
(2329,704,o),
(2254,785,o),
(2084,797,c),
(2023,798,o),
(1962,788,o),
(1902,774,cs),
(1882,768,o),
(1873,753,o),
(1873,737,cs),
(1873,716,o),
(1888,694,o),
(1912,694,cs),
(1916,694,o),
(1920,695,o),
(1924,696,cs)
);
},
{
closed = 1;
nodes = (
(2772,499,o),
(2767,270,o),
(2767,41,cs),
(2767,20,o),
(2786,0,o),
(2808,1,cs),
(2830,2,o),
(2848,19,o),
(2848,41,cs),
(2848,270,o),
(2853,499,o),
(2864,728,cs),
(2864,754,o),
(2844,767,o),
(2823,767,cs),
(2803,767,o),
(2783,754,o),
(2783,728,cs)
);
},
{
closed = 1;
nodes = (
(2844,687,o),
(2886,696,o),
(2928,702,c),
(2925,701,o),
(2921,701,o),
(2917,700,c),
(2946,704,o),
(2974,707,o),
(3003,707,cs),
(3023,707,o),
(3043,705,o),
(3062,703,cs),
(3059,703,o),
(3055,704,o),
(3051,704,c),
(3076,701,o),
(3100,695,o),
(3123,686,cs),
(3120,687,o),
(3116,688,o),
(3113,690,c),
(3141,676,o),
(3151,671,o),
(3166,656,c),
(3154,673,o),
(3175,643,o),
(3175,638,c),
(3174,642,o),
(3173,645,o),
(3171,648,c),
(3175,638,o),
(3178,628,o),
(3180,617,cs),
(3179,621,o),
(3179,625,o),
(3178,628,c),
(3179,622,o),
(3180,616,o),
(3180,610,cs),
(3180,603,o),
(3179,597,o),
(3178,591,c),
(3179,594,o),
(3179,598,o),
(3180,601,c),
(3177,586,o),
(3173,571,o),
(3167,557,c),
(3169,560,o),
(3170,563,o),
(3171,566,cs),
(3155,532,o),
(3152,528,o),
(3127,505,cs),
(3121,500,o),
(3128,505,o),
(3129,506,cs),
(3108,490,o),
(3084,478,o),
(3060,467,c),
(3063,469,o),
(3067,470,o),
(3070,471,cs),
(2987,437,o),
(2896,431,o),
(2810,410,cs),
(2791,406,o),
(2781,389,o),
(2781,371,cs),
(2781,357,o),
(2787,343,o),
(2800,336,c),
(2809,333,o),
(2818,332,o),
(2827,332,cs),
(2863,332,o),
(2901,349,o),
(2937,350,cs),
(2933,350,o),
(2930,349,o),
(2926,349,c),
(2952,352,o),
(2979,355,o),
(3005,355,cs),
(3020,355,o),
(3035,354,o),
(3050,352,c),
(3047,352,o),
(3043,353,o),
(3039,353,c),
(3060,350,o),
(3081,345,o),
(3101,337,c),
(3098,339,o),
(3094,340,o),
(3091,341,cs),
(3104,336,o),
(3117,329,o),
(3129,321,c),
(3131,319,o),
(3139,312,o),
(3129,321,cs),
(3136,315,o),
(3143,309,o),
(3148,302,c),
(3139,312,o),
(3146,305,o),
(3147,302,c),
(3153,295,o),
(3157,286,o),
(3161,278,c),
(3160,281,o),
(3158,284,o),
(3157,287,cs),
(3162,274,o),
(3166,260,o),
(3168,246,c),
(3167,256,l),
(3168,250,o),
(3168,244,o),
(3168,238,cs),
(3168,229,o),
(3167,219,o),
(3166,209,c),
(3167,212,o),
(3167,216,o),
(3168,220,c),
(3166,203,o),
(3161,187,o),
(3155,171,cs),
(3156,174,o),
(3157,178,o),
(3159,181,cs),
(3130,124,o),
(3108,105,o),
(3046,76,cs),
(3049,77,o),
(3052,79,o),
(3055,80,cs),
(3023,67,o),
(2921,51,o),
(2955,54,cs),
(2965,55,ls),
(2994,58,o),
(2906,50,o),
(2876,50,cs),
(2842,50,o),
(2807,52,o),
(2773,55,cs),
(2752,56,o),
(2732,36,o),
(2733,14,c),
(2730,-23,o),
(2787,-32,o),
(2848,-32,cs),
(2902,-32,o),
(2959,-25,o),
(2981,-24,c),
(3089,-10,o),
(3199,52,o),
(3236,159,cs),
(3244,182,o),
(3249,208,o),
(3249,233,cs),
(3249,293,o),
(3225,352,o),
(3175,386,cs),
(3124,423,o),
(3066,435,o),
(3006,435,cs),
(2940,435,o),
(2873,421,o),
(2810,410,c),
(2831,332,l),
(2973,365,o),
(3157,369,o),
(3235,513,cs),
(3253,548,o),
(3261,581,o),
(3261,610,cs),
(3261,725,o),
(3136,793,o),
(3006,788,cs),
(2937,788,o),
(2869,776,o),
(2802,760,c),
(2778,758,o),
(2751,742,o),
(2751,717,cs),
(2751,713,o),
(2752,709,o),
(2753,705,cs),
(2759,687,o),
(2774,676,o),
(2792,676,cs),
(2795,676,o),
(2799,676,o),
(2802,677,cs)
);
},
{
closed = 1;
nodes = (
(3700,486,o),
(3696,265,o),
(3678,45,cs),
(3677,19,o),
(3698,6,o),
(3718,6,cs),
(3739,6,o),
(3759,19,o),
(3759,45,c),
(3777,265,o),
(3781,486,o),
(3794,707,c),
(3794,733,o),
(3774,746,o),
(3754,746,cs),
(3733,746,o),
(3713,733,o),
(3713,707,c)
);
},
{
closed = 1;
nodes = (
(3733,692,o),
(3765,694,o),
(3798,694,cs),
(3834,694,o),
(3943,684,o),
(3907,687,cs),
(3896,688,ls),
(3856,692,o),
(3977,674,o),
(4014,658,cs),
(4011,659,o),
(4008,661,o),
(4004,662,c),
(4054,638,o),
(4064,633,o),
(4083,595,c),
(4079,605,l),
(4081,598,o),
(4083,591,o),
(4084,584,c),
(4083,588,o),
(4083,592,o),
(4082,595,c),
(4083,585,o),
(4083,575,o),
(4082,565,c),
(4084,576,l),
(4082,564,o),
(4079,552,o),
(4074,541,c),
(4078,551,l),
(4057,509,o),
(4048,500,o),
(4005,480,c),
(4009,481,o),
(4012,483,o),
(4015,484,cs),
(3988,473,o),
(3904,461,o),
(3932,464,cs),
(3942,465,l),
(3881,453,o),
(3801,463,o),
(3754,417,c),
(3751,407,o),
(3749,398,o),
(3749,391,cs),
(3749,366,o),
(3768,359,o),
(3792,359,cs),
(3823,359,o),
(3864,371,o),
(3887,373,c),
(3876,371,l),
(3899,374,o),
(3921,376,o),
(3944,376,cs),
(3959,376,o),
(3975,375,o),
(3990,373,c),
(3979,375,ls),
(3956,379,o),
(4024,366,o),
(4045,358,cs),
(4042,359,o),
(4038,360,o),
(4035,362,c),
(4050,355,o),
(4064,347,o),
(4077,337,cs),
(4076,338,o),
(4069,344,o),
(4074,340,cs),
(4100,316,o),
(4100,317,o),
(4117,284,cs),
(4115,287,o),
(4114,290,o),
(4113,293,cs),
(4118,280,o),
(4122,267,o),
(4124,252,c),
(4123,256,o),
(4123,260,o),
(4122,263,c),
(4123,257,o),
(4124,250,o),
(4124,244,cs),
(4124,237,o),
(4123,231,o),
(4122,224,c),
(4123,227,o),
(4123,231,o),
(4124,234,c),
(4122,221,o),
(4118,208,o),
(4113,195,c),
(4115,198,o),
(4116,202,o),
(4117,205,cs),
(4112,192,o),
(4105,180,o),
(4096,169,cs),
(4101,175,o),
(4101,176,o),
(4101,175,c),
(4093,164,o),
(4081,153,o),
(4070,144,cs),
(4075,148,o),
(4076,149,o),
(4075,149,c),
(4060,136,o),
(4038,124,o),
(4018,115,c),
(4021,117,o),
(4024,118,o),
(4027,119,cs),
(3997,107,o),
(3966,100,o),
(3934,95,c),
(3937,96,o),
(3941,96,o),
(3944,97,c),
(3853,85,o),
(3760,95,o),
(3669,77,c),
(3648,68,o),
(3639,53,o),
(3639,38,cs),
(3639,18,o),
(3658,-2,o),
(3688,-2,cs),
(3696,-2,o),
(3706,-1,o),
(3716,3,c),
(3706,2,ls),
(3583,-10,o),
(3960,-5,o),
(4075,53,c),
(4159,89,o),
(4203,168,o),
(4203,245,cs),
(4203,319,o),
(4164,392,o),
(4083,429,cs),
(4038,449,o),
(3992,457,o),
(3945,457,cs),
(3889,457,o),
(3833,446,o),
(3778,435,c),
(3785,409,o),
(3792,383,o),
(3800,357,c),
(3826,368,o),
(3854,373,o),
(3882,377,c),
(3878,377,o),
(3875,376,o),
(3871,376,cs),
(3949,385,o),
(4036,388,o),
(4098,443,cs),
(4143,482,o),
(4164,529,o),
(4164,575,cs),
(4164,647,o),
(4111,715,o),
(4023,741,c),
(3995,755,o),
(3878,776,o),
(3784,776,cs),
(3714,776,o),
(3657,764,o),
(3660,728,cs),
(3660,707,o),
(3679,687,o),
(3701,688,cs)
);
}
);
width = 4203;
},
{
associatedMasterId = m01;
background = {
shapes = (
{
closed = 1;
nodes = (
(108,493,o),
(115,258,o),
(85,25,c),
(85,-1,o),
(105,-14,o),
(126,-14,cs),
(146,-14,o),
(166,-1,o),
(166,25,c),
(196,258,o),
(189,493,o),
(216,726,c),
(216,752,o),
(196,765,o),
(175,765,cs),
(155,765,o),
(135,752,o),
(135,726,c)
);
},
{
closed = 1;
nodes = (
(197,687,o),
(213,690,o),
(229,692,c),
(218,690,l),
(248,694,o),
(279,697,o),
(310,697,cs),
(330,697,o),
(350,696,o),
(370,693,c),
(359,694,ls),
(385,691,o),
(410,685,o),
(434,675,c),
(430,676,o),
(427,678,o),
(424,679,cs),
(436,674,o),
(447,668,o),
(458,660,cs),
(461,658,o),
(468,652,o),
(458,661,cs),
(478,643,o),
(477,644,o),
(488,622,c),
(487,625,o),
(486,628,o),
(484,632,cs),
(488,623,o),
(490,615,o),
(491,606,c),
(491,609,o),
(490,613,o),
(490,617,c),
(491,606,o),
(491,596,o),
(490,586,c),
(490,590,o),
(491,593,o),
(491,597,c),
(490,586,o),
(487,575,o),
(482,565,c),
(484,568,o),
(485,572,o),
(487,575,c),
(462,523,o),
(435,505,o),
(375,476,cs),
(384,481,l),
(350,466,o),
(314,457,o),
(277,452,c),
(281,453,o),
(285,453,o),
(288,454,c),
(264,451,o),
(240,449,o),
(215,449,cs),
(193,449,o),
(170,451,o),
(148,453,cs),
(127,454,o),
(107,434,o),
(108,413,cs),
(108,377,o),
(152,366,o),
(205,366,cs),
(265,366,o),
(336,381,o),
(362,387,cs),
(489,416,o),
(570,515,o),
(570,606,cs),
(570,678,o),
(519,746,o),
(398,770,cs),
(379,773,o),
(334,778,o),
(285,778,cs),
(210,778,o),
(129,767,o),
(129,724,cs),
(129,720,o),
(130,716,o),
(131,712,cs),
(137,693,o),
(152,683,o),
(171,683,cs),
(174,683,o),
(178,683,o),
(181,684,cs)
);
},
{
closed = 1;
nodes = (
(266,374,o),
(304,373,o),
(341,368,cs),
(331,369,ls),
(369,364,o),
(407,355,o),
(443,340,cs),
(439,342,o),
(436,343,o),
(433,344,cs),
(451,337,o),
(469,327,o),
(485,316,c),
(488,313,o),
(481,318,o),
(481,318,c),
(506,297,o),
(508,296,o),
(521,269,c),
(520,272,o),
(518,275,o),
(517,278,cs),
(521,268,o),
(524,258,o),
(525,248,c),
(524,259,l),
(525,248,o),
(525,238,o),
(523,228,c),
(524,231,o),
(524,235,o),
(525,238,c),
(523,227,o),
(520,215,o),
(516,204,c),
(517,208,o),
(518,211,o),
(520,214,c),
(514,201,o),
(507,188,o),
(498,177,cs),
(500,179,o),
(501,181,o),
(502,182,cs),
(491,168,o),
(477,155,o),
(463,143,c),
(473,151,o),
(467,146,o),
(464,145,c),
(444,129,o),
(421,117,o),
(397,107,cs),
(400,108,o),
(403,110,o),
(407,111,c),
(370,96,o),
(331,86,o),
(291,81,c),
(295,81,o),
(299,82,o),
(302,82,cs),
(276,79,o),
(251,77,o),
(225,77,cs),
(195,77,o),
(165,79,o),
(136,83,c),
(139,83,o),
(143,83,o),
(147,82,cs),
(140,84,o),
(134,85,o),
(128,85,cs),
(101,85,o),
(85,62,o),
(85,41,cs),
(85,21,o),
(97,3,o),
(125,0,c),
(147,1,o),
(168,19,o),
(165,43,c),
(165,39,o),
(165,35,o),
(164,32,c),
(164,34,l),
(148,24,o),
(131,15,o),
(115,5,c),
(151,0,o),
(189,-3,o),
(227,-3,cs),
(341,-3,o),
(456,24,o),
(540,103,cs),
(585,145,o),
(605,193,o),
(605,240,cs),
(605,318,o),
(548,392,o),
(455,422,cs),
(428,432,o),
(335,456,o),
(266,456,cs),
(220,456,o),
(185,446,o),
(187,414,cs),
(188,392,o),
(205,373,o),
(228,374,cs)
);
}
);
};
layerId = "0D9B6BBC-3C9F-4C28-B93B-27CA25E6C906";
name = Original;
shapes = (
{
closed = 1;
nodes = (
(108,493,o),
(115,258,o),
(85,25,c),
(85,-1,o),
(105,-14,o),
(126,-14,cs),
(146,-14,o),
(166,-1,o),
(166,25,c),
(196,258,o),
(189,493,o),
(216,726,c),
(216,752,o),
(196,765,o),
(175,765,cs),
(155,765,o),
(135,752,o),
(135,726,c)
);
},
{
closed = 1;
nodes = (
(197,687,o),
(213,690,o),
(229,692,c),
(218,690,l),
(248,694,o),
(279,697,o),
(310,697,cs),
(330,697,o),
(350,696,o),
(370,693,c),
(359,694,ls),
(385,691,o),
(410,685,o),
(434,675,c),
(430,676,o),
(427,678,o),
(424,679,cs),
(436,674,o),
(447,668,o),
(458,660,cs),
(461,658,o),
(468,652,o),
(458,661,cs),
(478,643,o),
(477,644,o),
(488,622,c),
(487,625,o),
(486,628,o),
(484,632,cs),
(488,623,o),
(490,615,o),
(491,606,c),
(491,609,o),
(490,613,o),
(490,617,c),
(491,606,o),
(491,596,o),
(490,586,c),
(490,590,o),
(491,593,o),
(491,597,c),
(490,586,o),
(487,575,o),
(482,565,c),
(484,568,o),
(485,572,o),
(487,575,c),
(462,523,o),
(435,505,o),
(375,476,cs),
(384,481,l),
(350,466,o),
(314,457,o),
(277,452,c),
(281,453,o),
(285,453,o),
(288,454,c),
(264,451,o),
(240,449,o),
(215,449,cs),
(193,449,o),
(170,451,o),
(148,453,cs),
(127,454,o),
(107,434,o),
(108,413,cs),
(108,377,o),
(152,366,o),
(205,366,cs),
(265,366,o),
(336,381,o),
(362,387,cs),
(489,416,o),
(570,515,o),
(570,606,cs),
(570,678,o),
(519,746,o),
(398,770,cs),
(379,773,o),
(334,778,o),
(285,778,cs),
(210,778,o),
(129,767,o),
(129,724,cs),
(129,720,o),
(130,716,o),
(131,712,cs),
(137,693,o),
(152,683,o),
(171,683,cs),
(174,683,o),
(178,683,o),
(181,684,cs)
);
},
{
closed = 1;
nodes = (
(266,374,o),
(304,373,o),
(341,368,cs),
(331,369,ls),
(369,364,o),
(407,355,o),
(443,340,cs),
(439,342,o),
(436,343,o),
(433,344,cs),
(451,337,o),
(469,327,o),
(485,316,c),
(488,313,o),
(481,318,o),
(481,318,c),
(506,297,o),
(508,296,o),
(521,269,c),
(520,272,o),
(518,275,o),
(517,278,cs),
(521,268,o),
(524,258,o),
(525,248,c),
(524,259,l),
(525,248,o),
(525,238,o),
(523,228,c),
(524,231,o),
(524,235,o),
(525,238,c),
(523,227,o),
(520,215,o),
(516,204,c),
(517,208,o),
(518,211,o),
(520,214,c),
(514,201,o),
(507,188,o),
(498,177,cs),
(500,179,o),
(501,181,o),
(502,182,cs),
(491,168,o),
(477,155,o),
(463,143,c),
(473,151,o),
(467,146,o),
(464,145,c),
(444,129,o),
(421,117,o),
(397,107,cs),
(400,108,o),
(403,110,o),
(407,111,c),
(370,96,o),
(331,86,o),
(291,81,c),
(295,81,o),
(299,82,o),
(302,82,cs),
(276,79,o),
(251,77,o),
(225,77,cs),
(195,77,o),
(165,79,o),
(136,83,c),
(139,83,o),
(143,83,o),
(147,82,cs),
(140,84,o),
(134,85,o),
(128,85,cs),
(101,85,o),
(85,62,o),
(85,41,cs),
(85,21,o),
(97,3,o),
(125,0,c),
(147,1,o),
(168,19,o),
(165,43,c),
(165,39,o),
(165,35,o),
(164,32,c),
(164,34,l),
(148,24,o),
(131,15,o),
(115,5,c),
(151,0,o),
(189,-3,o),
(227,-3,cs),
(341,-3,o),
(456,24,o),
(540,103,cs),
(585,145,o),
(605,193,o),
(605,240,cs),
(605,318,o),
(548,392,o),
(455,422,cs),
(428,432,o),
(335,456,o),
(266,456,cs),
(220,456,o),
(185,446,o),
(187,414,cs),
(188,392,o),
(205,373,o),
(228,374,cs)
);
}
);
width = 660;
}
);
unicode = 66;
},
{
color = 6;
glyphname = B.alt1;
lastChange = "2023-01-02 14:53:39 +0000";
layers = (
{
background = {
shapes = (
{
closed = 1;
nodes = (
(173,65,o),
(173,98,o),
(173,131,cs),
(173,332,o),
(198,532,o),
(204,732,c),
(163,691,l),
(224,694,o),
(284,703,o),
(344,703,cs),
(366,703,o),
(387,702,o),
(408,699,c),
(397,701,l),
(418,698,o),
(439,693,o),
(458,685,cs),
(455,686,o),
(452,688,o),
(449,689,c),
(488,668,o),
(481,674,o),
(500,641,c),
(499,644,o),
(498,647,o),
(496,651,cs),
(501,639,o),
(504,627,o),
(506,615,c),
(504,626,l),
(505,617,o),
(506,608,o),
(506,599,cs),
(506,588,o),
(505,577,o),
(504,566,c),
(504,570,o),
(505,574,o),
(505,577,c),
(503,563,o),
(500,549,o),
(494,536,c),
(496,539,o),
(497,542,o),
(498,545,cs),
(494,534,o),
(487,523,o),
(480,514,c),
(484,520,o),
(485,521,o),
(485,521,c),
(483,518,ls),
(463,488,o),
(457,491,o),
(419,473,cs),
(422,474,o),
(426,475,o),
(429,477,c),
(396,463,o),
(293,448,o),
(327,451,cs),
(337,452,ls),
(395,458,o),
(220,445,o),
(162,444,c),
(162,363,l),
(187,365,o),
(213,367,o),
(238,367,cs),
(268,367,o),
(298,365,o),
(328,361,c),
(324,361,o),
(320,362,o),
(317,362,c),
(352,357,o),
(387,349,o),
(420,336,cs),
(417,337,o),
(414,338,o),
(410,340,cs),
(463,314,o),
(473,308,o),
(496,263,cs),
(494,267,o),
(493,270,o),
(491,273,c),
(497,260,o),
(500,247,o),
(502,233,c),
(502,237,o),
(501,240,o),
(501,244,c),
(502,235,o),
(502,227,o),
(502,219,cs),
(502,209,o),
(502,199,o),
(500,189,c),
(502,199,ls),
(505,214,o),
(496,169,o),
(492,154,cs),
(493,158,o),
(494,161,o),
(496,164,cs),
(475,133,o),
(461,119,o),
(414,97,c),
(417,99,o),
(421,100,o),
(424,102,c),
(396,90,o),
(367,84,o),
(338,80,c),
(341,80,o),
(345,81,o),
(349,81,c),
(319,77,o),
(289,76,o),
(259,76,cs),
(218,76,o),
(177,78,o),
(137,80,cs),
(115,81,o),
(95,61,o),
(96,40,cs),
(97,17,o),
(114,0,o),
(137,-1,cs),
(177,-3,o),
(217,-5,o),
(257,-5,cs),
(295,-5,o),
(332,-3,o),
(370,3,cs),
(486,17,o),
(584,98,o),
(584,213,cs),
(584,227,o),
(583,242,o),
(580,257,cs),
(566,355,o),
(471,416,o),
(379,433,cs),
(337,440,o),
(282,449,o),
(230,449,cs),
(194,449,o),
(159,445,o),
(133,432,c),
(125,424,o),
(122,415,o),
(122,405,cs),
(122,383,o),
(138,362,o),
(162,363,cs),
(232,364,o),
(302,364,o),
(371,376,c),
(513,392,o),
(589,498,o),
(589,598,cs),
(589,693,o),
(521,782,o),
(374,783,cs),
(310,786,o),
(246,778,o),
(183,774,c),
(155,775,o),
(123,765,o),
(123,732,cs),
(117,532,o),
(92,332,o),
(92,131,cs),
(92,98,o),
(92,65,o),
(94,32,cs),
(94,6,o),
(114,-7,o),
(135,-7,cs),
(155,-7,o),
(175,6,o),
(175,32,cs)
);
}
);
};
layerId = m01;
shapes = (
{
closed = 1;
nodes = (
(94,0,o),
(108,-5,o),
(137,-7,cs),
(170,-9,o),
(238,-11,o),
(292,-11,cs),
(448,-11,o),
(584,65,o),
(584,211,cs),
(584,290,o),
(548,364,o),
(443,398,c),
(546,428,o),
(589,517,o),
(589,592,cs),
(589,687,o),
(521,776,o),
(374,777,cs),
(310,780,o),
(243,775,o),
(180,769,cs),
(152,766,o),
(123,757,o),
(123,724,cs),
(117,524,o),
(92,326,o),
(92,125,cs),
(92,92,o),
(92,59,o),
(94,26,cs)
);
},
{
closed = 1;
nodes = (
(230,67,o),
(202,68,o),
(173,69,c),
(173,203,o),
(177,280,o),
(182,357,c),
(319,369,o),
(502,344,o),
(502,216,cs),
(502,93,o),
(378,67,o),
(279,67,cs)
);
},
{
closed = 1;
nodes = (
(193,523,o),
(199,607,o),
(203,690,c),
(250,695,o),
(294,699,o),
(351,699,cs),
(464,699,o),
(506,660,o),
(506,593,cs),
(506,445,o),
(322,438,o),
(187,441,c)
);
}
);
width = 640;
},
{
associatedMasterId = m01;
layerId = "D1A5F7B8-7E33-444F-B28D-7B3BB84F0327";
name = "29 Nov 22 at 09:52";
shapes = (
{
closed = 1;
nodes = (
(166,65,o),
(166,98,o),
(166,131,cs),
(166,332,o),
(191,532,o),
(197,732,c),
(156,691,l),
(217,694,o),
(277,703,o),
(337,703,cs),
(359,703,o),
(380,702,o),
(401,699,c),
(390,701,l),
(411,698,o),
(432,693,o),
(451,685,cs),
(448,686,o),
(445,688,o),
(442,689,c),
(481,668,o),
(474,674,o),
(493,641,c),
(492,644,o),
(491,647,o),
(489,651,cs),
(494,639,o),
(497,627,o),
(499,615,c),
(497,626,l),
(498,617,o),
(499,608,o),
(499,599,cs),
(499,588,o),
(498,577,o),
(497,566,c),
(497,570,o),
(498,574,o),
(498,577,c),
(496,563,o),
(493,549,o),
(487,536,c),
(489,539,o),
(490,542,o),
(491,545,cs),
(487,534,o),
(480,523,o),
(473,514,c),
(477,520,o),
(478,521,o),
(478,521,c),
(476,518,ls),
(456,488,o),
(450,491,o),
(412,473,cs),
(415,474,o),
(419,475,o),
(422,477,c),
(389,463,o),
(286,448,o),
(320,451,cs),
(330,452,ls),
(388,458,o),
(213,445,o),
(155,444,c),
(155,363,l),
(180,365,o),
(206,367,o),
(231,367,cs),
(261,367,o),
(291,365,o),
(321,361,c),
(317,361,o),
(313,362,o),
(310,362,c),
(345,357,o),
(380,349,o),
(413,336,cs),
(410,337,o),
(407,338,o),
(403,340,cs),
(456,314,o),
(466,308,o),
(489,263,cs),
(487,267,o),
(486,270,o),
(484,273,c),
(490,260,o),
(493,247,o),
(495,233,c),
(495,237,o),
(494,240,o),
(494,244,c),
(495,235,o),
(495,227,o),
(495,219,cs),
(495,209,o),
(495,199,o),
(493,189,c),
(495,199,ls),
(498,214,o),
(489,169,o),
(485,154,cs),
(486,158,o),
(487,161,o),
(489,164,cs),
(468,133,o),
(454,119,o),
(407,97,c),
(410,99,o),
(414,100,o),
(417,102,c),
(389,90,o),
(360,84,o),
(331,80,c),
(334,80,o),
(338,81,o),
(342,81,c),
(312,77,o),
(282,76,o),
(252,76,cs),
(211,76,o),
(170,78,o),
(130,80,cs),
(108,81,o),
(88,61,o),
(89,40,cs),
(90,17,o),
(107,0,o),
(130,-1,cs),
(170,-3,o),
(210,-5,o),
(250,-5,cs),
(288,-5,o),
(325,-3,o),
(363,3,cs),
(479,17,o),
(577,98,o),
(577,213,cs),
(577,227,o),
(576,242,o),
(573,257,cs),
(559,355,o),
(464,416,o),
(372,433,cs),
(330,440,o),
(275,449,o),
(223,449,cs),
(187,449,o),
(152,445,o),
(126,432,c),
(118,424,o),
(115,415,o),
(115,405,cs),
(115,383,o),
(131,362,o),
(155,363,cs),
(225,364,o),
(295,364,o),
(364,376,c),
(506,392,o),
(582,498,o),
(582,598,cs),
(582,693,o),
(514,782,o),
(367,783,cs),
(303,786,o),
(239,778,o),
(176,774,c),
(148,775,o),
(116,765,o),
(116,732,cs),
(110,532,o),
(85,332,o),
(85,131,cs),
(85,98,o),
(85,65,o),
(87,32,cs),
(87,6,o),
(107,-7,o),
(128,-7,cs),
(148,-7,o),
(168,6,o),
(168,32,cs)
);
}
);
width = 637;
}
);
metricLeft = B;
metricRight = B;
},
{
color = 6;
glyphname = B.alt2;
lastChange = "2023-01-02 14:53:39 +0000";
layers = (
{
background = {
shapes = (
{
closed = 1;
nodes = (
(158,36,ls),
(157,10,o),
(178,-3,o),
(198,-3,cs),
(219,-3,o),
(238,10,o),
(239,36,cs),
(266,734,ls),
(267,760,o),
(246,773,o),
(226,773,cs),
(206,773,o),
(186,760,o),
(185,734,cs)
);
},
{
closed = 1;
nodes = (
(294,689,o),
(313,690,o),
(331,690,cs),
(357,690,o),
(435,680,o),
(409,685,cs),
(398,687,ls),
(370,692,o),
(455,676,o),
(481,665,c),
(478,667,o),
(475,668,o),
(472,669,cs),
(524,644,o),
(534,636,o),
(558,587,c),
(557,590,o),
(555,593,o),
(554,597,c),
(559,585,o),
(561,572,o),
(562,560,cs),
(562,564,o),
(561,567,o),
(561,571,c),
(562,564,o),
(563,557,o),
(563,550,cs),
(563,542,o),
(562,535,o),
(561,528,c),
(563,539,l),
(561,527,o),
(558,516,o),
(554,506,cs),
(555,509,o),
(557,512,o),
(558,515,c),
(538,476,o),
(530,471,o),
(484,449,cs),
(487,450,o),
(491,451,o),
(494,453,c),
(469,442,o),
(442,436,o),
(415,432,c),
(419,432,o),
(422,433,o),
(426,433,c),
(409,431,o),
(391,430,o),
(373,430,cs),
(355,430,o),
(338,431,o),
(320,433,c),
(324,433,o),
(328,432,o),
(331,432,c),
(328,432,o),
(325,433,o),
(321,434,c),
(318,407,o),
(314,380,o),
(310,354,c),
(328,357,o),
(347,358,o),
(365,358,cs),
(382,358,o),
(432,353,o),
(415,355,cs),
(405,356,l),
(431,352,o),
(457,346,o),
(482,335,c),
(479,337,o),
(476,338,o),
(473,339,cs),
(531,311,o),
(547,299,o),
(572,248,c),
(571,252,o),
(569,255,o),
(568,258,cs),
(573,246,o),
(576,234,o),
(578,222,c),
(577,232,l),
(578,221,o),
(578,209,o),
(577,197,cs),
(577,201,o),
(578,204,o),
(578,208,cs),
(577,196,o),
(574,185,o),
(569,174,c),
(573,184,l),
(549,136,o),
(533,126,o),
(475,98,c),
(485,102,ls),
(514,114,o),
(425,82,o),
(394,76,c),
(398,76,o),
(401,77,o),
(405,77,c),
(381,74,o),
(357,73,o),
(334,73,cs),
(264,73,o),
(195,83,o),
(126,87,cs),
(100,88,o),
(87,67,o),
(87,47,cs),
(87,27,o),
(100,6,o),
(126,6,c),
(193,1,o),
(261,-8,o),
(328,-8,cs),
(372,-8,o),
(415,-4,o),
(457,7,cs),
(556,29,o),
(660,111,o),
(660,215,cs),
(660,233,o),
(657,251,o),
(650,270,cs),
(613,377,o),
(491,440,o),
(377,440,cs),
(344,440,o),
(311,434,o),
(282,423,c),
(274,416,o),
(271,405,o),
(271,395,cs),
(271,377,o),
(281,359,o),
(300,355,cs),
(324,351,o),
(350,349,o),
(376,349,cs),
(465,349,o),
(558,375,o),
(613,448,cs),
(635,479,o),
(644,513,o),
(644,547,cs),
(644,639,o),
(573,729,o),
(479,752,cs),
(455,759,o),
(385,773,o),
(327,773,cs),
(276,773,o),
(234,763,o),
(235,728,cs),
(236,708,o),
(253,686,o),
(276,688,cs)
);
}
);
};
layerId = m01;
shapes = (
{
closed = 1;
nodes = (
(160,82,l),
(149,83,o),
(137,84,o),
(126,85,cs),
(100,86,o),
(87,67,o),
(87,47,cs),
(87,27,o),
(98,9,o),
(126,6,cs),
(165,2,o),
(289,-8,o),
(328,-8,cs),
(538,-8,o),
(660,101,o),
(660,215,cs),
(660,278,o),
(619,347,o),
(535,391,c),
(604,424,o),
(644,475,o),
(644,547,cs),
(644,680,o),
(519,773,o),
(339,773,cs),
(299,773,o),
(273,770,o),
(256,761,c),
(248,769,o),
(237,773,o),
(226,773,cs),
(206,773,o),
(186,760,o),
(185,734,cs)
);
},
{
closed = 1;
nodes = (
(264,692,l),
(268,691,o),
(272,691,o),
(276,691,cs),
(294,692,o),
(307,693,o),
(325,693,cs),
(480,693,o),
(563,642,o),
(563,545,cs),
(563,497,o),
(523,451,o),
(439,431,c),
(414,438,o),
(386,440,o),
(367,440,cs),
(332,440,o),
(271,430,o),
(271,395,cs),
(271,358,o),
(304,352,o),
(376,352,cs),
(393,352,o),
(410,353,o),
(427,358,c),
(515,337,o),
(578,276,o),
(578,213,cs),
(578,133,o),
(466,70,o),
(334,70,cs),
(303,70,o),
(272,72,o),
(241,75,c)
);
}
);
width = 716;
},
{
associatedMasterId = m01;
layerId = "ADCA7F2E-B851-4548-B8BA-B4DCF3539F1B";
name = "29 Nov 22 at 09:53";
shapes = (
{
closed = 1;
nodes = (
(156,36,ls),
(155,10,o),
(176,-3,o),
(196,-3,cs),
(217,-3,o),
(236,10,o),
(237,36,cs),
(264,734,ls),
(265,760,o),
(244,773,o),
(224,773,cs),
(204,773,o),
(184,760,o),
(183,734,cs)
);
},
{
closed = 1;
nodes = (
(292,689,o),
(311,690,o),
(329,690,cs),
(355,690,o),
(433,680,o),
(407,685,cs),
(396,687,ls),
(368,692,o),
(453,676,o),
(479,665,c),
(476,667,o),
(473,668,o),
(470,669,cs),
(522,644,o),
(532,636,o),
(556,587,c),
(555,590,o),
(553,593,o),
(552,597,c),
(557,585,o),
(559,572,o),
(560,560,cs),
(560,564,o),
(559,567,o),
(559,571,c),
(560,564,o),
(561,557,o),
(561,550,cs),
(561,542,o),
(560,535,o),
(559,528,c),
(561,539,l),
(559,527,o),
(556,516,o),
(552,506,cs),
(553,509,o),
(555,512,o),
(556,515,c),
(536,476,o),
(528,471,o),
(482,449,cs),
(485,450,o),
(489,451,o),
(492,453,c),
(467,442,o),
(440,436,o),
(413,432,c),
(417,432,o),
(420,433,o),
(424,433,c),
(407,431,o),
(389,430,o),
(371,430,cs),
(353,430,o),
(336,431,o),
(318,433,c),
(322,433,o),
(326,432,o),
(329,432,c),
(326,432,o),
(323,433,o),
(319,434,c),
(316,407,o),
(312,380,o),
(308,354,c),
(326,357,o),
(345,358,o),
(363,358,cs),
(380,358,o),
(430,353,o),
(413,355,cs),
(403,356,l),
(429,352,o),
(455,346,o),
(480,335,c),
(477,337,o),
(474,338,o),
(471,339,cs),
(529,311,o),
(545,299,o),
(570,248,c),
(569,252,o),
(567,255,o),
(566,258,cs),
(571,246,o),
(574,234,o),
(576,222,c),
(575,232,l),
(576,221,o),
(576,209,o),
(575,197,cs),
(575,201,o),
(576,204,o),
(576,208,cs),
(575,196,o),
(572,185,o),
(567,174,c),
(571,184,l),
(547,136,o),
(531,126,o),
(473,98,c),
(483,102,ls),
(512,114,o),
(423,82,o),
(392,76,c),
(396,76,o),
(399,77,o),
(403,77,c),
(379,74,o),
(355,73,o),
(332,73,cs),
(262,73,o),
(193,83,o),
(124,87,cs),
(98,88,o),
(85,67,o),
(85,47,cs),
(85,27,o),
(98,6,o),
(124,6,c),
(191,1,o),
(259,-8,o),
(326,-8,cs),
(370,-8,o),
(413,-4,o),
(455,7,cs),
(554,29,o),
(658,111,o),
(658,215,cs),
(658,233,o),
(655,251,o),
(648,270,cs),
(611,377,o),
(489,440,o),
(375,440,cs),
(342,440,o),
(309,434,o),
(280,423,c),
(272,416,o),
(269,405,o),
(269,395,cs),
(269,377,o),
(279,359,o),
(298,355,cs),
(322,351,o),
(348,349,o),
(374,349,cs),
(463,349,o),
(556,375,o),
(611,448,cs),
(633,479,o),
(642,513,o),
(642,547,cs),
(642,639,o),
(571,729,o),
(477,752,cs),
(453,759,o),
(383,773,o),
(325,773,cs),
(274,773,o),
(232,763,o),
(233,728,cs),
(234,708,o),
(251,686,o),
(274,688,cs)
);
}
);
width = 713;
}
);
metricLeft = B;
metricRight = B;
},
{
color = 6;
glyphname = B.alt3;
lastChange = "2023-01-02 14:53:39 +0000";
layers = (
{
background = {
shapes = (
{
closed = 1;
nodes = (
(119,566,o),
(111,388,o),
(111,210,cs),
(111,155,o),
(111,101,o),
(113,47,cs),
(113,21,o),
(134,8,o),
(154,8,cs),
(174,8,o),
(195,21,o),
(194,47,cs),
(192,102,o),
(192,156,o),
(192,211,cs),
(192,337,o),
(196,463,o),
(205,589,c),
(202,620,o),
(217,683,o),
(217,728,cs),
(217,747,o),
(214,763,o),
(206,771,cs),
(198,779,o),
(188,783,o),
(178,783,cs),
(157,783,o),
(137,767,o),
(137,743,c)
);
},
{
closed = 1;
nodes = (
(226,702,o),
(254,708,o),
(282,712,c),
(279,711,o),
(275,711,o),
(272,710,c),
(296,713,o),
(321,716,o),
(346,716,cs),
(364,716,o),
(381,715,o),
(399,712,cs),
(388,714,l),
(412,711,o),
(436,705,o),
(459,695,c),
(456,697,o),
(452,698,o),
(449,699,c),
(496,675,o),
(496,677,o),
(517,637,c),
(516,641,o),
(515,644,o),
(513,647,c),
(517,637,o),
(520,627,o),
(522,617,c),
(521,620,o),
(521,624,o),
(520,628,c),
(521,617,o),
(521,605,o),
(520,594,c),
(520,598,o),
(521,602,o),
(521,605,cs),
(520,592,o),
(516,580,o),
(511,568,c),
(513,571,o),
(514,574,o),
(515,577,cs),
(509,563,o),
(501,550,o),
(492,538,c),
(496,544,o),
(498,546,o),
(498,546,c),
(498,545,o),
(495,541,o),
(493,539,cs),
(461,504,o),
(447,495,o),
(398,472,c),
(401,474,o),
(404,475,o),
(408,477,cs),
(374,462,o),
(338,453,o),
(301,448,c),
(305,449,o),
(309,449,o),
(312,450,c),
(287,447,o),
(262,445,o),
(236,445,cs),
(207,445,o),
(178,447,o),
(150,451,cs),
(160,450,ls),
(157,450,o),
(154,451,o),
(151,451,c),
(140,371,l),
(192,375,o),
(244,380,o),
(297,380,cs),
(324,380,o),
(351,379,o),
(378,375,c),
(375,376,o),
(371,376,o),
(368,377,c),
(397,373,o),
(425,366,o),
(452,355,cs),
(449,356,o),
(446,358,o),
(443,359,cs),
(459,352,o),
(475,343,o),
(490,332,cs),
(484,336,o),
(483,337,o),
(484,337,c),
(495,329,o),
(506,317,o),
(515,305,c),
(514,307,o),
(508,314,o),
(513,309,c),
(521,297,o),
(529,284,o),
(534,270,cs),
(533,273,o),
(532,276,o),
(530,280,cs),
(535,268,o),
(539,256,o),
(541,243,c),
(539,254,l),
(540,247,o),
(541,239,o),
(541,231,cs),
(541,223,o),
(540,216,o),
(539,208,c),
(541,219,l),
(539,204,o),
(535,190,o),
(529,176,c),
(533,186,l),
(527,172,o),
(519,158,o),
(510,146,c),
(509,143,o),
(504,139,o),
(513,149,c),
(501,134,o),
(487,120,o),
(472,108,c),
(482,117,o),
(477,112,o),
(474,110,cs),
(455,96,o),
(434,84,o),
(412,75,cs),
(415,76,o),
(418,77,o),
(422,79,cs),
(398,69,o),
(373,62,o),
(348,58,c),
(351,59,o),
(355,59,o),
(359,60,c),
(334,57,o),
(310,55,o),
(285,55,cs),
(234,55,o),
(184,61,o),
(134,67,cs),
(124,68,o),
(112,62,o),
(105,55,cs),
(97,47,o),
(94,38,o),
(94,28,cs),
(94,7,o),
(110,-14,o),
(134,-14,c),
(188,-20,o),
(243,-27,o),
(297,-26,cs),
(508,-19,o),
(623,108,o),
(623,231,cs),
(623,349,o),
(517,464,o),
(288,464,cs),
(249,464,o),
(208,461,o),
(163,454,c),
(127,459,o),
(100,435,o),
(100,410,cs),
(100,396,o),
(109,382,o),
(130,373,c),
(170,366,o),
(208,362,o),
(244,362,cs),
(467,362,o),
(603,496,o),
(603,616,cs),
(603,704,o),
(528,785,o),
(358,797,c),
(297,798,o),
(236,788,o),
(176,774,cs),
(156,768,o),
(147,753,o),
(147,737,cs),
(147,716,o),
(162,694,o),
(186,694,cs),
(190,694,o),
(194,695,o),
(198,696,cs)
);
}
);
};
layerId = m01;
shapes = (
{
closed = 1;
nodes = (
(246,712,o),
(302,719,o),
(346,719,cs),
(459,719,o),
(522,671,o),
(522,613,cs),
(522,548,o),
(452,482,o),
(360,456,c),
(337,462,o),
(306,464,o),
(281,464,cs),
(242,464,o),
(203,462,o),
(158,454,cs),
(122,448,o),
(100,435,o),
(100,410,cs),
(100,386,o),
(119,375,o),
(140,371,cs),
(184,364,o),
(211,362,o),
(244,362,cs),
(288,362,o),
(329,367,o),
(366,377,c),
(475,363,o),
(541,308,o),
(541,231,cs),
(541,139,o),
(436,54,o),
(296,54,cs),
(234,54,o),
(184,60,o),
(134,66,cs),
(119,67,o),
(94,55,o),
(94,28,cs),
(94,7,o),
(110,-12,o),
(134,-15,cs),
(188,-22,o),
(243,-25,o),
(297,-24,cs),
(508,-17,o),
(623,108,o),
(623,231,cs),
(623,308,o),
(565,397,o),
(466,427,c),
(560,472,o),
(603,549,o),
(603,616,cs),
(603,704,o),
(528,794,o),
(358,797,cs),
(297,798,o),
(236,788,o),
(176,774,cs),
(156,768,o),
(147,753,o),
(147,737,cs),
(147,708,o),
(170,691,o),
(198,699,cs)
);
},
{
closed = 1;
nodes = (
(122,560,o),
(111,388,o),
(111,210,cs),
(111,155,o),
(111,101,o),
(113,47,cs),
(113,21,o),
(134,8,o),
(154,8,cs),
(174,8,o),
(195,21,o),
(194,47,cs),
(192,102,o),
(192,156,o),
(192,211,cs),
(192,430,o),
(204,608,o),
(217,728,cs),
(221,760,o),
(207,783,o),
(178,783,cs),
(157,783,o),
(139,767,o),
(137,743,cs)
);
}
);
width = 678;
}
);
metricLeft = B;
metricRight = B;
},
{
color = 6;
glyphname = B.alt4;
lastChange = "2023-01-02 14:53:40 +0000";
layers = (
{
background = {
shapes = (
{
closed = 1;
nodes = (
(132,499,o),
(127,270,o),
(127,41,cs),
(127,20,o),
(146,0,o),
(168,1,cs),
(190,2,o),
(208,19,o),
(208,41,cs),
(208,270,o),
(213,499,o),
(224,728,cs),
(224,754,o),
(204,767,o),
(183,767,cs),
(163,767,o),
(143,754,o),
(143,728,cs)
);
},
{
closed = 1;
nodes = (
(204,687,o),
(246,696,o),
(288,702,c),
(285,701,o),
(281,701,o),
(277,700,c),
(306,704,o),
(334,707,o),
(363,707,cs),
(383,707,o),
(403,705,o),
(422,703,cs),
(419,703,o),
(415,704,o),
(411,704,c),
(436,701,o),
(460,695,o),
(483,686,cs),
(480,687,o),
(476,688,o),
(473,690,c),
(501,676,o),
(511,671,o),
(526,656,c),
(514,673,o),
(535,643,o),
(535,638,c),
(534,642,o),
(533,645,o),
(531,648,c),
(535,638,o),
(538,628,o),
(540,617,cs),
(539,621,o),
(539,625,o),
(538,628,c),
(539,622,o),
(540,616,o),
(540,610,cs),
(540,603,o),
(539,597,o),
(538,591,c),
(539,594,o),
(539,598,o),
(540,601,c),
(537,586,o),
(533,571,o),
(527,557,c),
(529,560,o),
(530,563,o),
(531,566,cs),
(515,532,o),
(512,528,o),
(487,505,cs),
(481,500,o),
(488,505,o),
(489,506,cs),
(468,490,o),
(444,478,o),
(420,467,c),
(423,469,o),
(427,470,o),
(430,471,cs),
(347,437,o),
(256,431,o),
(170,410,cs),
(151,406,o),
(141,389,o),
(141,371,cs),
(141,357,o),
(147,343,o),
(160,336,c),
(169,333,o),
(178,332,o),
(187,332,cs),
(223,332,o),
(261,349,o),
(297,350,cs),
(293,350,o),
(290,349,o),
(286,349,c),
(312,352,o),
(339,355,o),
(365,355,cs),
(380,355,o),
(395,354,o),
(410,352,c),
(407,352,o),
(403,353,o),
(399,353,c),
(420,350,o),
(441,345,o),
(461,337,c),
(458,339,o),
(454,340,o),
(451,341,cs),
(464,336,o),
(477,329,o),
(489,321,c),
(491,319,o),
(499,312,o),
(489,321,cs),
(496,315,o),
(503,309,o),
(508,302,c),
(499,312,o),
(506,305,o),
(507,302,c),
(513,295,o),
(517,286,o),
(521,278,c),
(520,281,o),
(518,284,o),
(517,287,cs),
(522,274,o),
(526,260,o),
(528,246,c),
(527,256,l),
(528,250,o),
(528,244,o),
(528,238,cs),
(528,229,o),
(527,219,o),
(526,209,c),
(527,212,o),
(527,216,o),
(528,220,c),
(526,203,o),
(521,187,o),
(515,171,cs),
(516,174,o),
(517,178,o),
(519,181,cs),
(490,124,o),
(468,105,o),
(406,76,cs),
(409,77,o),
(412,79,o),
(415,80,cs),
(383,67,o),
(281,51,o),
(315,54,cs),
(325,55,ls),
(354,58,o),
(266,50,o),
(236,50,cs),
(202,50,o),
(167,52,o),
(133,55,cs),
(112,56,o),
(92,36,o),
(93,14,c),
(90,-23,o),
(147,-32,o),
(208,-32,cs),
(262,-32,o),
(319,-25,o),
(341,-24,c),
(449,-10,o),
(559,52,o),
(596,159,cs),
(604,182,o),
(609,208,o),
(609,233,cs),
(609,293,o),
(585,352,o),
(535,386,cs),
(484,423,o),
(426,435,o),
(366,435,cs),
(300,435,o),
(233,421,o),
(170,410,c),
(191,332,l),
(333,365,o),
(517,369,o),
(595,513,cs),
(613,548,o),
(621,581,o),
(621,610,cs),
(621,725,o),
(496,793,o),
(366,788,cs),
(297,788,o),
(229,776,o),
(162,760,c),
(138,758,o),
(111,742,o),
(111,717,cs),
(111,713,o),
(112,709,o),
(113,705,cs),
(119,687,o),
(134,676,o),
(152,676,cs),
(155,676,o),
(159,676,o),
(162,677,cs)
);
}
);
};
layerId = m01;
shapes = (
{
closed = 1;
nodes = (
(228,693,o),
(303,707,o),
(363,707,cs),
(471,707,o),
(540,669,o),
(540,610,cs),
(540,514,o),
(443,443,o),
(185,414,cs),
(153,410,o),
(141,389,o),
(141,371,cs),
(141,339,o),
(168,328,o),
(197,333,cs),
(261,346,o),
(321,357,o),
(365,357,cs),
(474,357,o),
(528,306,o),
(528,238,cs),
(528,110,o),
(401,50,o),
(236,50,cs),
(202,50,o),
(167,52,o),
(133,55,cs),
(112,56,o),
(96,40,o),
(96,18,cs),
(96,-2,o),
(107,-14,o),
(136,-21,cs),
(160,-26,o),
(192,-28,o),
(230,-28,cs),
(400,-28,o),
(609,33,o),
(609,233,cs),
(609,330,o),
(553,384,o),
(474,411,c),
(571,452,o),
(621,534,o),
(621,610,cs),
(621,725,o),
(496,790,o),
(366,785,cs),
(297,785,o),
(230,771,o),
(162,758,cs),
(138,753,o),
(111,739,o),
(111,717,cs),
(111,691,o),
(136,671,o),
(162,677,cs)
);
},
{
closed = 1;
nodes = (
(133,490,o),
(127,270,o),
(127,41,cs),
(127,20,o),
(146,0,o),
(168,1,cs),
(190,2,o),
(208,19,o),
(208,41,cs),
(208,270,o),
(214,490,o),
(224,717,cs),
(225,745,o),
(205,758,o),
(184,758,cs),
(164,758,o),
(144,745,o),
(143,717,cs)
);
}
);
width = 664;
},
{
associatedMasterId = m01;
background = {
shapes = (
{
closed = 1;
nodes = (
(132,499,o),
(127,270,o),
(127,41,cs),
(127,20,o),
(146,0,o),
(168,1,cs),
(190,2,o),
(208,19,o),
(208,41,cs),
(208,270,o),
(213,499,o),
(224,728,cs),
(224,754,o),
(204,767,o),
(183,767,cs),
(163,767,o),
(143,754,o),
(143,728,cs)
);
},
{
closed = 1;
nodes = (
(204,687,o),
(246,696,o),
(288,702,c),
(285,701,o),
(281,701,o),
(277,700,c),
(306,704,o),
(334,707,o),
(363,707,cs),
(383,707,o),
(403,705,o),
(422,703,cs),
(419,703,o),
(415,704,o),
(411,704,c),
(436,701,o),
(460,695,o),
(483,686,cs),
(480,687,o),
(476,688,o),
(473,690,c),
(501,676,o),
(511,671,o),
(526,656,c),
(514,673,o),
(535,643,o),
(535,638,c),
(534,642,o),
(533,645,o),
(531,648,c),
(535,638,o),
(538,628,o),
(540,617,cs),
(539,621,o),
(539,625,o),
(538,628,c),
(539,622,o),
(540,616,o),
(540,610,cs),
(540,603,o),
(539,597,o),
(538,591,c),
(539,594,o),
(539,598,o),
(540,601,c),
(537,586,o),
(533,571,o),
(527,557,c),
(529,560,o),
(530,563,o),
(531,566,cs),
(515,532,o),
(512,528,o),
(487,505,cs),
(481,500,o),
(488,505,o),
(489,506,cs),
(468,490,o),
(444,478,o),
(420,467,c),
(423,469,o),
(427,470,o),
(430,471,cs),
(347,437,o),
(256,431,o),
(170,410,cs),
(151,406,o),
(141,389,o),
(141,371,cs),
(141,357,o),
(147,343,o),
(160,336,c),
(169,333,o),
(178,332,o),
(187,332,cs),
(223,332,o),
(261,349,o),
(297,350,cs),
(293,350,o),
(290,349,o),
(286,349,c),
(312,352,o),
(339,355,o),
(365,355,cs),
(380,355,o),
(395,354,o),
(410,352,c),
(407,352,o),
(403,353,o),
(399,353,c),
(420,350,o),
(441,345,o),
(461,337,c),
(458,339,o),
(454,340,o),
(451,341,cs),
(464,336,o),
(477,329,o),
(489,321,c),
(491,319,o),
(499,312,o),
(489,321,cs),
(496,315,o),
(503,309,o),
(508,302,c),
(499,312,o),
(506,305,o),
(507,302,c),
(513,295,o),
(517,286,o),
(521,278,c),
(520,281,o),
(518,284,o),
(517,287,cs),
(522,274,o),
(526,260,o),
(528,246,c),
(527,256,l),
(528,250,o),
(528,244,o),
(528,238,cs),
(528,229,o),
(527,219,o),
(526,209,c),
(527,212,o),
(527,216,o),
(528,220,c),
(526,203,o),
(521,187,o),
(515,171,cs),
(516,174,o),
(517,178,o),
(519,181,cs),
(490,124,o),
(468,105,o),
(406,76,cs),
(409,77,o),
(412,79,o),
(415,80,cs),
(383,67,o),
(281,51,o),
(315,54,cs),
(325,55,ls),
(354,58,o),
(266,50,o),
(236,50,cs),
(202,50,o),
(167,52,o),
(133,55,cs),
(112,56,o),
(92,36,o),
(93,14,c),
(90,-23,o),
(147,-32,o),
(208,-32,cs),
(262,-32,o),
(319,-25,o),
(341,-24,c),
(449,-10,o),
(559,52,o),
(596,159,cs),
(604,182,o),
(609,208,o),
(609,233,cs),
(609,293,o),
(585,352,o),
(535,386,cs),
(484,423,o),
(426,435,o),
(366,435,cs),
(300,435,o),
(233,421,o),
(170,410,c),
(191,332,l),
(333,365,o),
(517,369,o),
(595,513,cs),
(613,548,o),
(621,581,o),
(621,610,cs),
(621,725,o),
(496,793,o),
(366,788,cs),
(297,788,o),
(229,776,o),
(162,760,c),
(138,758,o),
(111,742,o),
(111,717,cs),
(111,713,o),
(112,709,o),
(113,705,cs),
(119,687,o),
(134,676,o),
(152,676,cs),
(155,676,o),
(159,676,o),
(162,677,cs)
);
}
);
};
layerId = "F9E796C7-3B32-476D-8395-9F26A0ADE8C5";
name = "28 Dec 22 09:53";
shapes = (
{
closed = 1;
nodes = (
(132,499,o),
(127,270,o),
(127,41,cs),
(127,20,o),
(146,0,o),
(168,1,cs),
(190,2,o),
(208,19,o),
(208,41,cs),
(208,270,o),
(213,499,o),
(224,728,cs),
(224,754,o),
(204,767,o),
(183,767,cs),
(163,767,o),
(143,754,o),
(143,728,cs)
);
},
{
closed = 1;
nodes = (
(204,687,o),
(246,696,o),
(288,702,c),
(285,701,o),
(281,701,o),
(277,700,c),
(306,704,o),
(334,707,o),
(363,707,cs),
(383,707,o),
(403,705,o),
(422,703,cs),
(419,703,o),
(415,704,o),
(411,704,c),
(436,701,o),
(460,695,o),
(483,686,cs),
(480,687,o),
(476,688,o),
(473,690,c),
(501,676,o),
(511,671,o),
(526,656,c),
(514,673,o),
(535,643,o),
(535,638,c),
(534,642,o),
(533,645,o),
(531,648,c),
(535,638,o),
(538,628,o),
(540,617,cs),
(539,621,o),
(539,625,o),
(538,628,c),
(539,622,o),
(540,616,o),
(540,610,cs),
(540,603,o),
(539,597,o),
(538,591,c),
(539,594,o),
(539,598,o),
(540,601,c),
(537,586,o),
(533,571,o),
(527,557,c),
(529,560,o),
(530,563,o),
(531,566,cs),
(515,532,o),
(512,528,o),
(487,505,cs),
(481,500,o),
(488,505,o),
(489,506,cs),
(468,490,o),
(444,478,o),
(420,467,c),
(423,469,o),
(427,470,o),
(430,471,cs),
(347,437,o),
(256,431,o),
(170,410,cs),
(151,406,o),
(141,389,o),
(141,371,cs),
(141,357,o),
(147,343,o),
(160,336,c),
(169,333,o),
(178,332,o),
(187,332,cs),
(223,332,o),
(261,349,o),
(297,350,cs),
(293,350,o),
(290,349,o),
(286,349,c),
(312,352,o),
(339,355,o),
(365,355,cs),
(380,355,o),
(395,354,o),
(410,352,c),
(407,352,o),
(403,353,o),
(399,353,c),
(420,350,o),
(441,345,o),
(461,337,c),
(458,339,o),
(454,340,o),
(451,341,cs),
(464,336,o),
(477,329,o),
(489,321,c),
(491,319,o),
(499,312,o),
(489,321,cs),
(496,315,o),
(503,309,o),
(508,302,c),
(499,312,o),
(506,305,o),
(507,302,c),
(513,295,o),
(517,286,o),
(521,278,c),
(520,281,o),
(518,284,o),
(517,287,cs),
(522,274,o),
(526,260,o),
(528,246,c),
(527,256,l),
(528,250,o),
(528,244,o),
(528,238,cs),
(528,229,o),
(527,219,o),
(526,209,c),
(527,212,o),
(527,216,o),
(528,220,c),
(526,203,o),
(521,187,o),
(515,171,cs),
(516,174,o),
(517,178,o),
(519,181,cs),
(490,124,o),
(468,105,o),
(406,76,cs),
(409,77,o),
(412,79,o),
(415,80,cs),
(383,67,o),
(281,51,o),
(315,54,cs),
(325,55,ls),
(354,58,o),
(266,50,o),
(236,50,cs),
(202,50,o),
(167,52,o),
(133,55,cs),
(112,56,o),
(92,36,o),
(93,14,c),
(90,-23,o),
(147,-32,o),
(208,-32,cs),
(262,-32,o),
(319,-25,o),
(341,-24,c),
(449,-10,o),
(559,52,o),
(596,159,cs),
(604,182,o),
(609,208,o),
(609,233,cs),
(609,293,o),
(585,352,o),
(535,386,cs),
(484,423,o),
(426,435,o),
(366,435,cs),
(300,435,o),
(233,421,o),
(170,410,c),
(191,332,l),
(333,365,o),
(517,369,o),
(595,513,cs),
(613,548,o),
(621,581,o),
(621,610,cs),
(621,725,o),
(496,793,o),
(366,788,cs),
(297,788,o),
(229,776,o),
(162,760,c),
(138,758,o),
(111,742,o),
(111,717,cs),
(111,713,o),
(112,709,o),
(113,705,cs),
(119,687,o),
(134,676,o),
(152,676,cs),
(155,676,o),
(159,676,o),
(162,677,cs)
);
}
);
width = 664;
}
);
metricLeft = B;
metricRight = B;
},
{
color = 6;
glyphname = B.alt5;
lastChange = "2023-01-02 14:53:40 +0000";
layers = (
{
background = {
shapes = (
{
closed = 1;
nodes = (
(151,486,o),
(147,265,o),
(129,45,cs),
(128,19,o),
(149,6,o),
(169,6,cs),
(190,6,o),
(210,19,o),
(210,45,c),
(228,265,o),
(232,486,o),
(245,707,c),
(245,733,o),
(225,746,o),
(205,746,cs),
(184,746,o),
(164,733,o),
(164,707,c)
);
},
{
closed = 1;
nodes = (
(184,692,o),
(216,694,o),
(249,694,cs),
(285,694,o),
(394,684,o),
(358,687,cs),
(347,688,ls),
(307,692,o),
(428,674,o),
(465,658,cs),
(462,659,o),
(459,661,o),
(455,662,c),
(505,638,o),
(515,633,o),
(534,595,c),
(530,605,l),
(532,598,o),
(534,591,o),
(535,584,c),
(534,588,o),
(534,592,o),
(533,595,c),
(534,585,o),
(534,575,o),
(533,565,c),
(535,576,l),
(533,564,o),
(530,552,o),
(525,541,c),
(529,551,l),
(508,509,o),
(499,500,o),
(456,480,c),
(460,481,o),
(463,483,o),
(466,484,cs),
(439,473,o),
(355,461,o),
(383,464,cs),
(393,465,l),
(332,453,o),
(252,463,o),
(205,417,c),
(202,407,o),
(200,398,o),
(200,391,cs),
(200,366,o),
(219,359,o),
(243,359,cs),
(274,359,o),
(315,371,o),
(338,373,c),
(327,371,l),
(350,374,o),
(372,376,o),
(395,376,cs),
(410,376,o),
(426,375,o),
(441,373,c),
(430,375,ls),
(407,379,o),
(475,366,o),
(496,358,cs),
(493,359,o),
(489,360,o),
(486,362,c),
(501,355,o),
(515,347,o),
(528,337,cs),
(527,338,o),
(520,344,o),
(525,340,cs),
(551,316,o),
(551,317,o),
(568,284,cs),
(566,287,o),
(565,290,o),
(564,293,cs),
(569,280,o),
(573,267,o),
(575,252,c),
(574,256,o),
(574,260,o),
(573,263,c),
(574,257,o),
(575,250,o),
(575,244,cs),
(575,237,o),
(574,231,o),
(573,224,c),
(574,227,o),
(574,231,o),
(575,234,c),
(573,221,o),
(569,208,o),
(564,195,c),
(566,198,o),
(567,202,o),
(568,205,cs),
(563,192,o),
(556,180,o),
(547,169,cs),
(552,175,o),
(552,176,o),
(552,175,c),
(544,164,o),
(532,153,o),
(521,144,cs),
(526,148,o),
(527,149,o),
(526,149,c),
(511,136,o),
(489,124,o),
(469,115,c),
(472,117,o),
(475,118,o),
(478,119,cs),
(448,107,o),
(417,100,o),
(385,95,c),
(388,96,o),
(392,96,o),
(395,97,c),
(304,85,o),
(211,95,o),
(120,77,c),
(99,68,o),
(90,53,o),
(90,38,cs),
(90,18,o),
(109,-2,o),
(139,-2,cs),
(147,-2,o),
(157,-1,o),
(167,3,c),
(157,2,ls),
(34,-10,o),
(411,-5,o),
(526,53,c),
(610,89,o),
(654,168,o),
(654,245,cs),
(654,319,o),
(615,392,o),
(534,429,cs),
(489,449,o),
(443,457,o),
(396,457,cs),
(340,457,o),
(284,446,o),
(229,435,c),
(236,409,o),
(243,383,o),
(251,357,c),
(277,368,o),
(305,373,o),
(333,377,c),
(329,377,o),
(326,376,o),
(322,376,cs),
(400,385,o),
(487,388,o),
(549,443,cs),
(594,482,o),
(615,529,o),
(615,575,cs),
(615,647,o),
(562,715,o),
(474,741,c),
(446,755,o),
(329,776,o),
(235,776,cs),
(165,776,o),
(108,764,o),
(111,728,cs),
(111,707,o),
(130,687,o),
(152,688,cs)
);
}
);
};
layerId = m01;
shapes = (
{
closed = 1;
nodes = (
(184,692,o),
(216,694,o),
(249,694,cs),
(410,694,o),
(534,643,o),
(534,576,cs),
(534,509,o),
(484,466,o),
(393,453,c),
(310,454,o),
(275,450,o),
(232,433,cs),
(213,426,o),
(200,409,o),
(200,392,cs),
(200,367,o),
(222,353,o),
(251,359,cs),
(302,370,o),
(350,376,o),
(395,376,cs),
(500,376,o),
(572,320,o),
(572,240,cs),
(572,126,o),
(443,75,o),
(146,72,cs),
(111,72,o),
(90,57,o),
(90,32,cs),
(90,9,o),
(112,-7,o),
(144,-6,cs),
(508,3,o),
(654,74,o),
(654,241,cs),
(654,324,o),
(605,392,o),
(521,426,c),
(580,458,o),
(615,514,o),
(615,576,cs),
(615,696,o),
(468,772,o),
(235,772,cs),
(152,772,o),
(108,755,o),
(111,724,cs),
(111,703,o),
(130,687,o),
(152,688,cs)
);
},
{
closed = 1;
nodes = (
(151,482,o),
(147,261,o),
(129,41,cs),
(128,15,o),
(149,2,o),
(169,2,cs),
(190,2,o),
(208,15,o),
(210,41,cs),
(223,262,o),
(232,482,o),
(245,703,cs),
(247,729,o),
(225,742,o),
(205,742,cs),
(184,742,o),
(166,729,o),
(164,703,cs)
);
}
);
width = 709;
},
{
associatedMasterId = m01;
layerId = "9A7558E0-F144-474E-9E11-3C36F59E1F4D";
name = "29 Dec 22 11:28";
shapes = (
{
closed = 1;
nodes = (
(151,486,o),
(147,265,o),
(129,45,cs),
(128,19,o),
(149,6,o),
(169,6,cs),
(190,6,o),
(210,19,o),
(210,45,c),
(228,265,o),
(232,486,o),
(245,707,c),
(245,733,o),
(225,746,o),
(205,746,cs),
(184,746,o),
(164,733,o),
(164,707,c)
);
},
{
closed = 1;
nodes = (
(184,692,o),
(216,694,o),
(249,694,cs),
(285,694,o),
(394,684,o),
(358,687,cs),
(347,688,ls),
(307,692,o),
(428,674,o),
(465,658,cs),
(462,659,o),
(459,661,o),
(455,662,c),
(505,638,o),
(515,633,o),
(534,595,c),
(530,605,l),
(532,598,o),
(534,591,o),
(535,584,c),
(534,588,o),
(534,592,o),
(533,595,c),
(534,585,o),
(534,575,o),
(533,565,c),
(535,576,l),
(533,564,o),
(530,552,o),
(525,541,c),
(529,551,l),
(508,509,o),
(499,500,o),
(456,480,c),
(460,481,o),
(463,483,o),
(466,484,cs),
(439,473,o),
(355,461,o),
(383,464,cs),
(393,465,l),
(332,453,o),
(252,463,o),
(205,417,c),
(202,407,o),
(200,398,o),
(200,391,cs),
(200,366,o),
(219,359,o),
(243,359,cs),
(274,359,o),
(315,371,o),
(338,373,c),
(327,371,l),
(350,374,o),
(372,376,o),
(395,376,cs),
(410,376,o),
(426,375,o),
(441,373,c),
(430,375,ls),
(407,379,o),
(475,366,o),
(496,358,cs),
(493,359,o),
(489,360,o),
(486,362,c),
(501,355,o),
(515,347,o),
(528,337,cs),
(527,338,o),
(520,344,o),
(525,340,cs),
(551,316,o),
(551,317,o),
(568,284,cs),
(566,287,o),
(565,290,o),
(564,293,cs),
(569,280,o),
(573,267,o),
(575,252,c),
(574,256,o),
(574,260,o),
(573,263,c),
(574,257,o),
(575,250,o),
(575,244,cs),
(575,237,o),
(574,231,o),
(573,224,c),
(574,227,o),
(574,231,o),
(575,234,c),
(573,221,o),
(569,208,o),
(564,195,c),
(566,198,o),
(567,202,o),
(568,205,cs),
(563,192,o),
(556,180,o),
(547,169,cs),
(552,175,o),
(552,176,o),
(552,175,c),
(544,164,o),
(532,153,o),
(521,144,cs),
(526,148,o),
(527,149,o),
(526,149,c),
(511,136,o),
(489,124,o),
(469,115,c),
(472,117,o),
(475,118,o),
(478,119,cs),
(448,107,o),
(417,100,o),
(385,95,c),
(388,96,o),
(392,96,o),
(395,97,c),
(304,85,o),
(211,95,o),
(120,77,c),
(99,68,o),
(90,53,o),
(90,38,cs),
(90,18,o),
(109,-2,o),
(139,-2,cs),
(147,-2,o),
(157,-1,o),
(167,3,c),
(157,2,ls),
(34,-10,o),
(411,-5,o),
(526,53,c),
(610,89,o),
(654,168,o),
(654,245,cs),
(654,319,o),
(615,392,o),
(534,429,cs),
(489,449,o),
(443,457,o),
(396,457,cs),
(340,457,o),
(284,446,o),
(229,435,c),
(236,409,o),
(243,383,o),
(251,357,c),
(277,368,o),
(305,373,o),
(333,377,c),
(329,377,o),
(326,376,o),
(322,376,cs),
(400,385,o),
(487,388,o),
(549,443,cs),
(594,482,o),
(615,529,o),
(615,575,cs),
(615,647,o),
(562,715,o),
(474,741,c),
(446,755,o),
(329,776,o),
(235,776,cs),
(165,776,o),
(108,764,o),
(111,728,cs),
(111,707,o),
(130,687,o),
(152,688,cs)
);
}
);
width = 709;
}
);
metricLeft = B;
metricRight = B;
},
{
color = 6;
glyphname = C;
lastChange = "2023-01-02 14:53:39 +0000";
layers = (
{
background = {
shapes = (
{
closed = 1;
nodes = (
(603,743,o),
(508,780,o),
(410,780,cs),
(206,780,o),
(69,619,o),
(69,367,cs),
(69,120,o),
(185,-22,o),
(389,-22,cs),
(496,-22,o),
(600,22,o),
(670,96,cs),
(692,119,o),
(702,136,o),
(702,152,cs),
(702,174,o),
(687,190,o),
(667,190,cs),
(653,190,o),
(642,185,o),
(632,173,cs),
(573,102,o),
(477,56,o),
(388,56,cs),
(249,56,o),
(151,182,o),
(151,362,cs),
(151,573,o),
(250,702,o),
(402,702,cs),
(491,702,o),
(539,684,o),
(618,629,cs),
(629,622,o),
(638,612,o),
(652,612,cs),
(672,611,o),
(691,631,o),
(691,654,cs),
(691,663,o),
(687,673,o),
(679,679,cs)
);
}
);
};
layerId = m01;
name = Regular;
shapes = (
{
closed = 1;
nodes = (
(603,743,o),
(508,780,o),
(410,780,cs),
(206,780,o),
(69,619,o),
(69,367,cs),
(69,120,o),
(185,-22,o),
(389,-22,cs),
(496,-22,o),
(600,22,o),
(670,96,cs),
(692,119,o),
(702,136,o),
(702,152,cs),
(702,174,o),
(687,190,o),
(667,190,cs),
(653,190,o),
(642,185,o),
(632,173,cs),
(573,102,o),
(477,56,o),
(388,56,cs),
(249,56,o),
(151,182,o),
(151,362,cs),
(151,573,o),
(250,702,o),
(402,702,cs),
(491,702,o),
(539,684,o),
(618,629,cs),
(629,622,o),
(638,612,o),
(652,612,cs),
(672,611,o),
(691,631,o),
(691,654,cs),
(691,663,o),
(687,673,o),
(679,679,cs)
);
}
);
width = 775;
},
{
associatedMasterId = m01;
background = {
shapes = (
{
closed = 1;
nodes = (
(891,703,o),
(654,321,o),
(800,79,c),
(884,-64,o),
(1047,18,o),
(1114,131,c),
(1144,183,o),
(1188,253,o),
(1173,314,c),
(1157,344,o),
(1106,338,o),
(1099,304,c),
(1094,278,o),
(1086,253,o),
(1076,228,c),
(1078,232,o),
(1079,235,o),
(1080,238,c),
(1067,208,o),
(1051,180,o),
(1031,154,c),
(1032,155,o),
(1034,157,o),
(1035,158,c),
(1004,121,o),
(988,105,o),
(948,87,c),
(951,88,o),
(954,89,o),
(958,91,c),
(947,87,o),
(937,84,o),
(926,82,c),
(930,83,o),
(933,83,o),
(937,84,c),
(928,82,o),
(919,82,o),
(910,84,c),
(914,83,o),
(917,83,o),
(921,82,c),
(914,83,o),
(907,85,o),
(900,88,c),
(903,87,o),
(906,85,o),
(909,84,c),
(902,87,o),
(895,91,o),
(889,96,c),
(901,88,o),
(895,91,o),
(892,94,c),
(874,111,o),
(870,117,o),
(856,149,c),
(857,145,o),
(858,142,o),
(860,139,c),
(850,162,o),
(844,186,o),
(839,211,c),
(839,207,o),
(840,203,o),
(840,200,c),
(837,229,o),
(837,259,o),
(841,288,c),
(840,284,o),
(840,281,o),
(839,277,c),
(844,307,o),
(851,336,o),
(863,364,c),
(862,361,o),
(860,358,o),
(859,355,c),
(867,375,o),
(878,394,o),
(891,411,c),
(895,417,o),
(890,411,o),
(889,409,c),
(916,441,o),
(925,448,o),
(960,466,c),
(957,464,o),
(954,463,o),
(950,461,c),
(964,467,o),
(979,471,o),
(994,473,c),
(990,473,o),
(987,472,o),
(983,472,c),
(998,474,o),
(1014,474,o),
(1029,472,c),
(1026,472,o),
(1022,473,o),
(1019,473,c),
(1038,471,o),
(1057,465,o),
(1075,458,c),
(1072,459,o),
(1068,460,o),
(1065,462,c),
(1098,453,o),
(1122,414,o),
(1158,422,c),
(1192,430,o),
(1198,478,o),
(1167,496,c)
);
},
{
closed = 1;
nodes = (
(1119,541,o),
(1109,286,o),
(1097,31,c),
(1096,-21,o),
(1177,-22,o),
(1178,31,c),
(1190,286,o),
(1200,541,o),
(1218,796,c),
(1219,848,o),
(1137,848,o),
(1137,796,c)
);
},
{
closed = 1;
nodes = (
(2267,201,o),
(2459,250,o),
(2482,411,c),
(2490,491,o),
(2426,563,o),
(2345,559,c),
(2175,556,o),
(2054,373,o),
(2093,213,c),
(2120,5,o),
(2365,-51,o),
(2499,99,c),
(2577,164,o),
(2501,238,o),
(2453,169,c),
(2440,151,o),
(2407,119,o),
(2368,105,c),
(2372,106,o),
(2375,108,o),
(2378,109,c),
(2361,102,o),
(2343,97,o),
(2325,94,c),
(2329,95,o),
(2332,95,o),
(2336,96,c),
(2319,94,o),
(2302,94,o),
(2286,96,c),
(2289,95,o),
(2293,95,o),
(2297,94,c),
(2281,96,o),
(2267,100,o),
(2253,106,c),
(2256,105,o),
(2259,104,o),
(2262,102,c),
(2233,117,o),
(2228,120,o),
(2206,145,c),
(2204,147,o),
(2201,153,o),
(2207,143,c),
(2201,153,o),
(2194,161,o),
(2190,171,c),
(2191,168,o),
(2192,165,o),
(2194,162,c),
(2182,190,o),
(2173,220,o),
(2169,250,c),
(2169,247,o),
(2170,243,o),
(2170,240,c),
(2167,264,o),
(2167,288,o),
(2170,312,c),
(2169,309,o),
(2169,305,o),
(2168,301,c),
(2171,323,o),
(2177,345,o),
(2185,365,c),
(2184,362,o),
(2183,358,o),
(2181,355,c),
(2189,373,o),
(2199,391,o),
(2210,406,c),
(2221,419,o),
(2257,455,o),
(2295,469,c),
(2292,467,o),
(2289,466,o),
(2285,465,c),
(2301,471,o),
(2317,476,o),
(2334,478,c),
(2331,478,o),
(2327,477,o),
(2323,477,c),
(2336,478,o),
(2348,479,o),
(2361,477,c),
(2357,478,o),
(2354,478,o),
(2350,478,c),
(2360,477,o),
(2369,475,o),
(2378,471,c),
(2375,472,o),
(2372,474,o),
(2369,475,c),
(2374,473,o),
(2380,469,o),
(2385,466,c),
(2388,464,o),
(2376,473,o),
(2381,469,c),
(2385,466,o),
(2388,462,o),
(2392,458,c),
(2395,455,o),
(2388,463,o),
(2388,463,c),
(2392,458,o),
(2396,452,o),
(2398,445,c),
(2397,448,o),
(2396,452,o),
(2394,455,c),
(2398,446,o),
(2400,437,o),
(2402,428,c),
(2401,431,o),
(2401,435,o),
(2400,438,c),
(2402,427,o),
(2402,416,o),
(2401,405,c),
(2401,409,o),
(2402,412,o),
(2402,416,c),
(2400,408,o),
(2398,400,o),
(2395,393,c),
(2396,396,o),
(2397,399,o),
(2399,402,c),
(2375,353,o),
(2356,340,o),
(2302,314,c),
(2305,315,o),
(2309,316,o),
(2312,318,c),
(2278,304,o),
(2242,295,o),
(2206,290,c),
(2209,291,o),
(2213,291,o),
(2217,292,c),
(2187,288,o),
(2158,286,o),
(2128,286,c),
(2076,287,o),
(2076,205,o),
(2128,205,c)
);
},
{
closed = 1;
nodes = (
(1454,693,o),
(1203,263,o),
(1435,48,c),
(1614,-81,o),
(1738,103,o),
(1762,270,c),
(1769,322,o),
(1811,551,o),
(1702,486,c),
(1695,479,o),
(1689,468,o),
(1690,458,c),
(1696,410,o),
(1694,361,o),
(1687,313,c),
(1689,324,l),
(1682,274,o),
(1670,224,o),
(1651,178,c),
(1652,181,o),
(1654,184,o),
(1655,187,c),
(1645,165,o),
(1634,143,o),
(1619,123,c),
(1620,123,o),
(1626,132,o),
(1621,126,c),
(1614,117,o),
(1605,109,o),
(1597,101,c),
(1592,97,o),
(1600,103,o),
(1600,104,c),
(1592,98,o),
(1584,93,o),
(1575,89,c),
(1578,90,o),
(1581,91,o),
(1584,93,c),
(1576,89,o),
(1567,87,o),
(1557,86,c),
(1561,86,o),
(1565,86,o),
(1568,87,c),
(1558,86,o),
(1549,86,o),
(1539,87,c),
(1542,86,o),
(1546,86,o),
(1550,86,c),
(1536,87,o),
(1523,91,o),
(1510,97,c),
(1514,95,o),
(1517,94,o),
(1520,93,c),
(1502,100,o),
(1486,110,o),
(1470,122,c),
(1467,124,o),
(1468,124,o),
(1472,120,c),
(1476,116,o),
(1477,114,o),
(1475,117,c),
(1462,135,o),
(1450,154,o),
(1442,175,c),
(1443,172,o),
(1444,169,o),
(1446,165,c),
(1437,188,o),
(1430,211,o),
(1427,234,c),
(1428,224,l),
(1425,248,o),
(1425,272,o),
(1428,296,c),
(1427,285,l),
(1430,309,o),
(1437,333,o),
(1446,356,c),
(1445,352,o),
(1443,349,o),
(1442,346,c),
(1449,363,o),
(1458,379,o),
(1469,395,c),
(1471,397,o),
(1479,406,o),
(1470,396,c),
(1480,410,o),
(1493,423,o),
(1506,433,c),
(1506,433,o),
(1498,427,o),
(1503,430,c),
(1516,440,o),
(1529,448,o),
(1544,454,c),
(1540,452,o),
(1537,451,o),
(1534,450,c),
(1549,456,o),
(1564,460,o),
(1580,462,c),
(1577,462,o),
(1573,461,o),
(1570,461,c),
(1587,463,o),
(1604,463,o),
(1621,461,c),
(1617,461,o),
(1613,462,o),
(1610,462,c),
(1631,459,o),
(1651,453,o),
(1671,445,c),
(1668,446,o),
(1665,448,o),
(1661,449,c),
(1678,442,o),
(1695,433,o),
(1710,423,c),
(1755,396,o),
(1796,466,o),
(1751,493,c)
);
},
{
closed = 1;
nodes = (
(1704,409,o),
(1624,37,o),
(1782,0,c),
(1833,-7,o),
(1879,34,o),
(1912,69,c),
(1949,106,o),
(1891,163,o),
(1854,126,c),
(1843,114,o),
(1831,103,o),
(1819,93,c),
(1820,94,o),
(1827,99,o),
(1821,95,c),
(1813,89,o),
(1805,84,o),
(1795,80,c),
(1799,81,o),
(1802,83,o),
(1805,84,c),
(1800,82,o),
(1794,80,o),
(1788,79,c),
(1792,79,o),
(1795,80,o),
(1799,80,c),
(1795,80,o),
(1791,80,o),
(1787,80,c),
(1791,80,o),
(1794,79,o),
(1798,79,c),
(1794,79,o),
(1791,80,o),
(1788,81,c),
(1791,80,o),
(1794,79,o),
(1798,77,c),
(1795,78,o),
(1793,80,o),
(1790,81,c),
(1786,84,o),
(1799,73,o),
(1794,79,c),
(1792,81,o),
(1790,83,o),
(1788,85,c),
(1785,88,o),
(1794,77,o),
(1792,80,c),
(1788,86,o),
(1784,92,o),
(1782,99,c),
(1783,95,o),
(1784,92,o),
(1786,89,c),
(1778,108,o),
(1774,128,o),
(1771,149,c),
(1772,145,o),
(1772,141,o),
(1773,138,c),
(1760,251,o),
(1774,365,o),
(1788,478,c),
(1787,474,o),
(1787,471,o),
(1786,467,c),
(1787,491,o),
(1800,517,o),
(1788,539,c),
(1772,570,o),
(1721,563,o),
(1714,529,c)
);
}
);
};
layerId = "2EFEB1DF-D455-4BC6-9AA1-A8EA4CBD0E29";
name = "Original variations";
shapes = (
{
closed = 1;
nodes = (
(524,734,o),
(448,762,o),
(374,762,cs),
(179,762,o),
(0,570,o),
(0,359,cs),
(0,321,o),
(6,282,o),
(19,243,c),
(48,79,o),
(206,-24,o),
(362,-24,cs),
(443,-24,o),
(524,4,o),
(585,66,c),
(612,87,o),
(622,109,o),
(622,126,cs),
(622,148,o),
(606,164,o),
(586,164,cs),
(576,164,o),
(565,160,o),
(554,152,c),
(518,110,o),
(501,96,o),
(450,73,cs),
(453,74,o),
(456,76,o),
(460,77,c),
(436,67,o),
(412,61,o),
(387,57,cs),
(391,58,o),
(395,58,o),
(398,59,c),
(385,57,o),
(371,56,o),
(358,56,cs),
(344,56,o),
(331,57,o),
(317,59,c),
(320,58,o),
(324,58,o),
(327,57,c),
(299,61,o),
(272,69,o),
(246,79,cs),
(249,78,o),
(252,77,o),
(255,75,c),
(179,111,o),
(146,142,o),
(111,218,c),
(112,214,o),
(113,211,o),
(115,208,c),
(101,246,o),
(91,285,o),
(84,324,c),
(85,321,o),
(85,317,o),
(85,314,c),
(83,329,o),
(82,343,o),
(82,358,cs),
(82,375,o),
(83,392,o),
(86,409,cs),
(85,405,o),
(85,401,o),
(84,398,c),
(89,431,o),
(98,463,o),
(110,493,cs),
(109,490,o),
(108,487,o),
(106,484,c),
(149,576,o),
(192,623,o),
(281,664,c),
(277,663,o),
(274,662,o),
(271,660,c),
(294,670,o),
(319,677,o),
(344,680,c),
(340,680,o),
(337,679,o),
(333,679,c),
(345,681,o),
(356,681,o),
(368,681,cs),
(380,681,o),
(392,681,o),
(403,679,c),
(392,681,ls),
(416,677,o),
(439,671,o),
(462,662,cs),
(459,663,o),
(455,664,o),
(452,666,c),
(490,649,o),
(515,632,o),
(537,612,cs),
(545,604,o),
(555,600,o),
(564,600,cs),
(586,600,o),
(606,620,o),
(606,642,cs),
(606,651,o),
(603,660,o),
(594,669,cs)
);
},
{
closed = 1;
nodes = (
(1538,721,o),
(1454,749,o),
(1369,749,cs),
(1232,749,o),
(1093,676,o),
(1035,547,cs),
(1006,479,o),
(992,405,o),
(992,330,cs),
(992,287,o),
(996,244,o),
(1006,202,cs),
(1039,44,o),
(1188,-41,o),
(1338,-41,cs),
(1430,-41,o),
(1523,-8,o),
(1589,61,c),
(1614,80,o),
(1623,101,o),
(1623,119,cs),
(1623,141,o),
(1608,157,o),
(1587,157,cs),
(1577,157,o),
(1567,153,o),
(1556,145,c),
(1518,100,o),
(1498,84,o),
(1443,59,cs),
(1447,61,o),
(1450,62,o),
(1453,63,cs),
(1426,52,o),
(1397,44,o),
(1368,40,cs),
(1378,41,l),
(1364,39,o),
(1349,38,o),
(1334,38,cs),
(1319,38,o),
(1304,39,o),
(1289,41,c),
(1300,40,ls),
(1271,44,o),
(1243,51,o),
(1217,62,cs),
(1226,58,ls),
(1154,93,o),
(1128,117,o),
(1095,188,cs),
(1096,185,o),
(1097,182,o),
(1099,179,c),
(1087,208,o),
(1080,239,o),
(1076,271,c),
(1076,267,o),
(1077,263,o),
(1077,260,c),
(1074,282,o),
(1073,303,o),
(1073,325,cs),
(1073,351,o),
(1075,377,o),
(1078,402,c),
(1076,391,ls),
(1082,431,o),
(1090,471,o),
(1106,508,cs),
(1105,505,o),
(1103,502,o),
(1102,499,cs),
(1139,577,o),
(1173,609,o),
(1254,647,c),
(1250,646,o),
(1247,644,o),
(1244,643,cs),
(1272,655,o),
(1302,663,o),
(1333,667,c),
(1329,667,o),
(1325,666,o),
(1322,666,c),
(1337,668,o),
(1351,669,o),
(1366,669,cs),
(1381,669,o),
(1396,668,o),
(1410,666,c),
(1400,667,ls),
(1427,664,o),
(1454,657,o),
(1479,646,cs),
(1476,647,o),
(1473,649,o),
(1470,650,cs),
(1506,634,o),
(1527,619,o),
(1545,603,cs),
(1553,595,o),
(1563,591,o),
(1572,591,cs),
(1594,591,o),
(1614,611,o),
(1614,633,cs),
(1614,642,o),
(1611,651,o),
(1602,660,cs)
);
},
{
closed = 1;
nodes = (
(2537,716,o),
(2449,752,o),
(2360,752,cs),
(2341,752,o),
(2322,750,o),
(2303,747,cs),
(2093,717,o),
(1982,533,o),
(1982,346,cs),
(1982,225,o),
(2029,103,o),
(2125,19,cs),
(2175,-23,o),
(2237,-42,o),
(2300,-42,cs),
(2417,-42,o),
(2538,20,o),
(2603,111,c),
(2607,119,o),
(2609,126,o),
(2609,133,cs),
(2609,155,o),
(2589,171,o),
(2567,171,cs),
(2553,171,o),
(2539,164,o),
(2530,147,cs),
(2531,149,o),
(2532,151,o),
(2534,153,cs),
(2496,107,o),
(2469,88,o),
(2413,63,cs),
(2423,67,ls),
(2394,55,o),
(2364,47,o),
(2333,42,c),
(2336,43,o),
(2340,43,o),
(2343,44,c),
(2329,42,o),
(2315,41,o),
(2301,41,cs),
(2287,41,o),
(2273,42,o),
(2258,44,c),
(2269,42,l),
(2247,45,o),
(2225,51,o),
(2204,59,c),
(2207,57,o),
(2210,56,o),
(2213,55,c),
(2208,57,o),
(2175,82,o),
(2193,68,c),
(2172,84,o),
(2154,103,o),
(2138,123,cs),
(2141,119,ls),
(2121,145,o),
(2105,173,o),
(2093,203,c),
(2094,199,o),
(2095,196,o),
(2097,193,c),
(2081,230,o),
(2071,268,o),
(2066,307,cs),
(2067,297,l),
(2064,318,o),
(2063,339,o),
(2063,360,cs),
(2063,378,o),
(2064,395,o),
(2066,413,c),
(2066,409,o),
(2066,406,o),
(2065,402,c),
(2069,434,o),
(2076,465,o),
(2089,495,c),
(2087,492,o),
(2086,488,o),
(2085,485,cs),
(2124,569,o),
(2166,609,o),
(2253,650,cs),
(2243,646,ls),
(2271,657,o),
(2300,666,o),
(2331,670,c),
(2320,668,l),
(2334,670,o),
(2348,671,o),
(2362,671,cs),
(2374,671,o),
(2386,670,o),
(2399,669,cs),
(2395,669,o),
(2392,670,o),
(2388,670,c),
(2412,667,o),
(2436,660,o),
(2459,651,cs),
(2456,652,o),
(2452,653,o),
(2449,655,c),
(2469,646,o),
(2488,635,o),
(2506,622,cs),
(2501,626,ls),
(2515,615,o),
(2527,603,o),
(2539,590,cs),
(2547,581,o),
(2557,578,o),
(2566,578,cs),
(2588,578,o),
(2608,598,o),
(2608,621,cs),
(2608,630,o),
(2604,639,o),
(2596,648,cs)
);
},
{
closed = 1;
nodes = (
(3505,726,o),
(3425,756,o),
(3350,756,cs),
(3152,756,o),
(2985,552,o),
(2985,333,cs),
(2985,278,o),
(2995,221,o),
(3019,167,cs),
(3072,32,o),
(3184,-32,o),
(3302,-32,cs),
(3388,-32,o),
(3478,2,o),
(3551,67,c),
(3585,88,o),
(3598,112,o),
(3598,131,cs),
(3598,152,o),
(3583,167,o),
(3562,167,cs),
(3552,167,o),
(3541,164,o),
(3530,156,c),
(3488,117,o),
(3457,93,o),
(3398,67,cs),
(3401,68,o),
(3404,69,o),
(3407,71,c),
(3381,60,o),
(3354,52,o),
(3325,48,c),
(3329,48,o),
(3333,49,o),
(3336,49,cs),
(3325,48,o),
(3313,47,o),
(3301,47,cs),
(3289,47,o),
(3278,48,o),
(3266,49,cs),
(3270,49,o),
(3273,48,o),
(3277,48,c),
(3255,51,o),
(3234,56,o),
(3214,65,c),
(3217,63,o),
(3220,62,o),
(3224,61,c),
(3205,68,o),
(3188,78,o),
(3172,90,cs),
(3169,92,o),
(3164,97,o),
(3175,88,cs),
(3131,125,o),
(3118,144,o),
(3093,198,cs),
(3094,195,o),
(3096,192,o),
(3097,189,cs),
(3084,220,o),
(3075,253,o),
(3070,287,c),
(3071,284,o),
(3071,280,o),
(3072,277,c),
(3069,298,o),
(3068,318,o),
(3068,339,cs),
(3068,362,o),
(3069,385,o),
(3072,407,c),
(3072,403,o),
(3071,400,o),
(3071,396,c),
(3075,427,o),
(3083,456,o),
(3095,485,c),
(3094,481,o),
(3093,478,o),
(3091,475,c),
(3133,567,o),
(3177,617,o),
(3265,658,cs),
(3262,657,o),
(3259,655,o),
(3255,654,c),
(3278,663,o),
(3302,670,o),
(3326,673,cs),
(3316,672,l),
(3328,674,o),
(3339,674,o),
(3351,674,cs),
(3362,674,o),
(3374,674,o),
(3385,672,c),
(3374,674,ls),
(3398,670,o),
(3422,664,o),
(3444,654,c),
(3441,656,o),
(3438,657,o),
(3434,658,c),
(3458,648,o),
(3481,635,o),
(3502,619,c),
(3491,626,o),
(3498,622,o),
(3501,620,cs),
(3525,599,l),
(3533,590,o),
(3543,587,o),
(3552,587,cs),
(3574,587,o),
(3594,607,o),
(3594,629,cs),
(3594,638,o),
(3590,648,o),
(3582,656,cs)
);
}
);
width = 3598;
},
{
associatedMasterId = m01;
background = {
shapes = (
{
closed = 1;
nodes = (
(1978,703,o),
(1741,321,o),
(1887,79,c),
(1971,-64,o),
(2134,18,o),
(2201,131,c),
(2231,183,o),
(2275,253,o),
(2260,314,c),
(2244,344,o),
(2193,338,o),
(2186,304,c),
(2181,278,o),
(2173,253,o),
(2163,228,c),
(2165,232,o),
(2166,235,o),
(2167,238,c),
(2154,208,o),
(2138,180,o),
(2118,154,c),
(2119,155,o),
(2121,157,o),
(2122,158,c),
(2091,121,o),
(2075,105,o),
(2035,87,c),
(2038,88,o),
(2041,89,o),
(2045,91,c),
(2034,87,o),
(2024,84,o),
(2013,82,c),
(2017,83,o),
(2020,83,o),
(2024,84,c),
(2015,82,o),
(2006,82,o),
(1997,84,c),
(2001,83,o),
(2004,83,o),
(2008,82,c),
(2001,83,o),
(1994,85,o),
(1987,88,c),
(1990,87,o),
(1993,85,o),
(1996,84,c),
(1989,87,o),
(1982,91,o),
(1976,96,c),
(1988,88,o),
(1982,91,o),
(1979,94,c),
(1961,111,o),
(1957,117,o),
(1943,149,c),
(1944,145,o),
(1945,142,o),
(1947,139,c),
(1937,162,o),
(1931,186,o),
(1926,211,c),
(1926,207,o),
(1927,203,o),
(1927,200,c),
(1924,229,o),
(1924,259,o),
(1928,288,c),
(1927,284,o),
(1927,281,o),
(1926,277,c),
(1931,307,o),
(1938,336,o),
(1950,364,c),
(1949,361,o),
(1947,358,o),
(1946,355,c),
(1954,375,o),
(1965,394,o),
(1978,411,c),
(1982,417,o),
(1977,411,o),
(1976,409,c),
(2003,441,o),
(2012,448,o),
(2047,466,c),
(2044,464,o),
(2041,463,o),
(2037,461,c),
(2051,467,o),
(2066,471,o),
(2081,473,c),
(2077,473,o),
(2074,472,o),
(2070,472,c),
(2085,474,o),
(2101,474,o),
(2116,472,c),
(2113,472,o),
(2109,473,o),
(2106,473,c),
(2125,471,o),
(2144,465,o),
(2162,458,c),
(2159,459,o),
(2155,460,o),
(2152,462,c),
(2185,453,o),
(2209,414,o),
(2245,422,c),
(2279,430,o),
(2285,478,o),
(2254,496,c)
);
},
{
closed = 1;
nodes = (
(2206,541,o),
(2196,286,o),
(2184,31,c),
(2183,-21,o),
(2264,-22,o),
(2265,31,c),
(2277,286,o),
(2287,541,o),
(2305,796,c),
(2306,848,o),
(2224,848,o),
(2224,796,c)
);
},
{
closed = 1;
nodes = (
(3354,201,o),
(3546,250,o),
(3569,411,c),
(3577,491,o),
(3513,563,o),
(3432,559,c),
(3262,556,o),
(3141,373,o),
(3180,213,c),
(3207,5,o),
(3452,-51,o),
(3586,99,c),
(3664,164,o),
(3588,238,o),
(3540,169,c),
(3527,151,o),
(3494,119,o),
(3455,105,c),
(3459,106,o),
(3462,108,o),
(3465,109,c),
(3448,102,o),
(3430,97,o),
(3412,94,c),
(3416,95,o),
(3419,95,o),
(3423,96,c),
(3406,94,o),
(3389,94,o),
(3373,96,c),
(3376,95,o),
(3380,95,o),
(3384,94,c),
(3368,96,o),
(3354,100,o),
(3340,106,c),
(3343,105,o),
(3346,104,o),
(3349,102,c),
(3320,117,o),
(3315,120,o),
(3293,145,c),
(3291,147,o),
(3288,153,o),
(3294,143,c),
(3288,153,o),
(3281,161,o),
(3277,171,c),
(3278,168,o),
(3279,165,o),
(3281,162,c),
(3269,190,o),
(3260,220,o),
(3256,250,c),
(3256,247,o),
(3257,243,o),
(3257,240,c),
(3254,264,o),
(3254,288,o),
(3257,312,c),
(3256,309,o),
(3256,305,o),
(3255,301,c),
(3258,323,o),
(3264,345,o),
(3272,365,c),
(3271,362,o),
(3270,358,o),
(3268,355,c),
(3276,373,o),
(3286,391,o),
(3297,406,c),
(3308,419,o),
(3344,455,o),
(3382,469,c),
(3379,467,o),
(3376,466,o),
(3372,465,c),
(3388,471,o),
(3404,476,o),
(3421,478,c),
(3418,478,o),
(3414,477,o),
(3410,477,c),
(3423,478,o),
(3435,479,o),
(3448,477,c),
(3444,478,o),
(3441,478,o),
(3437,478,c),
(3447,477,o),
(3456,475,o),
(3465,471,c),
(3462,472,o),
(3459,474,o),
(3456,475,c),
(3461,473,o),
(3467,469,o),
(3472,466,c),
(3475,464,o),
(3463,473,o),
(3468,469,c),
(3472,466,o),
(3475,462,o),
(3479,458,c),
(3482,455,o),
(3475,463,o),
(3475,463,c),
(3479,458,o),
(3483,452,o),
(3485,445,c),
(3484,448,o),
(3483,452,o),
(3481,455,c),
(3485,446,o),
(3487,437,o),
(3489,428,c),
(3488,431,o),
(3488,435,o),
(3487,438,c),
(3489,427,o),
(3489,416,o),
(3488,405,c),
(3488,409,o),
(3489,412,o),
(3489,416,c),
(3487,408,o),
(3485,400,o),
(3482,393,c),
(3483,396,o),
(3484,399,o),
(3486,402,c),
(3462,353,o),
(3443,340,o),
(3389,314,c),
(3392,315,o),
(3396,316,o),
(3399,318,c),
(3365,304,o),
(3329,295,o),
(3293,290,c),
(3296,291,o),
(3300,291,o),
(3304,292,c),
(3274,288,o),
(3245,286,o),
(3215,286,c),
(3163,287,o),
(3163,205,o),
(3215,205,c)
);
},
{
closed = 1;
nodes = (
(2541,693,o),
(2290,263,o),
(2522,48,c),
(2701,-81,o),
(2825,103,o),
(2849,270,c),
(2856,322,o),
(2898,551,o),
(2789,486,c),
(2782,479,o),
(2776,468,o),
(2777,458,c),
(2783,410,o),
(2781,361,o),
(2774,313,c),
(2776,324,l),
(2769,274,o),
(2757,224,o),
(2738,178,c),
(2739,181,o),
(2741,184,o),
(2742,187,c),
(2732,165,o),
(2721,143,o),
(2706,123,c),
(2707,123,o),
(2713,132,o),
(2708,126,c),
(2701,117,o),
(2692,109,o),
(2684,101,c),
(2679,97,o),
(2687,103,o),
(2687,104,c),
(2679,98,o),
(2671,93,o),
(2662,89,c),
(2665,90,o),
(2668,91,o),
(2671,93,c),
(2663,89,o),
(2654,87,o),
(2644,86,c),
(2648,86,o),
(2652,86,o),
(2655,87,c),
(2645,86,o),
(2636,86,o),
(2626,87,c),
(2629,86,o),
(2633,86,o),
(2637,86,c),
(2623,87,o),
(2610,91,o),
(2597,97,c),
(2601,95,o),
(2604,94,o),
(2607,93,c),
(2589,100,o),
(2573,110,o),
(2557,122,c),
(2554,124,o),
(2555,124,o),
(2559,120,c),
(2563,116,o),
(2564,114,o),
(2562,117,c),
(2549,135,o),
(2537,154,o),
(2529,175,c),
(2530,172,o),
(2531,169,o),
(2533,165,c),
(2524,188,o),
(2517,211,o),
(2514,234,c),
(2515,224,l),
(2512,248,o),
(2512,272,o),
(2515,296,c),
(2514,285,l),
(2517,309,o),
(2524,333,o),
(2533,356,c),
(2532,352,o),
(2530,349,o),
(2529,346,c),
(2536,363,o),
(2545,379,o),
(2556,395,c),
(2558,397,o),
(2566,406,o),
(2557,396,c),
(2567,410,o),
(2580,423,o),
(2593,433,c),
(2593,433,o),
(2585,427,o),
(2590,430,c),
(2603,440,o),
(2616,448,o),
(2631,454,c),
(2627,452,o),
(2624,451,o),
(2621,450,c),
(2636,456,o),
(2651,460,o),
(2667,462,c),
(2664,462,o),
(2660,461,o),
(2657,461,c),
(2674,463,o),
(2691,463,o),
(2708,461,c),
(2704,461,o),
(2700,462,o),
(2697,462,c),
(2718,459,o),
(2738,453,o),
(2758,445,c),
(2755,446,o),
(2752,448,o),
(2748,449,c),
(2765,442,o),
(2782,433,o),
(2797,423,c),
(2842,396,o),
(2883,466,o),
(2838,493,c)
);
},
{
closed = 1;
nodes = (
(2791,409,o),
(2711,37,o),
(2869,0,c),
(2920,-7,o),
(2966,34,o),
(2999,69,c),
(3036,106,o),
(2978,163,o),
(2941,126,c),
(2930,114,o),
(2918,103,o),
(2906,93,c),
(2907,94,o),
(2914,99,o),
(2908,95,c),
(2900,89,o),
(2892,84,o),
(2882,80,c),
(2886,81,o),
(2889,83,o),
(2892,84,c),
(2887,82,o),
(2881,80,o),
(2875,79,c),
(2879,79,o),
(2882,80,o),
(2886,80,c),
(2882,80,o),
(2878,80,o),
(2874,80,c),
(2878,80,o),
(2881,79,o),
(2885,79,c),
(2881,79,o),
(2878,80,o),
(2875,81,c),
(2878,80,o),
(2881,79,o),
(2885,77,c),
(2882,78,o),
(2880,80,o),
(2877,81,c),
(2873,84,o),
(2886,73,o),
(2881,79,c),
(2879,81,o),
(2877,83,o),
(2875,85,c),
(2872,88,o),
(2881,77,o),
(2879,80,c),
(2875,86,o),
(2871,92,o),
(2869,99,c),
(2870,95,o),
(2871,92,o),
(2873,89,c),
(2865,108,o),
(2861,128,o),
(2858,149,c),
(2859,145,o),
(2859,141,o),
(2860,138,c),
(2847,251,o),
(2861,365,o),
(2875,478,c),
(2874,474,o),
(2874,471,o),
(2873,467,c),
(2874,491,o),
(2887,517,o),
(2875,539,c),
(2859,570,o),
(2808,563,o),
(2801,529,c)
);
}
);
};
layerId = "BD16EEB2-7176-4C06-AA27-F0A62511351C";
name = Original;
shapes = (
{
closed = 1;
nodes = (
(633,775,o),
(528,815,o),
(425,815,cs),
(364,815,o),
(303,801,o),
(248,769,c),
(124,684,o),
(75,533,o),
(75,384,cs),
(75,320,o),
(84,256,o),
(100,197,cs),
(146,47,o),
(275,-23,o),
(409,-23,cs),
(515,-23,o),
(624,20,o),
(700,101,c),
(726,122,o),
(736,143,o),
(736,160,cs),
(736,183,o),
(720,199,o),
(699,199,cs),
(689,199,o),
(678,195,o),
(668,187,c),
(623,134,o),
(591,110,o),
(525,80,cs),
(535,84,ls),
(504,71,o),
(473,62,o),
(440,58,c),
(444,58,o),
(447,59,o),
(451,59,c),
(435,57,o),
(420,56,o),
(405,56,cs),
(391,56,o),
(378,57,o),
(365,59,c),
(375,58,ls),
(350,61,o),
(326,68,o),
(302,77,cs),
(305,76,o),
(309,75,o),
(312,73,c),
(241,107,o),
(217,133,o),
(183,206,cs),
(184,203,o),
(185,200,o),
(187,196,cs),
(173,230,o),
(165,265,o),
(160,301,cs),
(162,290,ls),
(158,319,o),
(156,349,o),
(156,379,cs),
(156,407,o),
(158,435,o),
(161,463,cs),
(161,459,o),
(160,456,o),
(160,452,c),
(166,496,o),
(177,539,o),
(194,580,cs),
(190,570,ls),
(216,628,o),
(235,657,o),
(282,695,cs),
(276,690,ls),
(288,700,o),
(306,709,o),
(322,716,c),
(319,714,o),
(315,713,o),
(312,712,cs),
(337,722,o),
(363,729,o),
(389,733,c),
(386,732,o),
(382,732,o),
(378,731,c),
(394,733,o),
(409,734,o),
(424,734,cs),
(441,734,o),
(458,733,o),
(475,731,cs),
(472,731,o),
(468,732,o),
(464,732,c),
(501,727,o),
(536,717,o),
(570,703,cs),
(567,704,o),
(564,706,o),
(561,707,cs),
(588,697,o),
(642,663,o),
(648,657,cs),
(658,649,o),
(669,640,o),
(683,640,cs),
(706,639,o),
(724,662,o),
(724,683,cs),
(724,693,o),
(720,703,o),
(712,710,cs)
);
}
);
width = 791;
}
);
unicode = 67;
},
{
color = 6;
glyphname = C.alt1;
lastChange = "2023-01-02 14:53:39 +0000";
layers = (
{
background = {
shapes = (
{
closed = 1;
nodes = (
(593,744,o),
(517,772,o),
(443,772,cs),
(248,772,o),
(69,580,o),
(69,369,cs),
(69,331,o),
(75,292,o),
(88,253,c),
(117,89,o),
(275,-14,o),
(431,-14,cs),
(512,-14,o),
(593,14,o),
(654,76,c),
(681,97,o),
(691,119,o),
(691,136,cs),
(691,158,o),
(675,174,o),
(655,174,cs),
(645,174,o),
(634,170,o),
(623,162,c),
(587,120,o),
(570,106,o),
(519,83,cs),
(522,84,o),
(525,86,o),
(529,87,c),
(505,77,o),
(481,71,o),
(456,67,cs),
(460,68,o),
(464,68,o),
(467,69,c),
(454,67,o),
(440,66,o),
(427,66,cs),
(413,66,o),
(400,67,o),
(386,69,c),
(389,68,o),
(393,68,o),
(396,67,c),
(368,71,o),
(341,79,o),
(315,89,cs),
(318,88,o),
(321,87,o),
(324,85,c),
(248,121,o),
(215,152,o),
(180,228,c),
(181,224,o),
(182,221,o),
(184,218,c),
(170,256,o),
(160,295,o),
(153,334,c),
(154,331,o),
(154,327,o),
(154,324,c),
(152,339,o),
(151,353,o),
(151,368,cs),
(151,385,o),
(152,402,o),
(155,419,cs),
(154,415,o),
(154,411,o),
(153,408,c),
(158,441,o),
(167,473,o),
(179,503,cs),
(178,500,o),
(177,497,o),
(175,494,c),
(218,586,o),
(261,633,o),
(350,674,c),
(346,673,o),
(343,672,o),
(340,670,c),
(363,680,o),
(388,687,o),
(413,690,c),
(409,690,o),
(406,689,o),
(402,689,c),
(414,691,o),
(425,691,o),
(437,691,cs),
(449,691,o),
(461,691,o),
(472,689,c),
(461,691,ls),
(485,687,o),
(508,681,o),
(531,672,cs),
(528,673,o),
(524,674,o),
(521,676,c),
(559,659,o),
(584,642,o),
(606,622,cs),
(614,614,o),
(624,610,o),
(633,610,cs),
(655,610,o),
(675,630,o),
(675,652,cs),
(675,661,o),
(672,670,o),
(663,679,cs)
);
}
);
};
layerId = m01;
shapes = (
{
closed = 1;
nodes = (
(519,-14,o),
(587,17,o),
(641,63,cs),
(683,99,o),
(691,117,o),
(691,136,cs),
(691,158,o),
(675,174,o),
(655,174,cs),
(645,174,o),
(629,170,o),
(614,152,cs),
(565,93,o),
(496,64,o),
(427,64,cs),
(230,64,o),
(151,240,o),
(151,368,cs),
(151,535,o),
(282,694,o),
(437,694,cs),
(498,694,o),
(554,669,o),
(606,622,cs),
(614,614,o),
(624,610,o),
(633,610,cs),
(655,610,o),
(675,630,o),
(675,652,cs),
(675,661,o),
(672,670,o),
(663,679,cs),
(593,744,o),
(517,772,o),
(443,772,cs),
(248,772,o),
(69,580,o),
(69,369,cs),
(69,150,o),
(219,-14,o),
(431,-14,cs)
);
}
);
width = 765;
},
{
associatedMasterId = m01;
layerId = "4113E47A-548F-411D-A7AE-06D4689B83EC";
name = "29 Nov 22 at 09:52";
shapes = (
{
closed = 1;
nodes = (
(589,744,o),
(513,772,o),
(439,772,cs),
(244,772,o),
(65,580,o),
(65,369,cs),
(65,331,o),
(71,292,o),
(84,253,c),
(113,89,o),
(271,-14,o),
(427,-14,cs),
(508,-14,o),
(589,14,o),
(650,76,c),
(677,97,o),
(687,119,o),
(687,136,cs),
(687,158,o),
(671,174,o),
(651,174,cs),
(641,174,o),
(630,170,o),
(619,162,c),
(583,120,o),
(566,106,o),
(515,83,cs),
(518,84,o),
(521,86,o),
(525,87,c),
(501,77,o),
(477,71,o),
(452,67,cs),
(456,68,o),
(460,68,o),
(463,69,c),
(450,67,o),
(436,66,o),
(423,66,cs),
(409,66,o),
(396,67,o),
(382,69,c),
(385,68,o),
(389,68,o),
(392,67,c),
(364,71,o),
(337,79,o),
(311,89,cs),
(314,88,o),
(317,87,o),
(320,85,c),
(244,121,o),
(211,152,o),
(176,228,c),
(177,224,o),
(178,221,o),
(180,218,c),
(166,256,o),
(156,295,o),
(149,334,c),
(150,331,o),
(150,327,o),
(150,324,c),
(148,339,o),
(147,353,o),
(147,368,cs),
(147,385,o),
(148,402,o),
(151,419,cs),
(150,415,o),
(150,411,o),
(149,408,c),
(154,441,o),
(163,473,o),
(175,503,cs),
(174,500,o),
(173,497,o),
(171,494,c),
(214,586,o),
(257,633,o),
(346,674,c),
(342,673,o),
(339,672,o),
(336,670,c),
(359,680,o),
(384,687,o),
(409,690,c),
(405,690,o),
(402,689,o),
(398,689,c),
(410,691,o),
(421,691,o),
(433,691,cs),
(445,691,o),
(457,691,o),
(468,689,c),
(457,691,ls),
(481,687,o),
(504,681,o),
(527,672,cs),
(524,673,o),
(520,674,o),
(517,676,c),
(555,659,o),
(580,642,o),
(602,622,cs),
(610,614,o),
(620,610,o),
(629,610,cs),
(651,610,o),
(671,630,o),
(671,652,cs),
(671,661,o),
(668,670,o),
(659,679,cs)
);
}
);
width = 732;
}
);
metricLeft = C;
metricRight = C;
},
{
color = 6;
glyphname = C.alt2;
lastChange = "2023-01-02 14:53:39 +0000";
layers = (
{
background = {
shapes = (
{
closed = 1;
nodes = (
(615,741,o),
(531,769,o),
(446,769,cs),
(309,769,o),
(170,696,o),
(112,567,cs),
(83,499,o),
(69,425,o),
(69,350,cs),
(69,307,o),
(73,264,o),
(83,222,cs),
(116,64,o),
(265,-21,o),
(415,-21,cs),
(507,-21,o),
(600,12,o),
(666,81,c),
(691,100,o),
(700,121,o),
(700,139,cs),
(700,161,o),
(685,177,o),
(664,177,cs),
(654,177,o),
(644,173,o),
(633,165,c),
(595,120,o),
(575,104,o),
(520,79,cs),
(524,81,o),
(527,82,o),
(530,83,cs),
(503,72,o),
(474,64,o),
(445,60,cs),
(455,61,l),
(441,59,o),
(426,58,o),
(411,58,cs),
(396,58,o),
(381,59,o),
(366,61,c),
(377,60,ls),
(348,64,o),
(320,71,o),
(294,82,cs),
(303,78,ls),
(231,113,o),
(205,137,o),
(172,208,cs),
(173,205,o),
(174,202,o),
(176,199,c),
(164,228,o),
(157,259,o),
(153,291,c),
(153,287,o),
(154,283,o),
(154,280,c),
(151,302,o),
(150,323,o),
(150,345,cs),
(150,371,o),
(152,397,o),
(155,422,c),
(153,411,ls),
(159,451,o),
(167,491,o),
(183,528,cs),
(182,525,o),
(180,522,o),
(179,519,cs),
(216,597,o),
(250,629,o),
(331,667,c),
(327,666,o),
(324,664,o),
(321,663,cs),
(349,675,o),
(379,683,o),
(410,687,c),
(406,687,o),
(402,686,o),
(399,686,c),
(414,688,o),
(428,689,o),
(443,689,cs),
(458,689,o),
(473,688,o),
(487,686,c),
(477,687,ls),
(504,684,o),
(531,677,o),
(556,666,cs),
(553,667,o),
(550,669,o),
(547,670,cs),
(583,654,o),
(604,639,o),
(622,623,cs),
(630,615,o),
(640,611,o),
(649,611,cs),
(671,611,o),
(691,631,o),
(691,653,cs),
(691,662,o),
(688,671,o),
(679,680,cs)
);
}
);
};
layerId = m01;
shapes = (
{
closed = 1;
nodes = (
(615,741,o),
(531,769,o),
(446,769,cs),
(276,769,o),
(68,664,o),
(68,345,cs),
(68,101,o),
(221,-20,o),
(415,-20,cs),
(507,-20,o),
(600,12,o),
(666,81,cs),
(688,104,o),
(700,121,o),
(700,139,cs),
(700,161,o),
(685,177,o),
(664,177,cs),
(654,177,o),
(642,176,o),
(633,165,cs),
(591,111,o),
(515,58,o),
(411,58,cs),
(262,58,o),
(150,151,o),
(150,345,cs),
(150,579,o),
(273,691,o),
(449,691,cs),
(546,691,o),
(604,639,o),
(622,623,cs),
(630,615,o),
(640,611,o),
(649,611,cs),
(671,611,o),
(691,631,o),
(691,653,cs),
(691,662,o),
(688,671,o),
(679,680,cs)
);
}
);
width = 774;
},
{
associatedMasterId = m01;
layerId = "63BA030E-BB20-44BA-BB5D-550FD08F0A8A";
name = "29 Nov 22 at 09:53";
shapes = (
{
closed = 1;
nodes = (
(611,741,o),
(527,769,o),
(442,769,cs),
(305,769,o),
(166,696,o),
(108,567,cs),
(79,499,o),
(65,425,o),
(65,350,cs),
(65,307,o),
(69,264,o),
(79,222,cs),
(112,64,o),
(261,-21,o),
(411,-21,cs),
(503,-21,o),
(596,12,o),
(662,81,c),
(687,100,o),
(696,121,o),
(696,139,cs),
(696,161,o),
(681,177,o),
(660,177,cs),
(650,177,o),
(640,173,o),
(629,165,c),
(591,120,o),
(571,104,o),
(516,79,cs),
(520,81,o),
(523,82,o),
(526,83,cs),
(499,72,o),
(470,64,o),
(441,60,cs),
(451,61,l),
(437,59,o),
(422,58,o),
(407,58,cs),
(392,58,o),
(377,59,o),
(362,61,c),
(373,60,ls),
(344,64,o),
(316,71,o),
(290,82,cs),
(299,78,ls),
(227,113,o),
(201,137,o),
(168,208,cs),
(169,205,o),
(170,202,o),
(172,199,c),
(160,228,o),
(153,259,o),
(149,291,c),
(149,287,o),
(150,283,o),
(150,280,c),
(147,302,o),
(146,323,o),
(146,345,cs),
(146,371,o),
(148,397,o),
(151,422,c),
(149,411,ls),
(155,451,o),
(163,491,o),
(179,528,cs),
(178,525,o),
(176,522,o),
(175,519,cs),
(212,597,o),
(246,629,o),
(327,667,c),
(323,666,o),
(320,664,o),
(317,663,cs),
(345,675,o),
(375,683,o),
(406,687,c),
(402,687,o),
(398,686,o),
(395,686,c),
(410,688,o),
(424,689,o),
(439,689,cs),
(454,689,o),
(469,688,o),
(483,686,c),
(473,687,ls),
(500,684,o),
(527,677,o),
(552,666,cs),
(549,667,o),
(546,669,o),
(543,670,cs),
(579,654,o),
(600,639,o),
(618,623,cs),
(626,615,o),
(636,611,o),
(645,611,cs),
(667,611,o),
(687,631,o),
(687,653,cs),
(687,662,o),
(684,671,o),
(675,680,cs)
);
}
);
width = 741;
}
);
metricLeft = C;
metricRight = C;
},
{
color = 6;
glyphname = C.alt3;
lastChange = "2023-01-02 14:53:39 +0000";
layers = (
{
background = {
shapes = (
{
closed = 1;
nodes = (
(624,735,o),
(536,771,o),
(447,771,cs),
(230,771,o),
(69,594,o),
(69,365,cs),
(69,244,o),
(116,122,o),
(212,38,cs),
(262,-4,o),
(324,-23,o),
(387,-23,cs),
(504,-23,o),
(625,39,o),
(690,130,c),
(694,138,o),
(696,145,o),
(696,152,cs),
(696,174,o),
(676,190,o),
(654,190,cs),
(640,190,o),
(626,183,o),
(617,166,cs),
(618,168,o),
(619,170,o),
(621,172,cs),
(583,126,o),
(556,107,o),
(500,82,cs),
(510,86,ls),
(481,74,o),
(451,66,o),
(420,61,c),
(423,62,o),
(427,62,o),
(430,63,c),
(416,61,o),
(402,60,o),
(388,60,cs),
(374,60,o),
(360,61,o),
(345,63,c),
(356,61,l),
(334,64,o),
(312,70,o),
(291,78,c),
(294,76,o),
(297,75,o),
(300,74,c),
(295,76,o),
(262,101,o),
(280,87,c),
(259,103,o),
(241,122,o),
(225,142,cs),
(228,138,ls),
(208,164,o),
(192,192,o),
(180,222,c),
(181,218,o),
(182,215,o),
(184,212,c),
(168,249,o),
(158,287,o),
(153,326,cs),
(154,316,l),
(151,337,o),
(150,358,o),
(150,379,cs),
(150,397,o),
(151,414,o),
(153,432,c),
(153,428,o),
(153,425,o),
(152,421,c),
(156,453,o),
(163,484,o),
(176,514,c),
(174,511,o),
(173,507,o),
(172,504,cs),
(211,588,o),
(253,628,o),
(340,669,cs),
(330,665,ls),
(358,676,o),
(387,685,o),
(418,689,c),
(407,687,l),
(421,689,o),
(435,690,o),
(449,690,cs),
(461,690,o),
(473,689,o),
(486,688,cs),
(482,688,o),
(479,689,o),
(475,689,c),
(499,686,o),
(523,679,o),
(546,670,cs),
(543,671,o),
(539,672,o),
(536,674,c),
(556,665,o),
(575,654,o),
(593,641,cs),
(588,645,ls),
(602,634,o),
(614,622,o),
(626,609,cs),
(634,600,o),
(644,597,o),
(653,597,cs),
(675,597,o),
(695,617,o),
(695,640,cs),
(695,649,o),
(691,658,o),
(683,667,cs)
);
}
);
};
layerId = m01;
shapes = (
{
closed = 1;
nodes = (
(624,735,o),
(536,771,o),
(447,771,cs),
(230,771,o),
(69,594,o),
(69,365,cs),
(69,167,o),
(193,-20,o),
(387,-20,cs),
(504,-20,o),
(625,39,o),
(690,130,cs),
(695,137,o),
(696,145,o),
(696,152,cs),
(696,174,o),
(676,190,o),
(654,190,cs),
(640,190,o),
(631,183,o),
(618,166,cs),
(570,103,o),
(475,58,o),
(388,58,cs),
(240,58,o),
(150,215,o),
(150,379,cs),
(150,605,o),
(327,693,o),
(449,693,cs),
(524,693,o),
(588,655,o),
(626,609,cs),
(634,600,o),
(644,597,o),
(653,597,cs),
(675,597,o),
(695,617,o),
(695,640,cs),
(695,649,o),
(691,658,o),
(683,667,cs)
);
}
);
width = 769;
}
);
metricLeft = C;
metricRight = C;
},
{
color = 6;
glyphname = C.alt4;
lastChange = "2023-01-02 14:53:40 +0000";
layers = (
{
background = {
shapes = (
{
closed = 1;
nodes = (
(588,743,o),
(508,773,o),
(433,773,cs),
(235,773,o),
(68,569,o),
(68,350,cs),
(68,295,o),
(78,238,o),
(102,184,cs),
(155,49,o),
(267,-15,o),
(385,-15,cs),
(471,-15,o),
(561,19,o),
(634,84,c),
(668,105,o),
(681,129,o),
(681,148,cs),
(681,169,o),
(666,184,o),
(645,184,cs),
(635,184,o),
(624,181,o),
(613,173,c),
(571,134,o),
(540,110,o),
(481,84,cs),
(484,85,o),
(487,86,o),
(490,88,c),
(464,77,o),
(437,69,o),
(408,65,c),
(412,65,o),
(416,66,o),
(419,66,cs),
(408,65,o),
(396,64,o),
(384,64,cs),
(372,64,o),
(361,65,o),
(349,66,cs),
(353,66,o),
(356,65,o),
(360,65,c),
(338,68,o),
(317,73,o),
(297,82,c),
(300,80,o),
(303,79,o),
(307,78,c),
(288,85,o),
(271,95,o),
(255,107,cs),
(252,109,o),
(247,114,o),
(258,105,cs),
(214,142,o),
(201,161,o),
(176,215,cs),
(177,212,o),
(179,209,o),
(180,206,cs),
(167,237,o),
(158,270,o),
(153,304,c),
(154,301,o),
(154,297,o),
(155,294,c),
(152,315,o),
(151,335,o),
(151,356,cs),
(151,379,o),
(152,402,o),
(155,424,c),
(155,420,o),
(154,417,o),
(154,413,c),
(158,444,o),
(166,473,o),
(178,502,c),
(177,498,o),
(176,495,o),
(174,492,c),
(216,584,o),
(260,634,o),
(348,675,cs),
(345,674,o),
(342,672,o),
(338,671,c),
(361,680,o),
(385,687,o),
(409,690,cs),
(399,689,l),
(411,691,o),
(422,691,o),
(434,691,cs),
(445,691,o),
(457,691,o),
(468,689,c),
(457,691,ls),
(481,687,o),
(505,681,o),
(527,671,c),
(524,673,o),
(521,674,o),
(517,675,c),
(541,665,o),
(564,652,o),
(585,636,c),
(574,643,o),
(581,639,o),
(584,637,cs),
(608,616,l),
(616,607,o),
(626,604,o),
(635,604,cs),
(657,604,o),
(677,624,o),
(677,646,cs),
(677,655,o),
(673,665,o),
(665,673,cs)
);
}
);
};
layerId = m01;
shapes = (
{
closed = 1;
nodes = (
(588,743,o),
(508,773,o),
(433,773,cs),
(235,773,o),
(68,569,o),
(68,350,cs),
(68,164,o),
(185,-15,o),
(385,-15,cs),
(471,-15,o),
(562,20,o),
(651,97,cs),
(669,112,o),
(681,129,o),
(681,148,cs),
(681,169,o),
(666,184,o),
(645,184,cs),
(635,184,o),
(623,181,o),
(613,171,cs),
(556,114,o),
(473,63,o),
(384,63,cs),
(236,63,o),
(151,198,o),
(151,356,cs),
(151,593,o),
(323,695,o),
(434,695,cs),
(497,695,o),
(569,659,o),
(608,618,cs),
(616,609,o),
(626,606,o),
(635,606,cs),
(657,606,o),
(677,624,o),
(677,646,cs),
(677,655,o),
(673,665,o),
(665,673,cs)
);
}
);
width = 754;
}
);
metricLeft = C;
metricRight = C;
},
{
color = 6;
glyphname = D;
lastChange = "2023-01-02 14:53:39 +0000";
layers = (
{
background = {
shapes = (
{
closed = 1;
nodes = (
(178,249,o),
(202,476,o),
(207,705,c),
(177,666,l),
(199,671,o),
(221,675,o),
(243,678,c),
(232,676,ls),
(261,680,o),
(290,682,o),
(319,682,cs),
(342,682,o),
(364,681,o),
(387,678,c),
(383,678,o),
(380,679,o),
(376,679,c),
(411,674,o),
(446,666,o),
(478,652,cs),
(469,656,ls),
(547,621,o),
(585,585,o),
(621,507,cs),
(620,510,o),
(618,513,o),
(617,517,c),
(628,489,o),
(636,461,o),
(640,432,cs),
(639,442,l),
(641,427,o),
(642,412,o),
(642,397,cs),
(642,380,o),
(641,363,o),
(638,346,c),
(639,349,o),
(639,353,o),
(640,356,c),
(635,323,o),
(626,291,o),
(614,260,cs),
(615,263,o),
(616,266,o),
(618,269,c),
(575,176,o),
(526,126,o),
(432,84,c),
(436,85,o),
(439,87,o),
(442,88,cs),
(407,74,o),
(371,64,o),
(334,59,c),
(338,59,o),
(341,60,o),
(345,60,c),
(323,57,o),
(301,56,o),
(279,56,cs),
(253,56,o),
(227,58,o),
(201,61,c),
(205,61,o),
(208,60,o),
(212,60,c),
(192,64,o),
(166,70,o),
(142,70,cs),
(113,70,o),
(88,60,o),
(86,20,cs),
(86,-6,o),
(106,-19,o),
(126,-19,cs),
(147,-19,o),
(168,-5,o),
(167,23,cs),
(167,19,o),
(166,16,o),
(166,12,cs),
(166,13,o),
(166,14,o),
(167,16,c),
(166,12,o),
(164,9,o),
(163,6,c),
(153,-2,o),
(149,-5,o),
(150,-5,cs),
(151,-5,o),
(152,-5,o),
(153,-4,c),
(150,-5,o),
(147,-7,o),
(144,-8,c),
(145,-8,ls),
(142,-8,o),
(138,-9,o),
(134,-9,cs),
(143,-9,l),
(132,-8,l),
(184,-20,o),
(234,-25,o),
(279,-25,cs),
(568,-25,o),
(721,189,o),
(721,394,cs),
(721,583,o),
(592,764,o),
(321,764,cs),
(271,764,o),
(216,757,o),
(156,744,cs),
(138,740,o),
(126,722,o),
(126,705,cs),
(124,616,o),
(119,528,o),
(113,440,cs),
(104,300,o),
(93,160,o),
(86,20,cs),
(86,-6,o),
(106,-19,o),
(127,-19,cs),
(147,-19,o),
(167,-6,o),
(167,20,cs)
);
}
);
};
layerId = m01;
shapes = (
{
closed = 1;
nodes = (
(86,-6,o),
(106,-19,o),
(126,-19,cs),
(133,-19,o),
(143,-17,o),
(151,-12,c),
(196,-21,o),
(239,-25,o),
(279,-25,cs),
(568,-25,o),
(721,189,o),
(721,394,cs),
(721,583,o),
(592,764,o),
(321,764,cs),
(271,764,o),
(216,757,o),
(156,744,cs),
(138,740,o),
(126,722,o),
(126,705,cs),
(124,616,o),
(119,528,o),
(113,440,cs),
(104,300,o),
(93,160,o),
(86,20,cs)
);
},
{
closed = 1;
nodes = (
(181,267,o),
(198,473,o),
(204,675,c),
(235,681,o),
(292,686,o),
(334,686,cs),
(473,686,o),
(642,600,o),
(642,397,cs),
(642,181,o),
(472,53,o),
(279,53,cs),
(253,53,o),
(192,58,o),
(169,65,c)
);
}
);
width = 786;
},
{
associatedMasterId = m01;
layerId = "651A1F05-6465-4B23-ADFE-5916DBFD219D";
name = "Original variations";
shapes = (
{
closed = 1;
nodes = (
(62,675,o),
(61,627,o),
(61,579,cs),
(61,448,o),
(73,318,o),
(73,187,cs),
(73,140,o),
(71,94,o),
(67,47,cs),
(66,21,o),
(87,8,o),
(107,8,cs),
(127,8,o),
(148,21,o),
(148,47,c),
(152,95,o),
(154,143,o),
(154,191,cs),
(154,318,o),
(143,445,o),
(142,572,c),
(141,578,o),
(141,585,o),
(141,593,cs),
(141,624,o),
(147,668,o),
(147,703,cs),
(147,725,o),
(145,743,o),
(136,752,cs),
(128,760,o),
(118,763,o),
(109,763,cs),
(88,763,o),
(67,747,o),
(67,723,c)
);
},
{
closed = 1;
nodes = (
(80,673,o),
(88,674,o),
(95,675,c),
(84,673,ls),
(140,681,o),
(196,686,o),
(252,686,cs),
(288,686,o),
(325,684,o),
(361,679,cs),
(351,680,ls),
(391,675,o),
(431,666,o),
(468,650,cs),
(465,651,o),
(462,653,o),
(459,654,cs),
(478,646,o),
(497,636,o),
(513,624,cs),
(516,622,o),
(522,616,o),
(511,626,c),
(523,617,o),
(534,606,o),
(543,595,cs),
(547,589,o),
(541,597,o),
(540,598,cs),
(550,586,o),
(558,572,o),
(564,558,c),
(562,561,o),
(561,564,o),
(560,567,cs),
(577,527,o),
(589,484,o),
(595,440,c),
(595,444,o),
(594,447,o),
(594,451,c),
(596,434,o),
(597,416,o),
(597,399,cs),
(597,383,o),
(596,368,o),
(594,352,c),
(596,363,ls),
(592,335,o),
(585,309,o),
(574,283,cs),
(578,293,ls),
(568,269,o),
(554,246,o),
(539,225,cs),
(518,196,o),
(456,145,o),
(394,121,c),
(397,123,o),
(401,124,o),
(404,125,cs),
(358,106,o),
(310,94,o),
(262,88,cs),
(272,89,ls),
(244,85,o),
(215,83,o),
(187,83,cs),
(154,83,o),
(122,86,o),
(90,90,c),
(93,89,o),
(97,89,o),
(101,88,c),
(83,90,o),
(60,97,o),
(40,97,cs),
(22,97,o),
(7,91,o),
(1,69,cs),
(0,66,o),
(0,62,o),
(0,59,cs),
(0,41,o),
(11,22,o),
(29,19,cs),
(76,8,o),
(127,2,o),
(178,2,cs),
(412,2,o),
(662,120,o),
(677,374,cs),
(680,488,o),
(653,622,o),
(555,693,cs),
(469,750,o),
(367,767,o),
(264,767,cs),
(193,767,o),
(120,759,o),
(52,750,c),
(31,744,o),
(23,728,o),
(23,712,cs),
(23,691,o),
(37,670,o),
(61,670,cs),
(65,670,o),
(69,671,o),
(73,672,cs)
);
},
{
closed = 1;
nodes = (
(2148,483,o),
(2142,248,o),
(2130,13,cs),
(2129,-13,o),
(2150,-26,o),
(2170,-26,cs),
(2191,-26,o),
(2211,-13,o),
(2211,13,cs),
(2223,248,o),
(2229,483,o),
(2231,718,cs),
(2232,744,o),
(2211,757,o),
(2191,757,cs),
(2171,757,o),
(2150,744,o),
(2150,718,cs)
);
},
{
closed = 1;
nodes = (
(2235,672,o),
(2267,674,o),
(2299,674,cs),
(2329,674,o),
(2359,672,o),
(2388,668,cs),
(2378,669,ls),
(2417,664,o),
(2457,654,o),
(2494,639,cs),
(2484,643,ls),
(2556,610,o),
(2586,584,o),
(2618,515,c),
(2616,518,o),
(2615,521,o),
(2614,525,c),
(2621,507,o),
(2627,489,o),
(2635,472,c),
(2634,475,o),
(2632,478,o),
(2631,482,c),
(2642,456,o),
(2649,428,o),
(2653,400,c),
(2653,404,o),
(2652,407,o),
(2652,411,c),
(2654,396,o),
(2655,381,o),
(2655,366,cs),
(2655,351,o),
(2654,336,o),
(2652,321,c),
(2653,331,ls),
(2649,300,o),
(2641,270,o),
(2629,242,cs),
(2630,245,o),
(2632,248,o),
(2633,251,cs),
(2596,172,o),
(2562,136,o),
(2485,99,c),
(2488,101,o),
(2491,102,o),
(2494,103,cs),
(2460,89,o),
(2422,81,o),
(2385,76,cs),
(2396,78,ls),
(2361,73,o),
(2326,71,o),
(2292,71,cs),
(2250,71,o),
(2209,74,o),
(2168,77,cs),
(2158,78,o),
(2146,72,o),
(2139,65,cs),
(2131,57,o),
(2128,48,o),
(2128,38,cs),
(2128,17,o),
(2144,-3,o),
(2168,-4,cs),
(2211,-7,o),
(2255,-10,o),
(2299,-10,cs),
(2398,-10,o),
(2497,4,o),
(2580,60,cs),
(2680,129,o),
(2736,248,o),
(2736,367,cs),
(2736,423,o),
(2723,479,o),
(2697,530,c),
(2698,527,o),
(2700,524,o),
(2701,521,cs),
(2650,696,o),
(2466,755,o),
(2296,755,cs),
(2264,755,o),
(2233,753,o),
(2203,749,c),
(2177,749,o),
(2164,729,o),
(2164,708,cs),
(2164,688,o),
(2177,668,o),
(2203,668,c)
);
},
{
closed = 1;
nodes = (
(1116,554,o),
(1125,399,o),
(1125,243,cs),
(1125,206,o),
(1124,169,o),
(1123,132,cs),
(1122,111,o),
(1142,90,o),
(1164,91,cs),
(1186,92,o),
(1203,109,o),
(1204,132,cs),
(1205,165,o),
(1205,199,o),
(1205,232,cs),
(1205,345,o),
(1201,457,o),
(1197,570,cs),
(1196,616,o),
(1194,663,o),
(1193,710,cs),
(1193,736,o),
(1173,749,o),
(1152,749,cs),
(1132,749,o),
(1112,736,o),
(1112,710,cs)
);
},
{
closed = 1;
nodes = (
(1184,684,o),
(1199,687,o),
(1215,689,c),
(1211,688,o),
(1207,688,o),
(1204,687,c),
(1233,691,o),
(1262,693,o),
(1291,693,cs),
(1316,693,o),
(1341,691,o),
(1366,688,c),
(1362,688,o),
(1359,689,o),
(1355,689,c),
(1395,684,o),
(1434,674,o),
(1471,659,cs),
(1468,660,o),
(1465,661,o),
(1461,663,cs),
(1543,625,o),
(1583,590,o),
(1619,511,c),
(1614,520,l),
(1627,491,o),
(1635,460,o),
(1639,428,c),
(1639,432,o),
(1638,435,o),
(1638,439,c),
(1640,422,o),
(1641,405,o),
(1641,387,cs),
(1641,370,o),
(1640,353,o),
(1638,335,c),
(1638,339,o),
(1639,342,o),
(1639,346,c),
(1635,313,o),
(1626,280,o),
(1613,250,cs),
(1614,253,o),
(1616,256,o),
(1617,259,cs),
(1583,182,o),
(1548,147,o),
(1471,113,c),
(1475,114,o),
(1478,116,o),
(1481,117,cs),
(1447,103,o),
(1411,94,o),
(1374,89,cs),
(1385,91,l),
(1355,87,o),
(1325,85,o),
(1295,85,cs),
(1241,85,o),
(1187,91,o),
(1133,97,cs),
(1112,98,o),
(1092,77,o),
(1093,56,c),
(1089,15,o),
(1173,3,o),
(1260,3,cs),
(1336,3,o),
(1413,12,o),
(1437,18,c),
(1616,49,o),
(1723,219,o),
(1723,391,cs),
(1723,436,o),
(1716,481,o),
(1700,524,cs),
(1642,700,o),
(1461,774,o),
(1285,774,cs),
(1238,774,o),
(1192,769,o),
(1148,759,cs),
(1128,754,o),
(1119,739,o),
(1119,723,cs),
(1119,702,o),
(1134,680,o),
(1159,680,cs),
(1162,680,o),
(1166,680,o),
(1170,681,cs)
);
},
{
closed = 1;
nodes = (
(3154,628,o),
(3150,530,o),
(3150,432,cs),
(3150,362,o),
(3152,291,o),
(3152,221,cs),
(3152,200,o),
(3152,180,o),
(3151,159,cs),
(3150,106,o),
(3148,54,o),
(3141,2,cs),
(3140,-7,o),
(3147,-20,o),
(3153,-26,cs),
(3161,-34,o),
(3171,-38,o),
(3181,-38,cs),
(3202,-38,o),
(3222,-22,o),
(3222,2,c),
(3233,84,o),
(3233,167,o),
(3233,250,cs),
(3233,308,o),
(3231,367,o),
(3231,425,cs),
(3231,496,o),
(3233,567,o),
(3242,638,c),
(3241,634,o),
(3241,631,o),
(3241,627,c),
(3244,653,o),
(3249,678,o),
(3255,703,cs),
(3256,707,o),
(3257,711,o),
(3257,714,cs),
(3257,738,o),
(3235,753,o),
(3213,753,cs),
(3198,753,o),
(3182,745,o),
(3177,725,cs)
);
},
{
closed = 1;
nodes = (
(3160,677,o),
(3172,679,o),
(3184,680,c),
(3174,679,ls),
(3212,684,o),
(3251,687,o),
(3290,687,cs),
(3325,687,o),
(3360,685,o),
(3395,680,cs),
(3385,682,ls),
(3434,675,o),
(3482,663,o),
(3528,644,cs),
(3518,648,ls),
(3548,635,o),
(3576,619,o),
(3603,600,cs),
(3598,604,o),
(3596,605,o),
(3597,604,cs),
(3615,590,o),
(3635,571,o),
(3650,552,cs),
(3645,558,l),
(3645,558,o),
(3647,556,o),
(3648,554,cs),
(3661,536,o),
(3672,517,o),
(3681,496,cs),
(3680,499,o),
(3679,502,o),
(3677,506,cs),
(3688,480,o),
(3695,452,o),
(3699,425,c),
(3698,428,o),
(3698,432,o),
(3697,436,c),
(3699,417,o),
(3701,399,o),
(3701,380,cs),
(3701,368,o),
(3701,356,o),
(3699,345,c),
(3699,349,o),
(3700,353,o),
(3700,356,cs),
(3696,325,o),
(3688,295,o),
(3676,266,cs),
(3677,269,o),
(3678,272,o),
(3680,276,cs),
(3636,180,o),
(3584,128,o),
(3488,84,c),
(3492,85,o),
(3495,86,o),
(3498,88,c),
(3470,76,o),
(3440,67,o),
(3409,63,c),
(3420,65,ls),
(3391,61,o),
(3361,61,o),
(3331,61,cs),
(3272,61,ls),
(3236,61,o),
(3200,60,o),
(3164,53,c),
(3143,45,o),
(3135,31,o),
(3135,16,cs),
(3135,-6,o),
(3153,-27,o),
(3179,-27,cs),
(3186,-27,o),
(3192,-26,o),
(3199,-23,c),
(3188,-24,ls),
(3322,-13,o),
(3467,-40,o),
(3585,43,c),
(3717,127,o),
(3781,258,o),
(3781,386,cs),
(3781,552,o),
(3672,711,o),
(3463,750,cs),
(3423,759,o),
(3344,768,o),
(3269,768,cs),
(3198,768,o),
(3130,760,o),
(3102,734,c),
(3098,728,o),
(3097,721,o),
(3097,715,cs),
(3097,693,o),
(3115,673,o),
(3137,673,cs),
(3141,673,o),
(3144,674,o),
(3148,675,cs)
);
},
{
closed = 1;
nodes = (
(4234,685,o),
(4234,649,o),
(4234,614,cs),
(4234,420,o),
(4225,226,o),
(4207,33,cs),
(4206,7,o),
(4227,-6,o),
(4247,-6,cs),
(4268,-6,o),
(4288,7,o),
(4288,33,c),
(4306,226,o),
(4315,420,o),
(4315,614,cs),
(4315,649,o),
(4315,685,o),
(4314,720,cs),
(4314,746,o),
(4294,759,o),
(4273,759,cs),
(4253,759,o),
(4233,746,o),
(4233,720,cs)
);
},
{
closed = 1;
nodes = (
(4308,672,o),
(4314,673,o),
(4319,673,cs),
(4315,673,o),
(4312,672,o),
(4308,672,c),
(4340,676,o),
(4372,679,o),
(4404,679,cs),
(4431,679,o),
(4457,677,o),
(4483,674,cs),
(4472,675,ls),
(4512,670,o),
(4551,660,o),
(4589,644,cs),
(4585,646,o),
(4582,647,o),
(4579,648,cs),
(4658,612,o),
(4693,582,o),
(4728,506,cs),
(4724,516,ls),
(4735,490,o),
(4742,462,o),
(4746,435,c),
(4745,438,o),
(4745,442,o),
(4744,445,c),
(4746,428,o),
(4747,411,o),
(4747,394,cs),
(4747,374,o),
(4746,353,o),
(4743,332,c),
(4745,343,ls),
(4740,309,o),
(4733,275,o),
(4720,244,c),
(4722,247,o),
(4723,251,o),
(4724,254,cs),
(4691,181,o),
(4660,156,o),
(4586,121,cs),
(4589,122,o),
(4592,124,o),
(4595,125,cs),
(4548,105,o),
(4497,94,o),
(4446,87,cs),
(4457,89,ls),
(4401,81,o),
(4345,79,o),
(4290,77,cs),
(4257,76,o),
(4204,81,o),
(4204,35,cs),
(4205,14,o),
(4222,-6,o),
(4244,-6,cs),
(4344,-2,o),
(4444,-1,o),
(4541,23,c),
(4714,56,o),
(4826,192,o),
(4828,368,cs),
(4829,381,o),
(4830,393,o),
(4830,405,cs),
(4830,634,o),
(4621,762,o),
(4408,762,cs),
(4382,762,o),
(4356,760,o),
(4330,756,cs),
(4305,751,o),
(4271,756,o),
(4257,731,cs),
(4253,724,o),
(4251,718,o),
(4251,711,cs),
(4251,689,o),
(4270,670,o),
(4293,670,cs),
(4296,670,o),
(4300,670,o),
(4303,671,cs)
);
}
);
width = 4830;
},
{
associatedMasterId = m01;
layerId = "9D909F62-5D4F-459E-85C2-0E04A3D13203";
name = Original;
shapes = (
{
closed = 1;
nodes = (
(177,249,o),
(201,476,o),
(206,705,c),
(176,666,l),
(198,671,o),
(220,675,o),
(242,678,c),
(231,676,ls),
(260,680,o),
(289,682,o),
(318,682,cs),
(341,682,o),
(363,681,o),
(386,678,c),
(382,678,o),
(379,679,o),
(375,679,c),
(410,674,o),
(445,666,o),
(477,652,cs),
(468,656,ls),
(546,621,o),
(584,585,o),
(620,507,cs),
(619,510,o),
(617,513,o),
(616,517,c),
(627,489,o),
(635,461,o),
(639,432,cs),
(638,442,l),
(640,427,o),
(641,412,o),
(641,397,cs),
(641,380,o),
(640,363,o),
(637,346,c),
(638,349,o),
(638,353,o),
(639,356,c),
(634,323,o),
(625,291,o),
(613,260,cs),
(614,263,o),
(615,266,o),
(617,269,c),
(574,176,o),
(525,126,o),
(431,84,c),
(435,85,o),
(438,87,o),
(441,88,cs),
(406,74,o),
(370,64,o),
(333,59,c),
(337,59,o),
(340,60,o),
(344,60,c),
(322,57,o),
(300,56,o),
(278,56,cs),
(252,56,o),
(226,58,o),
(200,61,c),
(204,61,o),
(207,60,o),
(211,60,c),
(191,64,o),
(165,70,o),
(141,70,cs),
(112,70,o),
(87,60,o),
(85,20,cs),
(85,-6,o),
(105,-19,o),
(125,-19,cs),
(146,-19,o),
(167,-5,o),
(166,23,cs),
(166,19,o),
(165,16,o),
(165,12,cs),
(165,13,o),
(165,14,o),
(166,16,c),
(165,12,o),
(163,9,o),
(162,6,c),
(152,-2,o),
(148,-5,o),
(149,-5,cs),
(150,-5,o),
(151,-5,o),
(152,-4,c),
(149,-5,o),
(146,-7,o),
(143,-8,c),
(144,-8,ls),
(141,-8,o),
(137,-9,o),
(133,-9,cs),
(142,-9,l),
(131,-8,l),
(183,-20,o),
(233,-25,o),
(278,-25,cs),
(567,-25,o),
(720,189,o),
(720,394,cs),
(720,583,o),
(591,764,o),
(320,764,cs),
(270,764,o),
(215,757,o),
(155,744,cs),
(137,740,o),
(125,722,o),
(125,705,cs),
(123,616,o),
(118,528,o),
(112,440,cs),
(103,300,o),
(92,160,o),
(85,20,cs),
(85,-6,o),
(105,-19,o),
(126,-19,cs),
(146,-19,o),
(166,-6,o),
(166,20,cs)
);
}
);
width = 774;
}
);
unicode = 68;
},
{
color = 6;
glyphname = D.alt1;
lastChange = "2023-01-02 14:53:39 +0000";
layers = (
{
background = {
shapes = (
{
closed = 1;
nodes = (
(150,672,o),
(149,624,o),
(149,576,cs),
(149,445,o),
(161,315,o),
(161,184,cs),
(161,137,o),
(159,91,o),
(155,44,cs),
(154,18,o),
(175,5,o),
(195,5,cs),
(215,5,o),
(236,18,o),
(236,44,c),
(240,92,o),
(242,140,o),
(242,188,cs),
(242,315,o),
(231,442,o),
(230,569,c),
(229,575,o),
(229,582,o),
(229,590,cs),
(229,621,o),
(235,665,o),
(235,700,cs),
(235,722,o),
(233,740,o),
(224,749,cs),
(216,757,o),
(206,760,o),
(197,760,cs),
(176,760,o),
(155,744,o),
(155,720,c)
);
},
{
closed = 1;
nodes = (
(168,670,o),
(176,671,o),
(183,672,c),
(172,670,ls),
(228,678,o),
(284,683,o),
(340,683,cs),
(376,683,o),
(413,681,o),
(449,676,cs),
(439,677,ls),
(479,672,o),
(519,663,o),
(556,647,cs),
(553,648,o),
(550,650,o),
(547,651,cs),
(566,643,o),
(585,633,o),
(601,621,cs),
(604,619,o),
(610,613,o),
(599,623,c),
(611,614,o),
(622,603,o),
(631,592,cs),
(635,586,o),
(629,594,o),
(628,595,cs),
(638,583,o),
(646,569,o),
(652,555,c),
(650,558,o),
(649,561,o),
(648,564,cs),
(665,524,o),
(677,481,o),
(683,437,c),
(683,441,o),
(682,444,o),
(682,448,c),
(684,431,o),
(685,413,o),
(685,396,cs),
(685,380,o),
(684,365,o),
(682,349,c),
(684,360,ls),
(680,332,o),
(673,306,o),
(662,280,cs),
(666,290,ls),
(656,266,o),
(642,243,o),
(627,222,cs),
(606,193,o),
(544,142,o),
(482,118,c),
(485,120,o),
(489,121,o),
(492,122,cs),
(446,103,o),
(398,91,o),
(350,85,cs),
(360,86,ls),
(332,82,o),
(303,80,o),
(275,80,cs),
(242,80,o),
(210,83,o),
(178,87,c),
(181,86,o),
(185,86,o),
(189,85,c),
(171,87,o),
(148,94,o),
(128,94,cs),
(110,94,o),
(95,88,o),
(89,66,cs),
(88,63,o),
(88,59,o),
(88,56,cs),
(88,38,o),
(99,19,o),
(117,16,cs),
(164,5,o),
(215,-1,o),
(266,-1,cs),
(500,-1,o),
(750,117,o),
(765,371,cs),
(768,485,o),
(741,619,o),
(643,690,cs),
(557,747,o),
(455,764,o),
(352,764,cs),
(281,764,o),
(208,756,o),
(140,747,c),
(119,741,o),
(111,725,o),
(111,709,cs),
(111,688,o),
(125,667,o),
(149,667,cs),
(153,667,o),
(157,668,o),
(161,669,cs)
);
}
);
};
layerId = m01;
shapes = (
{
closed = 1;
nodes = (
(111,688,o),
(125,669,o),
(151,670,c),
(143,548,o),
(161,303,o),
(161,184,cs),
(161,153,o),
(160,122,o),
(158,87,c),
(148,89,o),
(138,91,o),
(128,92,cs),
(99,94,o),
(88,76,o),
(88,56,cs),
(88,38,o),
(97,19,o),
(123,14,cs),
(163,6,o),
(215,-1,o),
(266,-1,cs),
(500,-1,o),
(750,117,o),
(765,371,cs),
(772,647,o),
(628,764,o),
(352,764,cs),
(306,764,o),
(260,761,o),
(170,751,cs),
(134,748,o),
(111,740,o),
(111,709,cs)
);
},
{
closed = 1;
nodes = (
(242,427,o),
(222,443,o),
(234,681,c),
(270,684,o),
(305,686,o),
(340,686,cs),
(563,686,o),
(685,612,o),
(685,396,cs),
(685,169,o),
(456,68,o),
(239,78,c),
(241,117,o),
(242,152,o),
(242,188,cs)
);
}
);
width = 830;
},
{
associatedMasterId = m01;
layerId = "2F76D258-D0A0-47EC-9D7C-0C0F1E94642B";
name = "29 Nov 22 at 09:52";
shapes = (
{
closed = 1;
nodes = (
(147,672,o),
(146,624,o),
(146,576,cs),
(146,445,o),
(158,315,o),
(158,184,cs),
(158,137,o),
(156,91,o),
(152,44,cs),
(151,18,o),
(172,5,o),
(192,5,cs),
(212,5,o),
(233,18,o),
(233,44,c),
(237,92,o),
(239,140,o),
(239,188,cs),
(239,315,o),
(228,442,o),
(227,569,c),
(226,575,o),
(226,582,o),
(226,590,cs),
(226,621,o),
(232,665,o),
(232,700,cs),
(232,722,o),
(230,740,o),
(221,749,cs),
(213,757,o),
(203,760,o),
(194,760,cs),
(173,760,o),
(152,744,o),
(152,720,c)
);
},
{
closed = 1;
nodes = (
(165,670,o),
(173,671,o),
(180,672,c),
(169,670,ls),
(225,678,o),
(281,683,o),
(337,683,cs),
(373,683,o),
(410,681,o),
(446,676,cs),
(436,677,ls),
(476,672,o),
(516,663,o),
(553,647,cs),
(550,648,o),
(547,650,o),
(544,651,cs),
(563,643,o),
(582,633,o),
(598,621,cs),
(601,619,o),
(607,613,o),
(596,623,c),
(608,614,o),
(619,603,o),
(628,592,cs),
(632,586,o),
(626,594,o),
(625,595,cs),
(635,583,o),
(643,569,o),
(649,555,c),
(647,558,o),
(646,561,o),
(645,564,cs),
(662,524,o),
(674,481,o),
(680,437,c),
(680,441,o),
(679,444,o),
(679,448,c),
(681,431,o),
(682,413,o),
(682,396,cs),
(682,380,o),
(681,365,o),
(679,349,c),
(681,360,ls),
(677,332,o),
(670,306,o),
(659,280,cs),
(663,290,ls),
(653,266,o),
(639,243,o),
(624,222,cs),
(603,193,o),
(541,142,o),
(479,118,c),
(482,120,o),
(486,121,o),
(489,122,cs),
(443,103,o),
(395,91,o),
(347,85,cs),
(357,86,ls),
(329,82,o),
(300,80,o),
(272,80,cs),
(239,80,o),
(207,83,o),
(175,87,c),
(178,86,o),
(182,86,o),
(186,85,c),
(168,87,o),
(145,94,o),
(125,94,cs),
(107,94,o),
(92,88,o),
(86,66,cs),
(85,63,o),
(85,59,o),
(85,56,cs),
(85,38,o),
(96,19,o),
(114,16,cs),
(161,5,o),
(212,-1,o),
(263,-1,cs),
(497,-1,o),
(747,117,o),
(762,371,cs),
(765,485,o),
(738,619,o),
(640,690,cs),
(554,747,o),
(452,764,o),
(349,764,cs),
(278,764,o),
(205,756,o),
(137,747,c),
(116,741,o),
(108,725,o),
(108,709,cs),
(108,688,o),
(122,667,o),
(146,667,cs),
(150,667,o),
(154,668,o),
(158,669,cs)
);
}
);
width = 816;
}
);
metricLeft = D;
metricRight = D;
},
{
color = 6;
glyphname = D.alt2;
lastChange = "2023-01-02 14:53:39 +0000";
layers = (
{
background = {
shapes = (
{
closed = 1;
nodes = (
(115,554,o),
(124,399,o),
(124,243,cs),
(124,206,o),
(123,169,o),
(122,132,cs),
(121,111,o),
(141,90,o),
(163,91,cs),
(185,92,o),
(202,109,o),
(203,132,cs),
(204,165,o),
(204,199,o),
(204,232,cs),
(204,345,o),
(200,457,o),
(196,570,cs),
(195,616,o),
(193,663,o),
(192,710,cs),
(192,736,o),
(172,749,o),
(151,749,cs),
(131,749,o),
(111,736,o),
(111,710,cs)
);
},
{
closed = 1;
nodes = (
(183,684,o),
(198,687,o),
(214,689,c),
(210,688,o),
(206,688,o),
(203,687,c),
(232,691,o),
(261,693,o),
(290,693,cs),
(315,693,o),
(340,691,o),
(365,688,c),
(361,688,o),
(358,689,o),
(354,689,c),
(394,684,o),
(433,674,o),
(470,659,cs),
(467,660,o),
(464,661,o),
(460,663,cs),
(542,625,o),
(582,590,o),
(618,511,c),
(613,520,l),
(626,491,o),
(634,460,o),
(638,428,c),
(638,432,o),
(637,435,o),
(637,439,c),
(639,422,o),
(640,405,o),
(640,387,cs),
(640,370,o),
(639,353,o),
(637,335,c),
(637,339,o),
(638,342,o),
(638,346,c),
(634,313,o),
(625,280,o),
(612,250,cs),
(613,253,o),
(615,256,o),
(616,259,cs),
(582,182,o),
(547,147,o),
(470,113,c),
(474,114,o),
(477,116,o),
(480,117,cs),
(446,103,o),
(410,94,o),
(373,89,cs),
(384,91,l),
(354,87,o),
(324,85,o),
(294,85,cs),
(240,85,o),
(186,91,o),
(132,97,cs),
(111,98,o),
(91,77,o),
(92,56,c),
(88,15,o),
(172,3,o),
(259,3,cs),
(335,3,o),
(412,12,o),
(436,18,c),
(615,49,o),
(722,219,o),
(722,391,cs),
(722,436,o),
(715,481,o),
(699,524,cs),
(641,700,o),
(460,774,o),
(284,774,cs),
(237,774,o),
(191,769,o),
(147,759,cs),
(127,754,o),
(118,739,o),
(118,723,cs),
(118,702,o),
(133,680,o),
(158,680,cs),
(161,680,o),
(165,680,o),
(169,681,cs)
);
}
);
};
layerId = m01;
shapes = (
{
closed = 1;
nodes = (
(111,95,o),
(92,78,o),
(92,55,cs),
(92,37,o),
(108,24,o),
(135,16,cs),
(167,6,o),
(216,3,o),
(305,3,cs),
(550,3,o),
(722,146,o),
(722,391,cs),
(722,624,o),
(547,774,o),
(284,774,cs),
(237,774,o),
(191,769,o),
(147,759,cs),
(120,753,o),
(110,735,o),
(111,710,cs),
(117,471,o),
(128,331,o),
(122,128,cs),
(121,103,o),
(139,87,o),
(160,87,cs),
(179,87,o),
(201,96,o),
(203,128,cs),
(208,238,o),
(196,574,o),
(193,686,c),
(232,691,o),
(261,693,o),
(290,693,cs),
(499,693,o),
(640,586,o),
(640,387,cs),
(640,209,o),
(529,81,o),
(303,81,cs),
(247,81,o),
(195,87,o),
(132,93,cs)
);
}
);
width = 787;
},
{
associatedMasterId = m01;
layerId = "30F10295-CF62-4CF3-90D7-84120BD9D80A";
name = "29 Nov 22 at 09:53";
shapes = (
{
closed = 1;
nodes = (
(108,554,o),
(117,399,o),
(117,243,cs),
(117,206,o),
(116,169,o),
(115,132,cs),
(114,111,o),
(134,90,o),
(156,91,cs),
(178,92,o),
(195,109,o),
(196,132,cs),
(197,165,o),
(197,199,o),
(197,232,cs),
(197,345,o),
(193,457,o),
(189,570,cs),
(188,616,o),
(186,663,o),
(185,710,cs),
(185,736,o),
(165,749,o),
(144,749,cs),
(124,749,o),
(104,736,o),
(104,710,cs)
);
},
{
closed = 1;
nodes = (
(176,684,o),
(191,687,o),
(207,689,c),
(203,688,o),
(199,688,o),
(196,687,c),
(225,691,o),
(254,693,o),
(283,693,cs),
(308,693,o),
(333,691,o),
(358,688,c),
(354,688,o),
(351,689,o),
(347,689,c),
(387,684,o),
(426,674,o),
(463,659,cs),
(460,660,o),
(457,661,o),
(453,663,cs),
(535,625,o),
(575,590,o),
(611,511,c),
(606,520,l),
(619,491,o),
(627,460,o),
(631,428,c),
(631,432,o),
(630,435,o),
(630,439,c),
(632,422,o),
(633,405,o),
(633,387,cs),
(633,370,o),
(632,353,o),
(630,335,c),
(630,339,o),
(631,342,o),
(631,346,c),
(627,313,o),
(618,280,o),
(605,250,cs),
(606,253,o),
(608,256,o),
(609,259,cs),
(575,182,o),
(540,147,o),
(463,113,c),
(467,114,o),
(470,116,o),
(473,117,cs),
(439,103,o),
(403,94,o),
(366,89,cs),
(377,91,l),
(347,87,o),
(317,85,o),
(287,85,cs),
(233,85,o),
(179,91,o),
(125,97,cs),
(104,98,o),
(84,77,o),
(85,56,c),
(81,15,o),
(165,3,o),
(252,3,cs),
(328,3,o),
(405,12,o),
(429,18,c),
(608,49,o),
(715,219,o),
(715,391,cs),
(715,436,o),
(708,481,o),
(692,524,cs),
(634,700,o),
(453,774,o),
(277,774,cs),
(230,774,o),
(184,769,o),
(140,759,cs),
(120,754,o),
(111,739,o),
(111,723,cs),
(111,702,o),
(126,680,o),
(151,680,cs),
(154,680,o),
(158,680,o),
(162,681,cs)
);
}
);
width = 769;
}
);
metricLeft = D;
metricRight = D;
},
{
color = 6;
glyphname = D.alt3;
lastChange = "2023-01-02 14:53:39 +0000";
layers = (
{
background = {
shapes = (
{
closed = 1;
nodes = (
(109,483,o),
(103,248,o),
(91,13,cs),
(90,-13,o),
(111,-26,o),
(131,-26,cs),
(152,-26,o),
(172,-13,o),
(172,13,cs),
(184,248,o),
(190,483,o),
(192,718,cs),
(193,744,o),
(172,757,o),
(152,757,cs),
(132,757,o),
(111,744,o),
(111,718,cs)
);
},
{
closed = 1;
nodes = (
(196,672,o),
(228,674,o),
(260,674,cs),
(290,674,o),
(320,672,o),
(349,668,cs),
(339,669,ls),
(378,664,o),
(418,654,o),
(455,639,cs),
(445,643,ls),
(517,610,o),
(547,584,o),
(579,515,c),
(577,518,o),
(576,521,o),
(575,525,c),
(582,507,o),
(588,489,o),
(596,472,c),
(595,475,o),
(593,478,o),
(592,482,c),
(603,456,o),
(610,428,o),
(614,400,c),
(614,404,o),
(613,407,o),
(613,411,c),
(615,396,o),
(616,381,o),
(616,366,cs),
(616,351,o),
(615,336,o),
(613,321,c),
(614,331,ls),
(610,300,o),
(602,270,o),
(590,242,cs),
(591,245,o),
(593,248,o),
(594,251,cs),
(557,172,o),
(523,136,o),
(446,99,c),
(449,101,o),
(452,102,o),
(455,103,cs),
(421,89,o),
(383,81,o),
(346,76,cs),
(357,78,ls),
(322,73,o),
(287,71,o),
(253,71,cs),
(211,71,o),
(170,74,o),
(129,77,cs),
(119,78,o),
(107,72,o),
(100,65,cs),
(92,57,o),
(89,48,o),
(89,38,cs),
(89,17,o),
(105,-3,o),
(129,-4,cs),
(172,-7,o),
(216,-10,o),
(260,-10,cs),
(359,-10,o),
(458,4,o),
(541,60,cs),
(641,129,o),
(697,248,o),
(697,367,cs),
(697,423,o),
(684,479,o),
(658,530,c),
(659,527,o),
(661,524,o),
(662,521,cs),
(611,696,o),
(427,755,o),
(257,755,cs),
(225,755,o),
(194,753,o),
(164,749,c),
(138,749,o),
(125,729,o),
(125,708,cs),
(125,688,o),
(138,668,o),
(164,668,c)
);
}
);
};
layerId = m01;
shapes = (
{
closed = 1;
nodes = (
(109,483,o),
(103,248,o),
(91,13,cs),
(90,-13,o),
(111,-26,o),
(131,-26,cs),
(152,-26,o),
(172,-13,o),
(172,13,cs),
(184,248,o),
(190,483,o),
(192,718,cs),
(193,744,o),
(172,757,o),
(152,757,cs),
(132,757,o),
(111,744,o),
(111,718,cs)
);
},
{
closed = 1;
nodes = (
(196,675,o),
(228,677,o),
(260,677,cs),
(530,677,o),
(616,525,o),
(616,366,cs),
(616,195,o),
(501,68,o),
(253,68,cs),
(211,68,o),
(180,71,o),
(139,74,cs),
(124,75,o),
(99,65,o),
(99,38,cs),
(99,17,o),
(115,-1,o),
(139,-4,cs),
(182,-9,o),
(216,-10,o),
(277,-10,cs),
(515,-10,o),
(697,124,o),
(697,367,cs),
(697,578,o),
(557,755,o),
(257,755,cs),
(225,755,o),
(194,754,o),
(164,749,cs),
(138,745,o),
(125,729,o),
(125,708,cs),
(125,688,o),
(138,668,o),
(164,671,cs)
);
}
);
width = 763;
},
{
associatedMasterId = m01;
background = {
shapes = (
{
closed = 1;
nodes = (
(109,483,o),
(103,248,o),
(91,13,cs),
(90,-13,o),
(111,-26,o),
(131,-26,cs),
(152,-26,o),
(172,-13,o),
(172,13,cs),
(184,248,o),
(190,483,o),
(192,718,cs),
(193,744,o),
(172,757,o),
(152,757,cs),
(132,757,o),
(111,744,o),
(111,718,cs)
);
},
{
closed = 1;
nodes = (
(196,672,o),
(228,674,o),
(260,674,cs),
(290,674,o),
(320,672,o),
(349,668,cs),
(339,669,ls),
(378,664,o),
(418,654,o),
(455,639,cs),
(445,643,ls),
(517,610,o),
(547,584,o),
(579,515,c),
(577,518,o),
(576,521,o),
(575,525,c),
(582,507,o),
(588,489,o),
(596,472,c),
(595,475,o),
(593,478,o),
(592,482,c),
(603,456,o),
(610,428,o),
(614,400,c),
(614,404,o),
(613,407,o),
(613,411,c),
(615,396,o),
(616,381,o),
(616,366,cs),
(616,351,o),
(615,336,o),
(613,321,c),
(614,331,ls),
(610,300,o),
(602,270,o),
(590,242,cs),
(591,245,o),
(593,248,o),
(594,251,cs),
(557,172,o),
(523,136,o),
(446,99,c),
(449,101,o),
(452,102,o),
(455,103,cs),
(421,89,o),
(383,81,o),
(346,76,cs),
(357,78,ls),
(322,73,o),
(287,71,o),
(253,71,cs),
(211,71,o),
(170,74,o),
(129,77,cs),
(119,78,o),
(107,72,o),
(100,65,cs),
(92,57,o),
(89,48,o),
(89,38,cs),
(89,17,o),
(105,-3,o),
(129,-4,cs),
(172,-7,o),
(216,-10,o),
(260,-10,cs),
(359,-10,o),
(458,4,o),
(541,60,cs),
(641,129,o),
(697,248,o),
(697,367,cs),
(697,423,o),
(684,479,o),
(658,530,c),
(659,527,o),
(661,524,o),
(662,521,cs),
(611,696,o),
(427,755,o),
(257,755,cs),
(225,755,o),
(194,753,o),
(164,749,c),
(138,749,o),
(125,729,o),
(125,708,cs),
(125,688,o),
(138,668,o),
(164,668,c)
);
}
);
};
layerId = "BE920A29-1DCA-4799-8D0E-CAF9959F1FB3";
name = "27 Dec 22 10:08";
shapes = (
{
closed = 1;
nodes = (
(109,483,o),
(103,248,o),
(91,13,cs),
(90,-13,o),
(111,-26,o),
(131,-26,cs),
(152,-26,o),
(172,-13,o),
(172,13,cs),
(184,248,o),
(190,483,o),
(192,718,cs),
(193,744,o),
(172,757,o),
(152,757,cs),
(132,757,o),
(111,744,o),
(111,718,cs)
);
},
{
closed = 1;
nodes = (
(196,672,o),
(228,674,o),
(260,674,cs),
(290,674,o),
(320,672,o),
(349,668,cs),
(339,669,ls),
(378,664,o),
(418,654,o),
(455,639,cs),
(445,643,ls),
(517,610,o),
(547,584,o),
(579,515,c),
(577,518,o),
(576,521,o),
(575,525,c),
(582,507,o),
(588,489,o),
(596,472,c),
(595,475,o),
(593,478,o),
(592,482,c),
(603,456,o),
(610,428,o),
(614,400,c),
(614,404,o),
(613,407,o),
(613,411,c),
(615,396,o),
(616,381,o),
(616,366,cs),
(616,351,o),
(615,336,o),
(613,321,c),
(614,331,ls),
(610,300,o),
(602,270,o),
(590,242,cs),
(591,245,o),
(593,248,o),
(594,251,cs),
(557,172,o),
(523,136,o),
(446,99,c),
(449,101,o),
(452,102,o),
(455,103,cs),
(421,89,o),
(383,81,o),
(346,76,cs),
(357,78,ls),
(322,73,o),
(287,71,o),
(253,71,cs),
(211,71,o),
(170,74,o),
(129,77,cs),
(119,78,o),
(107,72,o),
(100,65,cs),
(92,57,o),
(89,48,o),
(89,38,cs),
(89,17,o),
(105,-3,o),
(129,-4,cs),
(172,-7,o),
(216,-10,o),
(260,-10,cs),
(359,-10,o),
(458,4,o),
(541,60,cs),
(641,129,o),
(697,248,o),
(697,367,cs),
(697,423,o),
(684,479,o),
(658,530,c),
(659,527,o),
(661,524,o),
(662,521,cs),
(611,696,o),
(427,755,o),
(257,755,cs),
(225,755,o),
(194,753,o),
(164,749,c),
(138,749,o),
(125,729,o),
(125,708,cs),
(125,688,o),
(138,668,o),
(164,668,c)
);
}
);
width = 763;
}
);
metricLeft = D;
metricRight = D;
},
{
color = 6;
glyphname = D.alt4;
lastChange = "2023-01-02 14:53:40 +0000";
layers = (
{
background = {
shapes = (
{
closed = 1;
nodes = (
(168,628,o),
(164,530,o),
(164,432,cs),
(164,362,o),
(166,291,o),
(166,221,cs),
(166,200,o),
(166,180,o),
(165,159,cs),
(164,106,o),
(162,54,o),
(155,2,cs),
(154,-7,o),
(161,-20,o),
(167,-26,cs),
(175,-34,o),
(185,-38,o),
(195,-38,cs),
(216,-38,o),
(236,-22,o),
(236,2,c),
(247,84,o),
(247,167,o),
(247,250,cs),
(247,308,o),
(245,367,o),
(245,425,cs),
(245,496,o),
(247,567,o),
(256,638,c),
(255,634,o),
(255,631,o),
(255,627,c),
(258,653,o),
(263,678,o),
(269,703,cs),
(270,707,o),
(271,711,o),
(271,714,cs),
(271,738,o),
(249,753,o),
(227,753,cs),
(212,753,o),
(196,745,o),
(191,725,cs)
);
},
{
closed = 1;
nodes = (
(174,677,o),
(186,679,o),
(198,680,c),
(188,679,ls),
(226,684,o),
(265,687,o),
(304,687,cs),
(339,687,o),
(374,685,o),
(409,680,cs),
(399,682,ls),
(448,675,o),
(496,663,o),
(542,644,cs),
(532,648,ls),
(562,635,o),
(590,619,o),
(617,600,cs),
(612,604,o),
(610,605,o),
(611,604,cs),
(629,590,o),
(649,571,o),
(664,552,cs),
(659,558,l),
(659,558,o),
(661,556,o),
(662,554,cs),
(675,536,o),
(686,517,o),
(695,496,cs),
(694,499,o),
(693,502,o),
(691,506,cs),
(702,480,o),
(709,452,o),
(713,425,c),
(712,428,o),
(712,432,o),
(711,436,c),
(713,417,o),
(715,399,o),
(715,380,cs),
(715,368,o),
(715,356,o),
(713,345,c),
(713,349,o),
(714,353,o),
(714,356,cs),
(710,325,o),
(702,295,o),
(690,266,cs),
(691,269,o),
(692,272,o),
(694,276,cs),
(650,180,o),
(598,128,o),
(502,84,c),
(506,85,o),
(509,86,o),
(512,88,c),
(484,76,o),
(454,67,o),
(423,63,c),
(434,65,ls),
(405,61,o),
(375,61,o),
(345,61,cs),
(286,61,ls),
(250,61,o),
(214,60,o),
(178,53,c),
(157,45,o),
(149,31,o),
(149,16,cs),
(149,-6,o),
(167,-27,o),
(193,-27,cs),
(200,-27,o),
(206,-26,o),
(213,-23,c),
(202,-24,ls),
(336,-13,o),
(481,-40,o),
(599,43,c),
(731,127,o),
(795,258,o),
(795,386,cs),
(795,552,o),
(686,711,o),
(477,750,cs),
(437,759,o),
(358,768,o),
(283,768,cs),
(212,768,o),
(144,760,o),
(116,734,c),
(112,728,o),
(111,721,o),
(111,715,cs),
(111,693,o),
(129,673,o),
(151,673,cs),
(155,673,o),
(158,674,o),
(162,675,cs)
);
}
);
};
layerId = m01;
shapes = (
{
closed = 1;
nodes = (
(181,681,l),
(167,599,o),
(164,514,o),
(164,432,cs),
(164,334,o),
(170,121,o),
(158,26,cs),
(153,-12,o),
(178,-24,o),
(213,-21,cs),
(250,-18,o),
(300,-17,o),
(364,-17,cs),
(677,-17,o),
(795,232,o),
(795,386,cs),
(795,665,o),
(554,768,o),
(306,768,cs),
(238,768,o),
(195,763,o),
(162,756,cs),
(132,750,o),
(111,743,o),
(111,715,cs),
(111,685,o),
(133,673,o),
(162,678,cs)
);
},
{
closed = 1;
nodes = (
(251,175,o),
(245,310,o),
(245,425,cs),
(245,516,o),
(248,606,o),
(265,688,c),
(280,689,o),
(294,690,o),
(304,690,cs),
(592,690,o),
(715,550,o),
(715,380,cs),
(715,263,o),
(600,61,o),
(376,61,cs),
(342,61,o),
(256,60,o),
(242,58,c)
);
}
);
width = 860;
},
{
associatedMasterId = m01;
layerId = "16D31460-8E79-49F2-B235-15BB3E9C0E76";
name = "28 Dec 22 10:23";
shapes = (
{
closed = 1;
nodes = (
(168,628,o),
(164,530,o),
(164,432,cs),
(164,362,o),
(166,291,o),
(166,221,cs),
(166,200,o),
(166,180,o),
(165,159,cs),
(164,106,o),
(162,54,o),
(155,2,cs),
(154,-7,o),
(161,-20,o),
(167,-26,cs),
(175,-34,o),
(185,-38,o),
(195,-38,cs),
(216,-38,o),
(236,-22,o),
(236,2,c),
(247,84,o),
(247,167,o),
(247,250,cs),
(247,308,o),
(245,367,o),
(245,425,cs),
(245,496,o),
(247,567,o),
(256,638,c),
(255,634,o),
(255,631,o),
(255,627,c),
(258,653,o),
(263,678,o),
(269,703,cs),
(270,707,o),
(271,711,o),
(271,714,cs),
(271,738,o),
(249,753,o),
(227,753,cs),
(212,753,o),
(196,745,o),
(191,725,cs)
);
},
{
closed = 1;
nodes = (
(174,677,o),
(186,679,o),
(198,680,c),
(188,679,ls),
(226,684,o),
(265,687,o),
(304,687,cs),
(339,687,o),
(374,685,o),
(409,680,cs),
(399,682,ls),
(448,675,o),
(496,663,o),
(542,644,cs),
(532,648,ls),
(562,635,o),
(590,619,o),
(617,600,cs),
(612,604,o),
(610,605,o),
(611,604,cs),
(629,590,o),
(649,571,o),
(664,552,cs),
(659,558,l),
(659,558,o),
(661,556,o),
(662,554,cs),
(675,536,o),
(686,517,o),
(695,496,cs),
(694,499,o),
(693,502,o),
(691,506,cs),
(702,480,o),
(709,452,o),
(713,425,c),
(712,428,o),
(712,432,o),
(711,436,c),
(713,417,o),
(715,399,o),
(715,380,cs),
(715,368,o),
(715,356,o),
(713,345,c),
(713,349,o),
(714,353,o),
(714,356,cs),
(710,325,o),
(702,295,o),
(690,266,cs),
(691,269,o),
(692,272,o),
(694,276,cs),
(650,180,o),
(598,128,o),
(502,84,c),
(506,85,o),
(509,86,o),
(512,88,c),
(484,76,o),
(454,67,o),
(423,63,c),
(434,65,ls),
(405,61,o),
(375,61,o),
(345,61,cs),
(286,61,ls),
(250,61,o),
(214,60,o),
(178,53,c),
(157,45,o),
(149,31,o),
(149,16,cs),
(149,-6,o),
(167,-27,o),
(193,-27,cs),
(200,-27,o),
(206,-26,o),
(213,-23,c),
(202,-24,ls),
(336,-13,o),
(481,-40,o),
(599,43,c),
(731,127,o),
(795,258,o),
(795,386,cs),
(795,552,o),
(686,711,o),
(477,750,cs),
(437,759,o),
(358,768,o),
(283,768,cs),
(212,768,o),
(144,760,o),
(116,734,c),
(112,728,o),
(111,721,o),
(111,715,cs),
(111,693,o),
(129,673,o),
(151,673,cs),
(155,673,o),
(158,674,o),
(162,675,cs)
);
}
);
width = 860;
}
);
metricLeft = D;
metricRight = D;
},
{
color = 6;
glyphname = D.alt5;
lastChange = "2023-01-02 14:53:40 +0000";
layers = (
{
background = {
shapes = (
{
closed = 1;
nodes = (
(118,534,o),
(106,240,o),
(87,33,cs),
(86,7,o),
(107,-6,o),
(127,-6,cs),
(148,-6,o),
(166,7,o),
(168,33,cs),
(187,239,o),
(199,531,o),
(194,720,cs),
(194,746,o),
(174,759,o),
(153,759,cs),
(133,759,o),
(113,746,o),
(113,720,cs)
);
},
{
closed = 1;
nodes = (
(188,672,o),
(194,673,o),
(199,673,cs),
(195,673,o),
(192,672,o),
(188,672,c),
(220,676,o),
(252,679,o),
(284,679,cs),
(311,679,o),
(389,672,o),
(363,674,cs),
(352,675,ls),
(312,679,o),
(431,660,o),
(469,644,cs),
(465,646,o),
(462,647,o),
(459,648,cs),
(538,612,o),
(639,428,o),
(608,506,cs),
(604,516,ls),
(594,542,o),
(622,462,o),
(626,435,c),
(625,438,o),
(625,442,o),
(624,445,c),
(626,428,o),
(627,411,o),
(627,394,cs),
(627,374,o),
(626,353,o),
(623,332,c),
(625,343,ls),
(631,377,o),
(613,275,o),
(600,244,c),
(602,247,o),
(603,251,o),
(604,254,cs),
(571,181,o),
(540,156,o),
(466,121,cs),
(469,122,o),
(472,124,o),
(475,125,cs),
(428,105,o),
(275,78,o),
(326,87,cs),
(337,89,ls),
(393,99,o),
(225,79,o),
(170,77,cs),
(137,76,o),
(84,81,o),
(84,35,cs),
(85,14,o),
(102,-6,o),
(124,-6,cs),
(224,-2,o),
(324,-1,o),
(421,23,c),
(594,56,o),
(706,192,o),
(708,368,cs),
(709,381,o),
(710,393,o),
(710,405,cs),
(710,634,o),
(501,762,o),
(288,762,cs),
(262,762,o),
(236,760,o),
(210,756,cs),
(185,751,o),
(151,756,o),
(137,731,cs),
(133,724,o),
(131,718,o),
(131,711,cs),
(131,689,o),
(150,670,o),
(173,670,cs),
(176,670,o),
(180,670,o),
(183,671,cs)
);
}
);
};
layerId = m01;
shapes = (
{
closed = 1;
nodes = (
(118,534,o),
(106,240,o),
(87,33,cs),
(85,12,o),
(102,-6,o),
(124,-6,cs),
(125,-6,ls),
(408,-6,o),
(710,32,o),
(710,398,cs),
(710,634,o),
(501,762,o),
(288,762,cs),
(262,762,o),
(214,759,o),
(178,752,c),
(170,757,o),
(162,759,o),
(153,759,cs),
(133,759,o),
(113,746,o),
(113,720,cs)
);
},
{
closed = 1;
nodes = (
(187,258,o),
(197,502,o),
(195,676,c),
(227,682,o),
(255,684,o),
(284,684,cs),
(488,684,o),
(627,563,o),
(627,394,cs),
(627,161,o),
(493,79,o),
(172,72,c)
);
}
);
width = 775;
},
{
associatedMasterId = m01;
background = {
shapes = (
{
closed = 1;
nodes = (
(121,534,o),
(109,240,o),
(90,33,cs),
(89,7,o),
(110,-6,o),
(130,-6,cs),
(151,-6,o),
(169,7,o),
(171,33,cs),
(190,239,o),
(202,531,o),
(197,720,cs),
(197,746,o),
(177,759,o),
(156,759,cs),
(136,759,o),
(116,746,o),
(116,720,cs)
);
},
{
closed = 1;
nodes = (
(191,672,o),
(197,673,o),
(202,673,cs),
(198,673,o),
(195,672,o),
(191,672,c),
(223,676,o),
(255,679,o),
(287,679,cs),
(314,679,o),
(392,672,o),
(366,674,cs),
(355,675,ls),
(315,679,o),
(434,660,o),
(472,644,cs),
(468,646,o),
(465,647,o),
(462,648,cs),
(541,612,o),
(642,428,o),
(611,506,cs),
(607,516,ls),
(597,542,o),
(625,462,o),
(629,435,c),
(628,438,o),
(628,442,o),
(627,445,c),
(629,428,o),
(630,411,o),
(630,394,cs),
(630,374,o),
(629,353,o),
(626,332,c),
(628,343,ls),
(634,377,o),
(616,275,o),
(603,244,c),
(605,247,o),
(606,251,o),
(607,254,cs),
(574,181,o),
(543,156,o),
(469,121,cs),
(472,122,o),
(475,124,o),
(478,125,cs),
(431,105,o),
(278,78,o),
(329,87,cs),
(340,89,ls),
(396,99,o),
(228,79,o),
(173,77,cs),
(140,76,o),
(87,81,o),
(87,35,cs),
(88,14,o),
(105,-6,o),
(127,-6,cs),
(227,-2,o),
(327,-1,o),
(424,23,c),
(597,56,o),
(709,192,o),
(711,368,cs),
(712,381,o),
(713,393,o),
(713,405,cs),
(713,634,o),
(504,762,o),
(291,762,cs),
(265,762,o),
(239,760,o),
(213,756,cs),
(188,751,o),
(154,756,o),
(140,731,cs),
(136,724,o),
(134,718,o),
(134,711,cs),
(134,689,o),
(153,670,o),
(176,670,cs),
(179,670,o),
(183,670,o),
(186,671,cs)
);
}
);
};
layerId = "8C867EA8-93DB-4F6A-95F6-5DD88EC91D01";
name = "29 Dec 22 11:39";
shapes = (
{
closed = 1;
nodes = (
(121,534,o),
(109,240,o),
(90,33,cs),
(89,7,o),
(110,-6,o),
(130,-6,cs),
(151,-6,o),
(169,7,o),
(171,33,cs),
(190,239,o),
(202,531,o),
(197,720,cs),
(197,746,o),
(177,759,o),
(156,759,cs),
(136,759,o),
(116,746,o),
(116,720,cs)
);
},
{
closed = 1;
nodes = (
(191,672,o),
(197,673,o),
(202,673,cs),
(198,673,o),
(195,672,o),
(191,672,c),
(223,676,o),
(255,679,o),
(287,679,cs),
(314,679,o),
(392,672,o),
(366,674,cs),
(355,675,ls),
(315,679,o),
(434,660,o),
(472,644,cs),
(468,646,o),
(465,647,o),
(462,648,cs),
(541,612,o),
(642,428,o),
(611,506,cs),
(607,516,ls),
(597,542,o),
(625,462,o),
(629,435,c),
(628,438,o),
(628,442,o),
(627,445,c),
(629,428,o),
(630,411,o),
(630,394,cs),
(630,374,o),
(629,353,o),
(626,332,c),
(628,343,ls),
(634,377,o),
(616,275,o),
(603,244,c),
(605,247,o),
(606,251,o),
(607,254,cs),
(574,181,o),
(543,156,o),
(469,121,cs),
(472,122,o),
(475,124,o),
(478,125,cs),
(431,105,o),
(278,78,o),
(329,87,cs),
(340,89,ls),
(396,99,o),
(228,79,o),
(173,77,cs),
(140,76,o),
(87,81,o),
(87,35,cs),
(88,14,o),
(105,-6,o),
(127,-6,cs),
(227,-2,o),
(327,-1,o),
(424,23,c),
(597,56,o),
(709,192,o),
(711,368,cs),
(712,381,o),
(713,393,o),
(713,405,cs),
(713,634,o),
(504,762,o),
(291,762,cs),
(265,762,o),
(239,760,o),
(213,756,cs),
(188,751,o),
(154,756,o),
(140,731,cs),
(136,724,o),
(134,718,o),
(134,711,cs),
(134,689,o),
(153,670,o),
(176,670,cs),
(179,670,o),
(183,670,o),
(186,671,cs)
);
}
);
width = 777;
}
);
metricLeft = D;
metricRight = D;
},
